<svg xmlns="http://www.w3.org/2000/svg" viewBox="0 0 700 500" font-family="system-ui, -apple-system, sans-serif">
  <defs>
    <marker id="arr" markerWidth="10" markerHeight="7" refX="10" refY="3.5" orient="auto">
      <polygon points="0 0, 10 3.5, 0 7" fill="#374151"/>
    </marker>
  </defs>

  <rect width="700" height="500" fill="#f9fafb" rx="8"/>

  <text x="350" y="32" text-anchor="middle" font-size="17" font-weight="bold" fill="#111827">ALB: Two Decision Layers</text>

  <!-- Client request box -->
  <rect x="250" y="52" width="200" height="40" fill="#dbeafe" rx="6" stroke="#93c5fd" stroke-width="1.5"/>
  <text x="350" y="77" text-anchor="middle" font-size="13" font-weight="600" fill="#1e40af">Client request</text>

  <!-- Arrow down -->
  <line x1="350" y1="92" x2="350" y2="125" stroke="#374151" stroke-width="1.5" marker-end="url(#arr)"/>

  <!-- Decision 1 box -->
  <rect x="100" y="130" width="500" height="100" fill="#fef3c7" rx="8" stroke="#f59e0b" stroke-width="2"/>
  <text x="350" y="160" text-anchor="middle" font-size="14" font-weight="bold" fill="#92400e">Decision 1: Select ALB Node</text>
  <text x="350" y="185" text-anchor="middle" font-size="13" fill="#78350f">"Which node handles the request?"</text>

  <!-- Annotation for Decision 1 -->
  <rect x="470" y="198" width="120" height="26" fill="#fee2e2" rx="4"/>
  <text x="530" y="216" text-anchor="middle" font-size="10" fill="#991b1b">Not configurable</text>
  <text x="630" y="155" font-size="11" fill="#6b7280">← DNS shuffle</text>
  <text x="630" y="172" font-size="11" fill="#6b7280">   (client-side)</text>

  <!-- Arrow down with label -->
  <line x1="350" y1="230" x2="350" y2="280" stroke="#374151" stroke-width="1.5" marker-end="url(#arr)"/>
  <text x="350" y="260" text-anchor="middle" font-size="10" fill="#6b7280">(TCP connection to node X)</text>

  <!-- Decision 2 box -->
  <rect x="100" y="285" width="500" height="100" fill="#dcfce7" rx="8" stroke="#16a34a" stroke-width="2"/>
  <text x="350" y="315" text-anchor="middle" font-size="14" font-weight="bold" fill="#14532d">Decision 2: Select Target</text>
  <text x="350" y="340" text-anchor="middle" font-size="13" fill="#166534">"Which backend processes it?"</text>

  <!-- Annotation for Decision 2 -->
  <rect x="470" y="353" width="120" height="26" fill="#dcfce7" rx="4" stroke="#86efac" stroke-width="1"/>
  <text x="530" y="371" text-anchor="middle" font-size="10" fill="#166534">Configurable ✓</text>
  <text x="630" y="310" font-size="11" fill="#6b7280">← Round Robin</text>
  <text x="630" y="327" font-size="11" fill="#6b7280">   / LOR</text>
  <text x="630" y="344" font-size="11" fill="#6b7280">   / Weighted</text>

  <!-- Arrow down -->
  <line x1="350" y1="385" x2="350" y2="430" stroke="#374151" stroke-width="1.5" marker-end="url(#arr)"/>

  <!-- Backend box -->
  <rect x="250" y="435" width="200" height="40" fill="#e0e7ff" rx="6" stroke="#818cf8" stroke-width="1.5"/>
  <text x="350" y="460" text-anchor="middle" font-size="13" font-weight="600" fill="#3730a3">Backend</text>
</svg>
