<svg xmlns="http://www.w3.org/2000/svg" viewBox="0 0 800 360" font-family="system-ui, -apple-system, sans-serif">
  <defs>
    <marker id="arr" markerWidth="10" markerHeight="7" refX="10" refY="3.5" orient="auto">
      <polygon points="0 0, 10 3.5, 0 7" fill="#374151"/>
    </marker>
    <marker id="arrGreen" markerWidth="10" markerHeight="7" refX="10" refY="3.5" orient="auto">
      <polygon points="0 0, 10 3.5, 0 7" fill="#16a34a"/>
    </marker>
  </defs>

  <rect width="800" height="360" fill="#f9fafb" rx="8"/>

  <text x="400" y="32" text-anchor="middle" font-size="17" font-weight="bold" fill="#111827">Least Outstanding Requests (LOR)</text>

  <!-- New incoming request -->
  <rect x="40" y="155" width="130" height="50" fill="#dbeafe" rx="6" stroke="#93c5fd" stroke-width="1.5"/>
  <text x="105" y="178" text-anchor="middle" font-size="12" font-weight="600" fill="#1e40af">Request mới</text>
  <text x="105" y="195" text-anchor="middle" font-size="11" fill="#1e40af">đến ALB</text>

  <!-- Diagonal arrow to Target B (chosen) -->
  <line x1="170" y1="180" x2="455" y2="180" stroke="#16a34a" stroke-width="2" marker-end="url(#arrGreen)"/>
  <rect x="240" y="155" width="120" height="22" fill="#dcfce7" rx="3" stroke="#86efac" stroke-width="1"/>
  <text x="300" y="170" text-anchor="middle" font-size="11" font-weight="700" fill="#166534">ALB chọn Target B</text>

  <!-- Targets with bar charts (in-flight count visualization) -->
  <!-- Target A: 8 requests -->
  <rect x="460" y="80" width="290" height="60" fill="#e0e7ff" rx="6" stroke="#818cf8" stroke-width="1.5"/>
  <text x="475" y="105" font-size="13" font-weight="bold" fill="#3730a3">Target A</text>
  <text x="475" y="128" font-size="11" fill="#4338ca">in-flight: 8 requests</text>
  <!-- 8 dots -->
  <g fill="#6366f1">
    <circle cx="610" cy="112" r="6"/>
    <circle cx="626" cy="112" r="6"/>
    <circle cx="642" cy="112" r="6"/>
    <circle cx="658" cy="112" r="6"/>
    <circle cx="674" cy="112" r="6"/>
    <circle cx="690" cy="112" r="6"/>
    <circle cx="706" cy="112" r="6"/>
    <circle cx="722" cy="112" r="6"/>
  </g>

  <!-- Target B: 3 requests (CHOSEN) -->
  <rect x="460" y="155" width="290" height="60" fill="#dcfce7" rx="6" stroke="#16a34a" stroke-width="2.5"/>
  <text x="475" y="180" font-size="13" font-weight="bold" fill="#14532d">Target B  ← chọn</text>
  <text x="475" y="203" font-size="11" font-weight="600" fill="#166534">in-flight: 3 requests</text>
  <g fill="#16a34a">
    <circle cx="610" cy="187" r="6"/>
    <circle cx="626" cy="187" r="6"/>
    <circle cx="642" cy="187" r="6"/>
  </g>

  <!-- Target C: 5 requests -->
  <rect x="460" y="230" width="290" height="60" fill="#e0e7ff" rx="6" stroke="#818cf8" stroke-width="1.5"/>
  <text x="475" y="255" font-size="13" font-weight="bold" fill="#3730a3">Target C</text>
  <text x="475" y="278" font-size="11" fill="#4338ca">in-flight: 5 requests</text>
  <g fill="#6366f1">
    <circle cx="610" cy="262" r="6"/>
    <circle cx="626" cy="262" r="6"/>
    <circle cx="642" cy="262" r="6"/>
    <circle cx="658" cy="262" r="6"/>
    <circle cx="674" cy="262" r="6"/>
  </g>

  <!-- Bottom note -->
  <text x="400" y="330" text-anchor="middle" font-size="11" font-style="italic" fill="#6b7280">ALB chọn target có ít in-flight requests nhất → tự cân bằng theo capacity thực tế</text>
</svg>
