<svg xmlns="http://www.w3.org/2000/svg" viewBox="0 0 900 400" font-family="system-ui, -apple-system, sans-serif">
  <defs>
    <marker id="arr" markerWidth="10" markerHeight="7" refX="10" refY="3.5" orient="auto">
      <polygon points="0 0, 10 3.5, 0 7" fill="#374151"/>
    </marker>
  </defs>

  <rect width="900" height="400" fill="#f9fafb" rx="8"/>

  <text x="450" y="32" text-anchor="middle" font-size="17" font-weight="bold" fill="#111827">Weighted Random + Anomaly Mitigation</text>

  <!-- State 1: Normal -->
  <rect x="30" y="55" width="270" height="220" fill="#f0fdf4" rx="8" stroke="#86efac" stroke-width="1.5"/>
  <text x="165" y="80" text-anchor="middle" font-size="13" font-weight="600" fill="#166534">1. Normal</text>
  <text x="165" y="100" text-anchor="middle" font-size="10" fill="#16a34a">A, B, C all weight 1.0</text>

  <!-- Stacked bar (proportions) -->
  <rect x="60" y="120" width="70" height="40" fill="#16a34a" rx="3"/>
  <text x="95" y="145" text-anchor="middle" font-size="12" font-weight="bold" fill="white">A</text>
  <text x="95" y="175" text-anchor="middle" font-size="11" fill="#166534">33%</text>

  <rect x="135" y="120" width="70" height="40" fill="#16a34a" rx="3"/>
  <text x="170" y="145" text-anchor="middle" font-size="12" font-weight="bold" fill="white">B</text>
  <text x="170" y="175" text-anchor="middle" font-size="11" fill="#166534">33%</text>

  <rect x="210" y="120" width="70" height="40" fill="#16a34a" rx="3"/>
  <text x="245" y="145" text-anchor="middle" font-size="12" font-weight="bold" fill="white">C</text>
  <text x="245" y="175" text-anchor="middle" font-size="11" fill="#166534">33%</text>

  <text x="165" y="220" text-anchor="middle" font-size="11" font-weight="600" fill="#166534">Status: All targets healthy</text>
  <text x="165" y="245" text-anchor="middle" font-size="10" fill="#15803d">5xx rate: ✓ normal</text>

  <!-- Diagonal arrow to State 2 -->
  <line x1="305" y1="215" x2="335" y2="215" stroke="#374151" stroke-width="1.5" marker-end="url(#arr)"/>

  <!-- State 2: Anomaly -->
  <rect x="340" y="55" width="270" height="220" fill="#fef2f2" rx="8" stroke="#fca5a5" stroke-width="1.5"/>
  <text x="475" y="80" text-anchor="middle" font-size="13" font-weight="600" fill="#991b1b">2. B abnormal</text>
  <text x="475" y="100" text-anchor="middle" font-size="10" fill="#dc2626">ALB reduces weight B → 0.1</text>

  <!-- Bars: A 47%, B 5%, C 47% -->
  <rect x="350" y="120" width="120" height="40" fill="#16a34a" rx="3"/>
  <text x="410" y="145" text-anchor="middle" font-size="12" font-weight="bold" fill="white">A</text>
  <text x="410" y="175" text-anchor="middle" font-size="11" font-weight="600" fill="#166534">47%</text>

  <rect x="475" y="120" width="20" height="40" fill="#dc2626" rx="3"/>
  <text x="485" y="145" text-anchor="middle" font-size="10" font-weight="bold" fill="white">B</text>
  <text x="485" y="175" text-anchor="middle" font-size="11" font-weight="600" fill="#991b1b">5%</text>

  <rect x="500" y="120" width="120" height="40" fill="#16a34a" rx="3"/>
  <text x="560" y="145" text-anchor="middle" font-size="12" font-weight="bold" fill="white">C</text>
  <text x="560" y="175" text-anchor="middle" font-size="11" font-weight="600" fill="#166534">47%</text>

  <text x="475" y="220" text-anchor="middle" font-size="11" font-weight="600" fill="#991b1b">Status: B has high HTTP 5xx</text>
  <text x="475" y="245" text-anchor="middle" font-size="10" fill="#7f1d1d">5xx rate: ⚠ anomaly</text>

  <!-- Diagonal arrow to State 3 -->
  <line x1="615" y1="215" x2="645" y2="215" stroke="#374151" stroke-width="1.5" marker-end="url(#arr)"/>

  <!-- State 3: Recovery -->
  <rect x="650" y="55" width="220" height="220" fill="#f0fdf4" rx="8" stroke="#86efac" stroke-width="1.5"/>
  <text x="760" y="80" text-anchor="middle" font-size="13" font-weight="600" fill="#166534">3. B recovered</text>
  <text x="760" y="100" text-anchor="middle" font-size="10" fill="#16a34a">Weight B returns to 1.0</text>

  <!-- Bars back to 33/33/33 -->
  <rect x="670" y="120" width="60" height="40" fill="#16a34a" rx="3"/>
  <text x="700" y="145" text-anchor="middle" font-size="12" font-weight="bold" fill="white">A</text>
  <text x="700" y="175" text-anchor="middle" font-size="11" fill="#166534">33%</text>

  <rect x="735" y="120" width="60" height="40" fill="#16a34a" rx="3"/>
  <text x="765" y="145" text-anchor="middle" font-size="12" font-weight="bold" fill="white">B</text>
  <text x="765" y="175" text-anchor="middle" font-size="11" fill="#166534">33%</text>

  <rect x="800" y="120" width="60" height="40" fill="#16a34a" rx="3"/>
  <text x="830" y="145" text-anchor="middle" font-size="12" font-weight="bold" fill="white">C</text>
  <text x="830" y="175" text-anchor="middle" font-size="11" fill="#166534">33%</text>

  <text x="760" y="220" text-anchor="middle" font-size="11" font-weight="600" fill="#166534">Auto-restored</text>
  <text x="760" y="245" text-anchor="middle" font-size="10" fill="#15803d">5xx rate: ✓ normal</text>

  <!-- Bottom common note -->
  <rect x="30" y="290" width="840" height="80" fill="white" rx="6" stroke="#e5e7eb" stroke-width="1"/>
  <text x="450" y="315" text-anchor="middle" font-size="13" font-weight="600" fill="#111827">Automatic circuit breaker at Load Balancer level</text>
  <text x="450" y="338" text-anchor="middle" font-size="11" fill="#374151">ALB detects anomaly &amp; auto-reduces weight — no need to wait for health check failure</text>
  <text x="450" y="358" text-anchor="middle" font-size="11" fill="#374151">When target returns to normal → auto-restores weight to 1.0 (auto-recovery)</text>
</svg>
