<svg xmlns="http://www.w3.org/2000/svg" viewBox="0 0 800 380" font-family="system-ui, -apple-system, sans-serif">
  <defs>
    <marker id="arr" markerWidth="10" markerHeight="7" refX="10" refY="3.5" orient="auto">
      <polygon points="0 0, 10 3.5, 0 7" fill="#374151"/>
    </marker>
  </defs>

  <rect width="800" height="380" fill="#f9fafb" rx="8"/>

  <text x="400" y="32" text-anchor="middle" font-size="17" font-weight="bold" fill="#111827">Round Robin</text>

  <!-- Requests column on left -->
  <text x="105" y="70" text-anchor="middle" font-size="12" font-weight="600" fill="#374151">Requests</text>

  <circle cx="105" cy="105" r="20" fill="#dbeafe" stroke="#1d4ed8" stroke-width="1.5"/>
  <text x="105" y="110" text-anchor="middle" font-size="13" font-weight="bold" fill="#1e40af">1</text>

  <circle cx="105" cy="155" r="20" fill="#dbeafe" stroke="#1d4ed8" stroke-width="1.5"/>
  <text x="105" y="160" text-anchor="middle" font-size="13" font-weight="bold" fill="#1e40af">2</text>

  <circle cx="105" cy="205" r="20" fill="#dbeafe" stroke="#1d4ed8" stroke-width="1.5"/>
  <text x="105" y="210" text-anchor="middle" font-size="13" font-weight="bold" fill="#1e40af">3</text>

  <circle cx="105" cy="255" r="20" fill="#dbeafe" stroke="#1d4ed8" stroke-width="1.5"/>
  <text x="105" y="260" text-anchor="middle" font-size="13" font-weight="bold" fill="#1e40af">4</text>

  <circle cx="105" cy="305" r="20" fill="#dbeafe" stroke="#1d4ed8" stroke-width="1.5"/>
  <text x="105" y="310" text-anchor="middle" font-size="13" font-weight="bold" fill="#1e40af">5</text>

  <!-- Targets column on right -->
  <text x="600" y="70" text-anchor="middle" font-size="12" font-weight="600" fill="#374151">Target Group</text>

  <rect x="520" y="90" width="160" height="50" fill="#e0e7ff" rx="6" stroke="#818cf8" stroke-width="1.5"/>
  <text x="600" y="120" text-anchor="middle" font-size="14" font-weight="bold" fill="#3730a3">Target A</text>

  <rect x="520" y="170" width="160" height="50" fill="#e0e7ff" rx="6" stroke="#818cf8" stroke-width="1.5"/>
  <text x="600" y="200" text-anchor="middle" font-size="14" font-weight="bold" fill="#3730a3">Target B</text>

  <rect x="520" y="250" width="160" height="50" fill="#e0e7ff" rx="6" stroke="#818cf8" stroke-width="1.5"/>
  <text x="600" y="280" text-anchor="middle" font-size="14" font-weight="bold" fill="#3730a3">Target C</text>

  <!-- Diagonal arrows: Request N -> Target -->
  <!-- Req 1 -> A -->
  <line x1="125" y1="105" x2="515" y2="115" stroke="#16a34a" stroke-width="1.5" marker-end="url(#arr)"/>
  <!-- Req 2 -> B -->
  <line x1="125" y1="155" x2="515" y2="195" stroke="#16a34a" stroke-width="1.5" marker-end="url(#arr)"/>
  <!-- Req 3 -> C -->
  <line x1="125" y1="205" x2="515" y2="275" stroke="#16a34a" stroke-width="1.5" marker-end="url(#arr)"/>
  <!-- Req 4 -> A (wrap) -->
  <line x1="125" y1="255" x2="515" y2="125" stroke="#dc2626" stroke-width="1.5" stroke-dasharray="5,3" marker-end="url(#arr)"/>
  <!-- Req 5 -> B -->
  <line x1="125" y1="305" x2="515" y2="205" stroke="#dc2626" stroke-width="1.5" stroke-dasharray="5,3" marker-end="url(#arr)"/>

  <!-- Wrap-around note -->
  <rect x="240" y="280" width="180" height="36" fill="#fef3c7" rx="4" stroke="#fbbf24" stroke-width="1"/>
  <text x="330" y="295" text-anchor="middle" font-size="11" font-weight="600" fill="#92400e">↻ Cycles back to start</text>
  <text x="330" y="310" text-anchor="middle" font-size="10" fill="#78350f">(dashed = 2nd round)</text>

  <!-- Bottom note -->
  <text x="400" y="350" text-anchor="middle" font-size="11" font-style="italic" fill="#6b7280">Simple — does not consider backend load</text>
</svg>
