<svg xmlns="http://www.w3.org/2000/svg" viewBox="0 0 850 480" font-family="system-ui, -apple-system, sans-serif">
  <defs>
    <marker id="arr" markerWidth="10" markerHeight="7" refX="10" refY="3.5" orient="auto">
      <polygon points="0 0, 10 3.5, 0 7" fill="#374151"/>
    </marker>
    <marker id="arrGreen" markerWidth="10" markerHeight="7" refX="10" refY="3.5" orient="auto">
      <polygon points="0 0, 10 3.5, 0 7" fill="#16a34a"/>
    </marker>
  </defs>

  <rect width="850" height="480" fill="#f9fafb" rx="8"/>

  <!-- Title -->
  <text x="425" y="32" text-anchor="middle" font-size="17" font-weight="bold" fill="#111827">Connection Pool: Khởi tạo &amp; Sử dụng</text>

  <!-- Section 1: Pool Init -->
  <rect x="20" y="50" width="810" height="220" fill="#f0fdf4" rx="6" stroke="#86efac" stroke-width="1"/>
  <text x="425" y="75" text-anchor="middle" font-size="14" font-weight="600" fill="#166534">Pool khởi tạo</text>

  <!-- 5 connection setup rows -->
  <rect x="50" y="95" width="160" height="26" fill="#e0e7ff" rx="4" stroke="#818cf8" stroke-width="1"/>
  <text x="130" y="113" text-anchor="middle" font-size="11" fill="#3730a3">TCP + TLS + Auth</text>
  <line x1="210" y1="108" x2="310" y2="108" stroke="#374151" stroke-width="1.2" marker-end="url(#arr)"/>
  <text x="330" y="113" font-size="11" fill="#374151">C1</text>

  <rect x="50" y="130" width="160" height="26" fill="#e0e7ff" rx="4" stroke="#818cf8" stroke-width="1"/>
  <text x="130" y="148" text-anchor="middle" font-size="11" fill="#3730a3">TCP + TLS + Auth</text>
  <line x1="210" y1="143" x2="310" y2="143" stroke="#374151" stroke-width="1.2" marker-end="url(#arr)"/>
  <text x="330" y="148" font-size="11" fill="#374151">C2</text>

  <rect x="50" y="165" width="160" height="26" fill="#e0e7ff" rx="4" stroke="#818cf8" stroke-width="1"/>
  <text x="130" y="183" text-anchor="middle" font-size="11" fill="#3730a3">TCP + TLS + Auth</text>
  <line x1="210" y1="178" x2="310" y2="178" stroke="#374151" stroke-width="1.2" marker-end="url(#arr)"/>
  <text x="330" y="183" font-size="11" fill="#374151">C3</text>

  <rect x="50" y="200" width="160" height="26" fill="#e0e7ff" rx="4" stroke="#818cf8" stroke-width="1"/>
  <text x="130" y="218" text-anchor="middle" font-size="11" fill="#3730a3">TCP + TLS + Auth</text>
  <line x1="210" y1="213" x2="310" y2="213" stroke="#374151" stroke-width="1.2" marker-end="url(#arr)"/>
  <text x="330" y="218" font-size="11" fill="#374151">C4</text>

  <rect x="50" y="235" width="160" height="26" fill="#e0e7ff" rx="4" stroke="#818cf8" stroke-width="1"/>
  <text x="130" y="253" text-anchor="middle" font-size="11" fill="#3730a3">TCP + TLS + Auth</text>
  <line x1="210" y1="248" x2="310" y2="248" stroke="#374151" stroke-width="1.2" marker-end="url(#arr)"/>
  <text x="330" y="253" font-size="11" fill="#374151">C5</text>

  <!-- Converging lines -->
  <line x1="350" y1="108" x2="430" y2="178" stroke="#374151" stroke-width="1"/>
  <line x1="350" y1="143" x2="430" y2="178" stroke="#374151" stroke-width="1"/>
  <line x1="350" y1="178" x2="430" y2="178" stroke="#374151" stroke-width="1"/>
  <line x1="350" y1="213" x2="430" y2="178" stroke="#374151" stroke-width="1"/>
  <line x1="350" y1="248" x2="430" y2="178" stroke="#374151" stroke-width="1"/>

  <!-- Idle Pool box -->
  <rect x="440" y="125" width="350" height="110" fill="#dcfce7" rx="6" stroke="#16a34a" stroke-width="2"/>
  <text x="615" y="155" text-anchor="middle" font-size="14" font-weight="bold" fill="#14532d">Idle Pool</text>
  <text x="615" y="180" text-anchor="middle" font-size="13" fill="#166534">[ C1, C2, C3, C4, C5 ]</text>
  <text x="615" y="220" text-anchor="middle" font-size="11" fill="#15803d">Sẵn sàng phục vụ — không cần setup lại</text>

  <!-- Section 2: Request Flow -->
  <rect x="20" y="285" width="810" height="175" fill="#eff6ff" rx="6" stroke="#93c5fd" stroke-width="1"/>
  <text x="425" y="310" text-anchor="middle" font-size="14" font-weight="600" fill="#1e40af">Khi có request</text>

  <!-- Request 1 flow -->
  <rect x="50" y="325" width="90" height="30" fill="#dbeafe" rx="4" stroke="#93c5fd" stroke-width="1"/>
  <text x="95" y="345" text-anchor="middle" font-size="11" fill="#1e40af">Request</text>

  <line x1="140" y1="340" x2="210" y2="340" stroke="#374151" stroke-width="1.2" marker-end="url(#arr)"/>
  <text x="175" y="333" text-anchor="middle" font-size="9" fill="#6b7280">checkout</text>

  <rect x="220" y="325" width="60" height="30" fill="#fef3c7" rx="4" stroke="#fbbf24" stroke-width="1"/>
  <text x="250" y="345" text-anchor="middle" font-size="11" font-weight="600" fill="#92400e">C1</text>

  <line x1="280" y1="340" x2="370" y2="340" stroke="#374151" stroke-width="1.2" marker-end="url(#arr)"/>
  <text x="325" y="333" text-anchor="middle" font-size="9" fill="#6b7280">query (2ms)</text>

  <line x1="380" y1="340" x2="460" y2="340" stroke="#16a34a" stroke-width="1.2" marker-end="url(#arrGreen)"/>
  <text x="420" y="333" text-anchor="middle" font-size="9" fill="#16a34a">release</text>

  <rect x="470" y="325" width="120" height="30" fill="#dcfce7" rx="4" stroke="#16a34a" stroke-width="1"/>
  <text x="530" y="345" text-anchor="middle" font-size="11" fill="#166534">Pool ← C1</text>

  <!-- Request 2 flow -->
  <rect x="50" y="370" width="90" height="30" fill="#dbeafe" rx="4" stroke="#93c5fd" stroke-width="1"/>
  <text x="95" y="390" text-anchor="middle" font-size="11" fill="#1e40af">Request</text>

  <line x1="140" y1="385" x2="210" y2="385" stroke="#374151" stroke-width="1.2" marker-end="url(#arr)"/>
  <text x="175" y="378" text-anchor="middle" font-size="9" fill="#6b7280">checkout</text>

  <rect x="220" y="370" width="60" height="30" fill="#fef3c7" rx="4" stroke="#fbbf24" stroke-width="1"/>
  <text x="250" y="390" text-anchor="middle" font-size="11" font-weight="600" fill="#92400e">C2</text>

  <line x1="280" y1="385" x2="370" y2="385" stroke="#374151" stroke-width="1.2" marker-end="url(#arr)"/>
  <text x="325" y="378" text-anchor="middle" font-size="9" fill="#6b7280">query (3ms)</text>

  <line x1="380" y1="385" x2="460" y2="385" stroke="#16a34a" stroke-width="1.2" marker-end="url(#arrGreen)"/>
  <text x="420" y="378" text-anchor="middle" font-size="9" fill="#16a34a">release</text>

  <rect x="470" y="370" width="120" height="30" fill="#dcfce7" rx="4" stroke="#16a34a" stroke-width="1"/>
  <text x="530" y="390" text-anchor="middle" font-size="11" fill="#166534">Pool ← C2</text>

  <!-- Note -->
  <text x="690" y="360" text-anchor="middle" font-size="11" font-weight="600" fill="#16a34a">Không có</text>
  <text x="690" y="378" text-anchor="middle" font-size="11" font-weight="600" fill="#16a34a">TCP/TLS/Auth</text>
  <text x="690" y="396" text-anchor="middle" font-size="11" font-weight="600" fill="#16a34a">overhead</text>
</svg>
