<svg xmlns="http://www.w3.org/2000/svg" viewBox="0 0 700 400" font-family="system-ui, -apple-system, sans-serif">
  <defs>
    <marker id="arrowRight" markerWidth="10" markerHeight="7" refX="10" refY="3.5" orient="auto">
      <polygon points="0 0, 10 3.5, 0 7" fill="#374151"/>
    </marker>
    <marker id="arrowLeft" markerWidth="10" markerHeight="7" refX="0" refY="3.5" orient="auto">
      <polygon points="10 0, 0 3.5, 10 7" fill="#374151"/>
    </marker>
  </defs>

  <rect width="700" height="400" fill="#f9fafb" rx="8"/>

  <text x="350" y="32" text-anchor="middle" font-size="17" font-weight="bold" fill="#111827">TCP 4-Way Connection Close</text>

  <rect x="120" y="55" width="100" height="36" fill="#dbeafe" rx="6" stroke="#93c5fd" stroke-width="1.5"/>
  <text x="170" y="78" text-anchor="middle" font-size="13" font-weight="600" fill="#1e40af">Client</text>

  <rect x="480" y="55" width="100" height="36" fill="#e0e7ff" rx="6" stroke="#818cf8" stroke-width="1.5"/>
  <text x="530" y="78" text-anchor="middle" font-size="13" font-weight="600" fill="#3730a3">Database</text>

  <line x1="170" y1="91" x2="170" y2="340" stroke="#9ca3af" stroke-width="1" stroke-dasharray="4"/>
  <line x1="530" y1="91" x2="530" y2="340" stroke="#9ca3af" stroke-width="1" stroke-dasharray="4"/>

  <line x1="170" y1="130" x2="520" y2="130" stroke="#374151" stroke-width="1.5" marker-end="url(#arrowRight)"/>
  <text x="350" y="123" text-anchor="middle" font-size="12" font-weight="600" fill="#1e40af">FIN</text>

  <line x1="520" y1="175" x2="180" y2="175" stroke="#374151" stroke-width="1.5" marker-end="url(#arrowLeft)"/>
  <text x="350" y="168" text-anchor="middle" font-size="12" font-weight="600" fill="#3730a3">ACK</text>

  <line x1="520" y1="220" x2="180" y2="220" stroke="#374151" stroke-width="1.5" marker-end="url(#arrowLeft)"/>
  <text x="350" y="213" text-anchor="middle" font-size="12" font-weight="600" fill="#3730a3">FIN</text>

  <line x1="170" y1="265" x2="520" y2="265" stroke="#374151" stroke-width="1.5" marker-end="url(#arrowRight)"/>
  <text x="350" y="258" text-anchor="middle" font-size="12" font-weight="600" fill="#1e40af">ACK</text>

  <line x1="170" y1="315" x2="530" y2="315" stroke="#e5e7eb" stroke-width="1" stroke-dasharray="6"/>
  <rect x="230" y="340" width="240" height="30" fill="#fef3c7" rx="4" stroke="#fbbf24" stroke-width="1"/>
  <text x="350" y="360" text-anchor="middle" font-size="12" font-weight="600" fill="#92400e">2 RTT to close connection</text>
</svg>
