<?xml version="1.0" standalone="no"?>
<!DOCTYPE svg PUBLIC "-//W3C//DTD SVG 20010904//EN"
 "http://www.w3.org/TR/2001/REC-SVG-20010904/DTD/svg10.dtd">
<svg version="1.0" xmlns="http://www.w3.org/2000/svg"
 width="1800.000000pt" height="1320.000000pt" viewBox="0 0 1800.000000 1320.000000"
 preserveAspectRatio="xMidYMid meet">
<rect x="0" y="0" width="1800" height="1320" fill="#ffffff"/>
<g transform="translate(0.000000,1320.000000) scale(0.100000,-0.100000)"
fill="#000000" stroke="none">
<path d="M5854 12906 l-80 -11 -27 -18 c-35 -23 -31 55 -32 -732 l0 -690 -265
-6 c-146 -4 -305 -10 -355 -13 -49 -4 -160 -11 -245 -16 -143 -9 -296 -21
-620 -50 -69 -6 -134 -13 -145 -17 -11 -3 -74 -12 -140 -19 -173 -19 -335 -42
-371 -53 l-32 -9 -28 27 c-16 14 -51 53 -79 85 -27 33 -61 71 -75 86 -14 14
-56 62 -95 106 -38 43 -110 122 -160 174 -49 52 -126 135 -170 185 -44 49
-100 108 -125 132 l-44 43 -22 0 -23 0 -6 -20 -7 -21 38 -42 c21 -23 54 -60
74 -81 19 -22 71 -78 116 -125 44 -47 116 -124 159 -171 44 -47 141 -148 217
-225 l138 -140 -22 -15 c-12 -8 -62 -20 -112 -27 -50 -7 -131 -19 -181 -28
-49 -8 -119 -20 -154 -26 -36 -6 -73 -15 -82 -20 -10 -5 -31 -9 -47 -9 -16 0
-52 -6 -78 -14 -48 -14 -105 -28 -194 -46 -25 -6 -54 -14 -65 -19 -11 -5 -41
-12 -67 -16 -26 -3 -50 -10 -53 -16 -4 -5 -18 -9 -33 -9 -15 0 -40 -7 -56 -15
-15 -8 -37 -15 -48 -15 -11 0 -34 -6 -51 -14 -18 -8 -43 -16 -57 -19 -37 -8
-204 -68 -215 -78 -5 -5 -18 -9 -28 -9 -10 0 -31 -6 -45 -13 -15 -8 -43 -21
-62 -30 -227 -101 -360 -182 -454 -276 l-64 -63 -32 -64 c-17 -35 -33 -85 -37
-113 l-6 -49 19 -54 c48 -136 227 -302 404 -374 8 -3 44 -20 80 -37 36 -16 79
-36 95 -43 17 -7 46 -20 67 -28 20 -9 40 -16 46 -16 5 0 23 -7 38 -15 16 -8
39 -15 51 -15 12 0 24 -4 28 -9 3 -5 20 -12 38 -16 17 -4 50 -12 72 -20 22 -7
67 -21 100 -30 33 -9 76 -22 95 -28 19 -6 53 -14 75 -18 22 -5 69 -16 105 -25
36 -9 97 -22 135 -30 39 -7 86 -18 105 -24 19 -5 50 -10 68 -10 18 0 41 -4 51
-10 10 -5 52 -14 92 -20 41 -6 117 -18 169 -26 166 -26 301 -44 435 -59 72 -7
157 -19 190 -25 33 -6 89 -13 125 -14 63 -3 390 -29 500 -41 150 -16 498 -29
885 -32 l429 -3 6 -10 c3 -5 7 -117 8 -250 l3 -240 -13 -5 c-7 -3 -92 -7 -188
-10 -96 -3 -295 -9 -441 -14 l-265 -8 -22 -12 -21 -11 -123 -1 c-68 0 -148 -5
-178 -10 -30 -5 -116 -14 -190 -18 -74 -5 -148 -14 -163 -20 -16 -6 -56 -11
-90 -11 -34 -1 -82 -5 -107 -10 l-45 -8 -7 11 c-4 7 -5 59 -2 117 l5 105 -9
14 -10 14 -26 -7 -26 -6 0 -128 0 -128 -87 -12 c-49 -7 -125 -17 -171 -23
l-84 -9 -51 21 c-29 12 -79 34 -112 50 -33 15 -82 37 -110 49 -27 12 -58 26
-67 31 -10 5 -26 9 -37 9 -10 0 -24 7 -31 15 -7 8 -18 15 -25 15 -8 0 -26 6
-42 14 -15 7 -45 21 -65 30 -21 9 -55 24 -75 33 -21 9 -54 23 -73 31 -19 8
-47 21 -62 29 -14 7 -35 13 -46 13 -11 0 -22 7 -26 15 l-5 15 -24 0 c-14 0
-30 7 -37 15 -7 8 -22 15 -34 15 -11 0 -30 7 -40 15 -11 8 -27 15 -37 15 -9 0
-22 7 -29 15 -7 8 -26 15 -42 15 l-29 0 -6 -16 c-7 -19 6 -44 28 -54 33 -16
89 -40 164 -70 117 -47 203 -85 247 -107 14 -7 35 -13 46 -13 11 0 25 -7 32
-15 7 -8 21 -15 30 -15 10 0 31 -6 47 -14 15 -8 44 -21 63 -29 19 -8 51 -22
70 -30 19 -8 46 -20 60 -25 78 -33 129 -56 163 -72 l38 -18 -18 -6 c-10 -3
-61 -12 -113 -20 -241 -37 -518 -93 -710 -143 -74 -19 -157 -41 -185 -48 -100
-26 -328 -102 -425 -142 -19 -8 -44 -18 -55 -23 -89 -36 -285 -139 -350 -182
-101 -68 -245 -218 -245 -257 0 -4 -7 -22 -16 -40 l-16 -33 4 -61 c15 -187
239 -391 572 -518 28 -11 60 -24 71 -29 35 -16 227 -80 305 -101 128 -35 412
-106 475 -118 33 -7 92 -18 130 -26 149 -29 193 -37 265 -46 41 -5 88 -14 104
-19 16 -6 52 -10 80 -10 28 0 76 -7 106 -15 30 -8 81 -15 112 -15 31 0 83 -7
115 -15 l57 -15 87 0 87 0 12 -15 12 -14 -2 -93 c-1 -51 -1 -103 -1 -114 l1
-22 23 -6 22 -6 13 18 13 17 -2 102 c-1 57 -1 105 2 107 6 5 214 -12 279 -23
30 -5 115 -10 188 -10 l133 -1 22 -12 22 -12 320 -8 c176 -5 443 -10 594 -12
l274 -4 8 -13 c4 -7 8 -422 9 -921 l1 -908 -11 -20 -10 -19 -253 -1 c-138 0
-306 -5 -372 -10 -66 -6 -192 -14 -280 -20 -88 -5 -198 -14 -245 -19 -86 -11
-225 -24 -425 -41 -60 -6 -117 -13 -125 -16 -15 -6 -175 -27 -345 -44 -49 -6
-100 -14 -113 -20 -13 -5 -42 -10 -65 -10 -23 -1 -62 -5 -87 -11 -25 -6 -79
-15 -120 -20 -41 -5 -79 -14 -84 -19 -6 -6 -29 -10 -52 -10 -23 0 -64 -7 -90
-15 -27 -8 -75 -17 -106 -20 -32 -4 -60 -11 -63 -16 -4 -5 -23 -9 -43 -9 -20
-1 -55 -7 -77 -15 -22 -8 -51 -15 -65 -15 -14 0 -38 -7 -54 -15 -15 -8 -41
-15 -57 -15 -17 0 -46 -7 -66 -15 -19 -8 -44 -15 -55 -15 -11 0 -34 -6 -51
-14 -18 -8 -45 -16 -62 -19 -16 -3 -45 -10 -62 -16 -69 -23 -99 -33 -128 -41
-69 -19 -213 -73 -315 -118 -306 -134 -462 -253 -540 -410 l-30 -61 0 -60 0
-61 31 -66 31 -66 67 -67 c99 -100 315 -228 491 -291 36 -13 70 -26 75 -30 6
-4 44 -17 85 -29 41 -13 84 -26 95 -31 11 -5 36 -12 55 -16 19 -3 41 -10 50
-15 18 -9 84 -26 165 -42 l60 -12 0 -14 0 -14 -115 -73 c-63 -40 -150 -93
-192 -119 -77 -46 -94 -67 -82 -99 14 -36 28 -28 342 183 62 42 123 82 136 90
l23 15 84 -18 c46 -10 102 -21 124 -26 22 -4 74 -15 115 -24 635 -134 1763
-233 2581 -227 l217 1 5 -32 c2 -18 2 -221 -1 -450 l-5 -417 17 -25 c9 -14 35
-35 58 -47 l42 -21 74 -10 73 -9 62 18 c72 20 122 47 132 71 4 9 6 218 5 463
l-1 445 15 14 16 13 78 -6 c42 -2 158 -1 257 4 99 4 212 9 250 10 207 5 738
48 1110 91 l100 11 130 -23 c72 -13 166 -29 210 -36 44 -7 118 -19 165 -28 47
-8 137 -24 200 -35 63 -11 156 -28 205 -36 50 -9 117 -21 150 -25 59 -9 114
-18 250 -45 114 -22 205 -37 281 -44 38 -4 76 -11 84 -16 8 -5 46 -12 84 -16
101 -11 219 -28 235 -35 l15 -5 -15 -14 -15 -15 -77 -6 c-43 -4 -80 -11 -83
-16 -10 -15 6 -46 26 -51 11 -3 20 -12 20 -20 l0 -14 -147 -89 c-165 -99 -163
-98 -224 -138 -24 -15 -77 -49 -118 -75 -40 -25 -91 -62 -113 -81 l-39 -35 6
-18 7 -17 33 0 c19 0 37 5 40 10 6 10 115 82 283 189 40 25 94 63 120 84 26
21 56 43 67 48 11 5 42 25 69 44 57 41 66 43 66 11 0 -87 28 -72 115 60 88
132 89 132 157 110 28 -9 67 -16 87 -16 20 0 54 -7 76 -15 22 -8 63 -14 90
-15 28 0 56 -5 61 -10 6 -6 42 -13 80 -16 38 -4 88 -12 112 -20 23 -8 61 -14
83 -14 22 0 49 -4 59 -10 10 -5 52 -14 92 -19 40 -5 91 -14 113 -20 22 -6 56
-11 75 -11 19 0 53 -7 75 -15 22 -8 61 -14 86 -15 26 0 66 -7 89 -15 23 -8 57
-15 76 -15 18 0 59 -7 91 -15 31 -8 75 -15 96 -15 21 0 47 -4 57 -10 10 -5 52
-14 92 -20 117 -15 148 -22 154 -31 3 -5 5 -172 4 -372 l0 -363 28 -21 c15
-11 43 -23 62 -25 19 -3 50 -11 68 -17 17 -6 47 -16 65 -22 17 -6 46 -14 64
-16 18 -3 38 -11 44 -19 6 -8 26 -14 43 -14 17 -1 42 -7 56 -15 14 -8 37 -14
51 -15 14 0 34 -7 45 -15 10 -8 33 -15 49 -15 17 0 39 -7 49 -15 11 -8 29 -15
40 -15 11 0 38 -6 61 -14 22 -7 64 -21 93 -31 l53 -17 47 7 c26 4 52 10 57 15
6 4 30 12 55 18 25 6 70 18 100 27 30 9 73 21 95 27 22 5 49 14 60 18 11 5 39
12 62 15 24 4 45 11 49 16 3 5 20 9 37 9 18 0 45 7 61 15 15 8 40 15 55 15 14
1 37 7 51 15 14 8 36 14 50 15 14 0 48 9 75 19 l50 19 5 4358 5 4359 10 0 c6
0 90 -4 188 -9 l178 -8 24 16 c29 19 32 41 8 50 -9 4 -105 6 -212 6 l-196 -2
-5 805 -5 804 -14 16 -13 17 -34 0 c-18 0 -45 5 -61 11 -27 11 -110 31 -206
49 -26 5 -62 13 -80 19 -17 5 -66 17 -107 26 -84 18 -153 34 -283 65 -133 32
-144 31 -477 -45 -41 -10 -102 -23 -135 -30 -33 -7 -91 -21 -130 -30 -38 -9
-97 -21 -130 -27 l-60 -11 -22 -20 -23 -20 0 -684 0 -684 -67 7 c-38 4 -75 10
-84 15 -9 4 -47 11 -85 15 -38 3 -88 12 -112 20 -23 8 -63 14 -88 14 -25 0
-54 5 -64 10 -11 6 -47 13 -82 16 -35 3 -74 10 -89 15 -14 5 -56 14 -95 19
-115 15 -206 30 -258 42 -27 6 -79 15 -115 19 -36 5 -84 12 -106 16 l-40 8 -5
50 c-4 28 -18 73 -32 100 l-26 50 -68 66 c-84 80 -164 133 -294 195 -30 14
-62 30 -70 35 -8 5 -22 12 -30 15 -8 3 -33 13 -55 21 -22 8 -52 21 -67 29 -14
8 -33 14 -41 14 -8 0 -28 7 -43 15 -16 8 -36 15 -45 15 -9 0 -30 7 -45 15 -16
8 -36 15 -45 15 -9 0 -30 7 -45 15 -16 8 -40 15 -54 15 -15 0 -30 4 -36 10 -5
5 -30 14 -54 19 -64 14 -128 31 -180 47 -25 8 -59 14 -77 14 -17 0 -34 4 -38
9 -3 6 -27 12 -53 16 -26 3 -62 11 -81 17 -19 6 -60 14 -90 19 -72 11 -163 27
-226 41 -27 6 -77 14 -110 18 -127 16 -232 31 -275 41 -25 6 -83 13 -130 15
-47 3 -96 10 -110 15 -14 5 -79 13 -145 18 -118 10 -237 21 -445 42 -58 6
-188 15 -290 19 -102 5 -259 14 -350 20 l-165 11 -325 -3 -325 -3 -3 413 -2
412 14 0 c14 0 104 -38 169 -71 l38 -19 19 10 19 10 -15 35 -14 35 12 1 c7 0
105 1 218 2 l205 2 3 28 3 27 -14 6 c-8 3 -106 6 -218 7 l-204 2 4 15 c2 8 5
26 5 40 l1 24 -17 4 c-14 3 -101 -33 -181 -75 -15 -8 -32 -11 -37 -8 l-10 6 1
240 1 240 -13 15 c-22 26 -62 41 -129 49 -36 3 -72 8 -80 9 -8 2 -51 -2 -96
-8z m180 -62 c9 -3 16 -12 16 -20 l0 -13 -36 -7 c-39 -7 -192 0 -202 10 -3 4
3 13 14 21 l19 14 87 1 c47 0 93 -3 102 -6z m71 -93 c7 -12 7 -2285 -1 -2304
-3 -8 -16 -20 -30 -28 l-25 -13 -56 1 c-71 2 -73 5 -78 99 -2 44 -8 147 -13
229 l-9 150 9 370 c9 386 10 1415 2 1451 l-5 21 76 6 c42 4 84 11 93 17 22 12
29 12 37 1z m6775 -1082 c8 -4 40 -13 70 -18 30 -5 87 -17 125 -26 88 -20 196
-43 256 -54 25 -5 64 -14 85 -20 21 -6 49 -12 62 -13 57 -7 25 -25 -93 -53
-33 -8 -87 -22 -120 -31 -33 -9 -85 -22 -115 -30 -30 -7 -98 -24 -150 -38 -52
-14 -112 -30 -133 -35 l-38 -9 -52 15 c-29 8 -61 18 -72 23 -11 4 -38 13 -60
18 -22 6 -87 25 -145 42 -130 39 -185 55 -280 80 -41 11 -78 24 -83 29 l-10
10 39 6 c61 9 74 12 149 29 71 17 180 39 270 56 27 5 61 14 75 19 52 21 182
21 220 0z m-756 -195 c44 -14 99 -32 121 -39 91 -31 278 -86 385 -115 63 -17
126 -34 140 -38 l25 -7 3 -5140 2 -5139 -8 -8 -9 -9 -39 10 c-51 12 -102 30
-137 47 -16 8 -38 14 -50 14 -12 1 -33 7 -47 15 -14 8 -35 14 -46 15 -12 0
-35 7 -50 15 -16 8 -40 15 -54 15 -14 0 -34 7 -44 15 -11 8 -31 15 -45 15 -14
0 -35 7 -45 15 -11 8 -31 15 -45 15 -14 1 -37 7 -51 15 -14 8 -36 15 -50 15
-14 0 -35 8 -48 18 l-23 18 0 5124 c1 2819 1 5128 1 5133 0 13 30 8 114 -19z
m1529 -772 l2 -773 -21 -5 c-11 -3 -45 -4 -75 -2 l-54 3 2 15 c1 8 5 27 9 42
l6 28 -15 6 c-9 3 -35 -3 -59 -14 -24 -11 -61 -28 -83 -37 -22 -9 -48 -20 -57
-25 -10 -6 -24 -10 -32 -10 -7 0 -19 -6 -25 -14 l-12 -14 27 -21 c15 -12 31
-21 36 -21 8 0 46 -16 135 -56 17 -8 36 -14 42 -14 6 0 11 -4 11 -10 0 -5 7
-10 16 -10 l16 0 -5 33 c-3 17 -8 42 -12 55 l-7 22 58 -1 c33 0 67 -4 77 -8
l18 -7 -1 -4328 0 -4329 -53 -18 c-28 -10 -64 -18 -78 -19 -14 0 -34 -7 -45
-15 -10 -8 -35 -15 -55 -15 -19 0 -44 -7 -55 -15 -10 -8 -35 -15 -55 -15 -19
0 -44 -7 -55 -15 -21 -16 -90 -20 -99 -6 -3 5 4 12 14 16 l20 6 -6 15 c-3 7
-11 14 -18 14 l-13 0 -7 37 c-4 21 -12 1962 -16 4313 -5 2351 -9 4331 -10
4400 -1 69 3 388 9 710 l10 585 11 35 c6 19 9 42 6 51 l-6 17 26 6 c28 7 33
24 10 32 -23 9 -18 24 9 24 13 0 37 6 53 14 39 19 154 56 174 56 9 0 30 7 45
15 16 8 38 15 49 16 11 0 36 7 55 14 19 8 45 13 58 12 l22 -2 3 -773z m-7945
681 l10 -18 -2 -180 -1 -180 -145 -12 c-80 -6 -190 -12 -245 -13 -55 -1 -125
-6 -155 -11 -30 -5 -104 -13 -163 -18 -60 -5 -114 -14 -120 -19 -7 -5 -49 -12
-95 -15 -45 -4 -91 -11 -101 -17 -11 -5 -39 -10 -63 -10 -24 0 -56 -7 -72 -15
-15 -8 -38 -15 -50 -15 -13 0 -42 -6 -67 -14 -24 -7 -71 -21 -104 -31 -68 -19
-101 -31 -197 -70 -37 -15 -74 -25 -82 -22 l-14 6 -34 103 c-18 57 -37 106
-43 110 -19 14 -35 8 -47 -17 -17 -38 -28 -32 -114 62 -43 48 -93 102 -110
120 -44 43 -84 98 -84 111 l0 12 40 0 c22 0 118 9 213 19 94 11 233 25 307 31
74 6 173 16 220 21 143 17 525 44 830 60 258 13 452 27 458 34 10 10 21 5 30
-12z m1192 -12 c19 -5 112 -9 205 -10 296 -2 933 -59 1420 -128 357 -50 366
-51 410 -62 22 -6 57 -11 77 -11 20 0 40 -4 43 -10 3 -5 20 -10 37 -10 18 0
57 -6 87 -14 77 -20 147 -35 204 -46 48 -9 73 -16 163 -44 29 -9 62 -16 75
-16 13 -1 35 -7 49 -15 14 -8 37 -14 51 -15 14 0 34 -7 45 -15 10 -8 31 -15
45 -15 14 0 34 -7 45 -15 10 -8 31 -15 45 -15 15 0 32 -7 39 -15 7 -8 22 -15
34 -15 12 0 31 -7 42 -15 10 -8 28 -15 39 -15 11 0 29 -9 38 -21 l18 -21 14 6
c7 2 19 -2 25 -10 7 -8 20 -14 30 -14 10 0 23 -7 30 -15 7 -8 17 -15 22 -15 5
0 21 -8 36 -19 15 -10 59 -40 98 -65 l71 -46 51 -70 c29 -38 52 -78 52 -89 0
-12 5 -21 10 -21 6 0 10 -7 10 -15 l0 -15 -62 0 -63 1 -25 14 -25 14 -61 1
-62 0 -35 15 c-20 8 -62 15 -94 15 l-58 1 -25 14 -25 14 -56 1 c-31 0 -73 7
-92 15 -20 8 -56 15 -81 15 -25 0 -57 5 -71 10 -15 6 -62 15 -104 20 -42 6
-107 15 -146 20 -38 5 -86 13 -105 19 -52 14 -219 38 -450 65 -80 9 -185 23
-235 31 -49 8 -103 16 -120 19 -95 14 -215 36 -245 45 -19 6 -47 11 -61 11
l-26 0 -114 -82 c-63 -45 -116 -85 -119 -88 -11 -12 -70 -50 -77 -50 -4 0 -21
13 -38 28 -84 77 -406 222 -495 222 -8 0 -32 6 -55 14 -54 18 -129 36 -195 47
-79 12 -172 27 -270 44 -47 8 -108 15 -136 15 -28 0 -54 3 -58 8 -4 4 -17 8
-29 8 -12 1 -119 7 -237 14 l-215 12 -13 11 -13 11 1 170 c1 94 4 179 7 189
l5 18 341 -6 c188 -3 358 -10 377 -14z m-3285 -277 c187 -197 215 -227 226
-240 l11 -13 -36 -15 -36 -15 0 -20 0 -20 23 -6 c12 -4 36 -13 52 -20 150 -66
146 -60 71 -110 -29 -19 -74 -57 -99 -84 l-46 -49 -11 -43 -12 -44 6 -44 c3
-24 12 -51 19 -59 l12 -15 5 -111 5 -111 28 -3 27 -3 1 23 c1 13 2 32 3 43 1
11 3 31 4 43 l2 24 48 -35 c54 -39 181 -107 203 -107 8 0 23 -7 33 -15 11 -8
29 -15 40 -15 12 0 30 -7 40 -15 11 -8 32 -15 46 -15 14 0 31 -5 38 -12 6 -6
30 -15 54 -19 95 -18 155 -32 191 -45 20 -8 52 -14 70 -14 17 0 54 -7 81 -15
27 -8 69 -15 93 -15 24 0 53 -5 64 -10 18 -10 53 -14 329 -40 262 -24 366 -30
570 -36 l215 -6 170 11 c94 6 244 15 334 21 90 6 167 13 172 15 4 3 59 10 121
16 62 5 117 14 122 19 6 6 34 10 63 10 29 0 72 6 95 14 24 8 70 16 102 19 32
3 64 11 69 16 6 6 25 11 42 11 31 0 60 8 200 55 44 14 94 30 111 34 60 16 205
93 285 152 l81 60 16 -3 17 -3 3 -53 3 -53 15 -6 c23 -9 39 14 39 55 l0 37 45
-2 c25 -1 86 -9 135 -18 50 -9 128 -23 175 -31 47 -8 114 -21 150 -29 36 -7
108 -21 160 -30 52 -9 115 -21 140 -27 25 -6 72 -14 105 -18 33 -4 76 -12 95
-18 39 -12 147 -30 255 -42 39 -4 83 -12 98 -19 16 -6 48 -11 71 -11 24 0 63
-7 86 -15 23 -8 62 -15 85 -15 23 0 62 -7 85 -15 23 -8 62 -15 85 -15 47 0
105 -17 105 -31 0 -5 -12 -9 -27 -9 -16 0 -37 -7 -47 -15 -11 -8 -29 -15 -41
-15 -11 0 -29 -6 -40 -14 -11 -7 -33 -16 -50 -19 -16 -3 -67 -17 -112 -30 -45
-14 -155 -42 -245 -62 -90 -20 -190 -42 -223 -50 -134 -32 -254 -58 -325 -70
-81 -14 -156 -28 -265 -50 -172 -34 -387 -67 -460 -69 l-30 -1 -5 88 -5 88
-15 9 -14 9 -13 -10 -12 -11 -3 -91 -3 -91 -29 -7 c-16 -5 -61 -9 -100 -10
-39 0 -125 -7 -191 -14 -223 -25 -369 -37 -550 -45 -99 -4 -200 -13 -225 -18
-25 -6 -144 -13 -265 -17 -121 -3 -308 -12 -415 -20 l-195 -14 -310 5 c-170 3
-411 9 -535 15 -124 5 -319 12 -435 14 -115 3 -239 10 -275 15 -36 5 -144 15
-240 21 -96 7 -213 15 -260 18 l-85 6 -3 75 c-1 41 -4 85 -7 98 l-5 22 -18 0
c-9 0 -24 -4 -32 -10 l-14 -9 2 -73 c1 -40 -2 -79 -7 -87 l-9 -14 -18 7 c-10
4 -73 14 -139 22 -66 9 -163 22 -215 29 -52 7 -133 18 -180 24 -47 6 -94 13
-105 16 -11 3 -60 13 -110 21 -142 25 -234 41 -315 57 -106 21 -337 75 -390
93 -25 8 -55 14 -67 14 -12 0 -24 4 -27 9 -4 5 -24 12 -47 16 -22 4 -68 18
-102 31 -33 13 -68 24 -76 24 -17 0 -127 43 -138 54 -3 3 -16 6 -28 6 -13 0
-28 7 -35 15 -7 8 -23 15 -36 15 -12 0 -25 4 -29 9 -3 6 -30 21 -60 35 -29 14
-57 31 -60 36 -3 6 -13 10 -21 10 -8 0 -20 5 -27 10 -7 6 -37 29 -67 51 -114
84 -161 142 -122 152 9 3 4 5 -13 4 l-30 -2 0 16 c0 9 -8 24 -18 33 l-17 18 3
66 3 67 28 45 c16 25 41 57 57 72 16 15 29 32 29 37 0 6 7 11 15 11 8 0 15 5
15 10 0 6 5 10 10 10 6 0 27 16 47 35 20 19 42 35 48 35 7 0 18 7 25 15 7 8
21 15 31 15 11 0 19 4 19 9 0 5 12 14 28 20 15 6 41 20 57 30 53 35 111 61
132 61 12 0 23 7 27 15 l5 15 25 0 c14 0 27 4 31 9 3 5 20 13 37 16 18 4 39
14 47 22 l15 15 50 -6 51 -5 -14 8 c-18 12 -5 31 22 31 12 0 31 7 41 15 11 8
34 15 52 15 l32 0 12 15 13 16 37 -3 38 -2 17 17 16 17 34 0 c18 0 46 7 61 15
16 8 46 15 66 15 20 0 40 5 43 10 3 6 24 10 47 10 22 0 54 6 71 14 18 8 59 17
91 19 32 3 64 11 69 16 6 6 30 11 53 11 24 0 54 4 68 10 14 5 78 18 143 30 65
11 156 29 203 39 47 10 105 19 130 20 l45 1 100 -106z m2103 -201 c2 -22 -1
-55 -5 -72 l-8 -32 -110 -5 c-61 -4 -136 -6 -169 -6 l-58 -1 -9 14 c-9 15 -29
100 -29 124 l0 14 128 4 c70 2 156 3 192 3 l65 -1 3 -42z m722 30 c0 -13 -50
-88 -83 -124 l-19 -21 -76 7 c-92 9 -84 3 -90 70 l-4 55 10 12 10 13 126 -3
c69 -2 126 -6 126 -9z m-1179 -20 c4 -38 7 -53 18 -86 l13 -39 -8 -7 c-5 -4
-64 -14 -131 -20 -68 -7 -139 -17 -160 -21 l-37 -9 -20 11 c-12 6 -47 33 -78
61 l-57 49 6 14 5 14 57 0 c31 1 76 6 101 12 75 18 289 33 291 21z m1520 -19
c31 -8 84 -14 118 -14 l61 0 0 -9 c0 -5 -34 -34 -75 -64 l-75 -55 -52 4 c-29
2 -77 8 -107 14 -29 5 -80 10 -112 10 -101 0 -109 12 -54 89 l36 49 102 -5
c56 -3 127 -11 158 -19z m-1999 -109 l68 -64 -18 -10 c-9 -5 -33 -12 -52 -16
-60 -12 -152 -42 -214 -69 -74 -33 -56 -36 -180 35 -132 75 -132 82 -6 114 36
9 85 22 110 30 25 7 68 16 95 20 28 3 57 10 65 16 8 5 26 9 40 9 l25 -1 67
-64z m2350 54 c11 -6 44 -15 72 -20 99 -16 256 -59 256 -70 0 -19 -152 -99
-189 -99 -16 0 -57 9 -92 19 -90 28 -195 51 -230 51 l-29 0 0 13 c0 13 44 57
58 57 4 0 23 14 42 30 l35 29 28 1 c16 0 38 -5 49 -11z m1253 -99 c44 -5 96
-14 115 -20 19 -5 48 -10 65 -10 16 0 59 -7 95 -15 36 -8 99 -21 140 -29 41
-8 98 -19 125 -26 81 -18 355 -68 445 -81 36 -5 85 -13 110 -19 49 -10 139
-26 240 -40 36 -5 85 -14 110 -19 58 -13 158 -29 242 -41 36 -5 84 -13 105
-19 21 -6 52 -11 68 -11 17 0 59 -6 95 -14 36 -8 110 -22 165 -31 55 -9 129
-23 165 -31 36 -8 73 -14 84 -14 10 0 48 -6 85 -14 36 -8 111 -22 166 -31 119
-20 227 -38 350 -59 50 -9 122 -20 160 -26 39 -6 147 -24 240 -39 l170 -28 3
-202 2 -202 -67 7 c-38 3 -90 12 -117 20 -27 8 -69 14 -93 14 -25 0 -53 5 -63
10 -11 6 -47 13 -82 16 -35 4 -82 12 -106 20 -23 8 -65 14 -93 14 -27 0 -66 7
-86 15 -19 8 -56 15 -82 15 -25 0 -68 7 -95 15 -27 8 -69 15 -93 15 -24 0 -53
5 -65 11 -11 6 -52 15 -92 20 -92 11 -192 28 -236 40 -19 6 -66 14 -105 19
-79 10 -159 24 -256 46 -37 8 -83 14 -102 14 -20 0 -46 4 -59 10 -13 5 -54 14
-93 20 -78 11 -209 32 -330 54 -44 8 -123 22 -175 31 -52 9 -131 23 -175 31
-230 41 -437 74 -520 84 -103 11 -234 30 -285 41 -25 5 -74 14 -110 19 -154
22 -207 32 -235 40 -33 10 -183 39 -254 49 -25 3 -46 11 -48 18 l-4 12 100 73
c55 40 128 93 162 118 33 25 89 64 123 87 l61 43 25 -6 c14 -3 61 -10 105 -14z
m-2673 -148 l-4 -143 12 -30 13 -30 36 -19 c21 -10 65 -24 99 -31 l62 -13 71
12 c71 12 119 31 152 60 l17 15 0 159 0 159 13 4 c26 10 524 -31 549 -45 10
-6 35 -10 56 -10 22 0 64 -5 93 -11 389 -79 549 -151 549 -246 l0 -29 -18 -14
c-70 -60 -212 -121 -347 -151 -117 -25 -195 -39 -270 -49 -44 -6 -102 -15
-130 -21 -27 -5 -108 -14 -180 -20 -71 -5 -146 -12 -165 -14 -52 -7 -684 -7
-760 0 -36 3 -126 10 -200 15 -74 6 -151 15 -170 20 -19 6 -71 14 -115 19
-106 13 -293 50 -364 72 -181 57 -291 126 -291 181 l0 21 35 33 c52 49 167
100 305 134 243 61 683 119 880 116 l75 -1 -3 -143z m1925 99 c10 -5 41 -20
68 -33 73 -33 155 -88 155 -103 0 -8 -19 -27 -42 -43 l-43 -29 -145 5 -145 4
-45 42 c-25 23 -54 47 -65 54 l-20 11 10 9 c6 5 42 26 80 46 39 21 75 42 80
48 l10 10 42 -6 c24 -3 51 -10 60 -15z m-3335 -52 c57 -34 109 -68 117 -75
l14 -13 -28 -32 c-15 -18 -31 -43 -36 -56 l-9 -23 -260 0 -260 0 0 21 0 21 64
63 63 64 89 45 c49 24 101 45 116 45 l27 1 103 -61z m3392 -241 c3 -13 6 -40
6 -61 l0 -38 13 -3 c6 -2 39 -10 72 -17 33 -7 64 -16 69 -20 l9 -8 -63 -40
c-35 -23 -70 -41 -78 -41 -18 0 -139 37 -164 51 -10 5 -23 9 -30 9 -7 0 -25 6
-40 14 -15 8 -40 17 -57 21 -38 8 -38 15 -5 46 14 13 39 43 56 67 l29 42 88 0
89 0 6 -22z m-3290 -55 c40 -43 42 -40 -44 -86 -36 -19 -100 -53 -143 -76 -94
-49 -86 -49 -170 -6 -115 59 -207 146 -207 195 l0 10 264 0 265 0 35 -37z
m3464 22 c20 -3 78 -12 127 -20 50 -8 149 -24 220 -35 152 -24 274 -46 365
-65 82 -18 221 -45 280 -56 25 -4 86 -15 135 -24 50 -9 128 -23 175 -30 47 -8
123 -21 170 -29 47 -9 119 -20 160 -27 41 -6 91 -15 110 -20 19 -5 64 -14 100
-19 36 -5 103 -15 150 -24 47 -8 117 -20 155 -26 39 -7 86 -16 105 -21 19 -6
64 -14 100 -19 36 -5 103 -16 150 -25 47 -8 117 -19 155 -25 39 -6 84 -15 100
-20 17 -5 57 -12 90 -15 33 -4 71 -11 85 -16 14 -5 57 -13 95 -18 98 -14 192
-30 245 -41 25 -6 74 -15 110 -20 36 -5 101 -16 145 -24 44 -8 123 -22 175
-31 52 -9 131 -23 175 -32 44 -8 102 -17 130 -21 l50 -7 3 -17 3 -18 -21 0
c-12 0 -86 11 -164 25 -77 13 -184 32 -236 40 -52 9 -117 20 -143 26 -26 6
-76 15 -110 19 -65 9 -136 22 -252 46 -38 8 -83 14 -100 14 -16 0 -52 7 -79
15 -27 8 -66 15 -86 15 -20 0 -50 5 -66 10 -16 6 -58 14 -94 19 -105 15 -244
39 -260 45 -8 3 -49 10 -90 16 -41 6 -113 17 -160 25 -162 28 -265 46 -330 55
-36 5 -81 13 -100 19 -19 5 -66 14 -105 21 -38 6 -108 18 -155 26 -47 9 -112
20 -145 25 -33 5 -73 14 -89 19 -16 6 -44 10 -63 10 -19 0 -62 6 -96 14 -75
18 -177 35 -274 46 -40 5 -77 11 -83 15 -6 4 -43 10 -83 15 -40 4 -98 13 -129
19 -32 6 -84 16 -115 22 -32 6 -83 15 -113 20 -87 13 -179 29 -255 44 -38 8
-91 17 -117 20 l-48 6 -10 18 c-13 25 -1 34 37 27 18 -3 50 -8 71 -11z m-3333
-119 c20 -13 182 -68 238 -80 37 -9 35 -13 -53 -102 l-75 -75 -64 7 c-35 4
-76 13 -90 20 -14 8 -40 14 -58 14 -17 0 -34 4 -37 9 -3 5 -18 12 -33 15 -74
17 -142 42 -140 51 2 6 55 37 118 70 63 33 123 65 134 72 26 16 36 16 60 -1z
m2860 -35 c27 -10 82 -29 120 -42 39 -12 78 -26 89 -31 l18 -10 -29 -18 c-16
-10 -45 -21 -64 -25 -18 -4 -40 -11 -49 -15 -14 -7 -63 -22 -170 -50 -25 -7
-64 -14 -88 -17 l-43 -5 -62 48 c-67 52 -110 94 -104 100 2 3 46 15 98 29 52
13 112 30 134 39 55 20 91 19 150 -3z m-2370 -97 c39 -8 110 -18 158 -21 l89
-6 -7 -66 c-4 -36 -13 -77 -20 -91 l-13 -25 -109 4 c-59 1 -116 7 -126 13 -11
5 -53 12 -95 15 -43 3 -101 12 -130 20 l-53 15 18 20 c10 12 48 47 86 79 l68
59 32 0 c17 0 64 -7 102 -16z m1971 -53 c39 -31 80 -61 90 -67 38 -23 -11 -37
-200 -54 -55 -5 -104 -14 -110 -20 l-10 -10 -81 0 -82 0 -36 74 c-53 106 -65
96 133 115 58 5 123 14 145 19 55 13 70 8 151 -57z m-1135 -18 l16 -14 -1 -77
-1 -77 -275 4 c-151 2 -278 6 -282 10 -6 6 16 117 32 158 l9 21 243 -5 243 -6
16 -14z m582 15 c16 -13 55 -77 77 -127 l11 -24 -11 -11 -11 -11 -267 -6
c-147 -4 -274 -8 -282 -10 l-15 -4 -3 93 -3 92 13 1 c7 1 105 5 218 9 113 3
217 7 231 8 14 1 33 -4 42 -10z m3737 -198 c30 -5 87 -14 125 -20 39 -6 86
-16 105 -21 19 -5 64 -14 100 -19 36 -4 83 -13 105 -19 22 -6 56 -11 75 -11
19 0 53 -7 75 -15 22 -8 59 -14 83 -15 24 0 51 -4 61 -10 10 -5 49 -12 87 -15
38 -4 78 -11 89 -16 11 -5 52 -13 90 -18 101 -14 238 -38 255 -45 8 -3 47 -10
85 -16 39 -5 111 -17 160 -25 50 -9 126 -21 170 -28 l80 -12 3 -109 3 -109 -9
-9 -9 -9 -99 17 c-54 9 -137 23 -184 31 -47 8 -123 21 -170 28 -47 8 -123 21
-170 30 -47 8 -121 20 -165 26 -44 6 -88 15 -97 20 -9 5 -32 9 -51 9 -19 0
-65 6 -103 14 -38 8 -114 22 -169 31 -55 9 -125 21 -155 26 -113 19 -428 69
-500 80 -41 6 -97 15 -125 20 -27 5 -86 14 -130 19 -44 6 -113 16 -154 23
l-74 12 74 24 c41 13 81 27 89 31 9 4 30 11 49 15 18 4 44 13 59 21 15 8 32
14 38 14 7 0 25 7 40 15 16 8 36 15 45 15 9 0 19 3 23 8 4 4 22 12 39 19 l32
12 35 -5 c19 -3 60 -9 90 -14z m-585 -216 c33 -8 87 -18 120 -23 66 -10 155
-26 225 -42 25 -5 74 -14 110 -19 144 -21 207 -32 240 -41 19 -5 64 -14 100
-19 36 -5 103 -15 150 -24 47 -8 128 -22 180 -31 52 -9 131 -23 175 -31 44 -7
123 -20 175 -29 52 -8 133 -22 180 -30 107 -20 246 -43 330 -55 36 -5 83 -14
105 -19 22 -5 79 -15 127 -21 48 -7 94 -17 102 -23 l16 -12 0 -195 1 -195 -23
2 c-13 1 -59 9 -103 17 -44 8 -111 20 -150 26 -38 6 -84 16 -101 21 -16 5 -59
12 -95 15 -35 3 -83 12 -107 20 -23 8 -65 14 -92 14 -27 0 -51 4 -55 9 -3 5
-31 12 -63 15 -31 4 -79 11 -107 18 -27 6 -77 15 -110 19 -76 11 -212 34 -245
43 -14 4 -54 11 -90 16 -36 5 -104 16 -152 25 -49 8 -127 22 -175 31 -49 8
-122 21 -163 28 -41 7 -82 15 -90 18 -8 4 -49 11 -90 17 -78 10 -198 30 -335
55 -88 16 -106 19 -245 42 -52 9 -129 22 -170 29 -82 14 -225 38 -365 61 -49
8 -130 21 -180 29 -49 8 -111 17 -136 20 -46 6 -90 28 -78 39 3 4 41 10 85 15
94 11 201 28 268 43 26 6 74 14 105 19 63 9 163 29 266 54 39 9 97 23 130 30
33 8 87 21 120 29 l60 14 45 -5 c25 -3 72 -11 105 -19z m-1311 -239 c27 -8 66
-15 86 -15 21 0 57 -7 80 -15 23 -8 61 -15 84 -15 22 -1 59 -7 81 -15 22 -8
59 -15 81 -15 23 0 61 -7 84 -15 23 -8 62 -15 86 -15 23 0 54 -4 68 -10 14 -5
58 -14 98 -20 73 -10 100 -15 383 -64 176 -31 689 -119 825 -141 52 -8 136
-22 185 -31 50 -8 131 -22 180 -30 50 -8 118 -22 152 -30 34 -7 76 -14 95 -14
18 -1 60 -7 93 -15 33 -8 77 -15 98 -15 21 0 47 -4 57 -10 10 -5 52 -14 92
-20 96 -12 188 -28 269 -46 37 -8 80 -14 96 -14 17 0 43 -4 59 -10 16 -5 61
-14 99 -20 39 -5 103 -15 143 -22 l72 -12 0 -18 0 -18 -44 0 c-25 0 -57 5 -73
11 -15 6 -55 15 -88 19 -88 12 -191 30 -262 46 -34 8 -78 14 -98 14 -20 0 -45
4 -55 10 -10 5 -52 14 -92 19 -40 5 -91 14 -113 20 -22 6 -57 11 -78 11 -21 0
-47 5 -57 10 -11 6 -47 13 -82 16 -35 3 -72 10 -83 15 -11 5 -51 13 -90 19
-38 5 -106 16 -150 24 -44 8 -109 19 -145 26 -36 6 -85 15 -110 20 -25 6 -72
13 -105 16 -33 4 -64 10 -70 14 -5 4 -44 11 -85 15 -41 4 -81 11 -90 15 -8 5
-51 13 -95 19 -44 7 -116 19 -160 27 -44 8 -111 19 -150 24 -38 6 -81 14 -95
19 -14 5 -54 12 -89 15 -35 3 -69 10 -75 15 -6 4 -44 11 -84 15 -41 3 -82 11
-92 16 -10 6 -36 10 -57 10 -21 0 -56 5 -78 11 -22 6 -75 15 -118 20 -42 5
-86 13 -97 19 -10 5 -38 10 -62 10 -24 0 -68 7 -98 15 -30 8 -72 15 -92 15
-20 0 -49 5 -63 10 -15 6 -61 14 -103 20 -69 8 -178 25 -240 36 l-23 5 6 9 c9
15 134 12 189 -5z m-350 -36 c16 -5 43 -9 59 -9 17 0 58 -6 91 -14 34 -7 106
-21 161 -31 55 -9 119 -21 142 -26 22 -5 70 -13 105 -19 34 -5 101 -16 148
-25 124 -23 395 -70 630 -111 113 -19 257 -44 320 -55 63 -11 142 -24 175 -29
33 -5 83 -14 110 -19 28 -5 95 -17 150 -26 55 -9 123 -21 150 -27 28 -6 77
-14 110 -18 33 -4 86 -13 118 -19 31 -6 83 -16 115 -22 31 -6 86 -15 122 -19
36 -5 81 -13 100 -19 19 -6 51 -11 70 -11 19 0 57 -7 84 -15 27 -8 70 -15 96
-15 25 0 51 -5 57 -11 6 -6 46 -13 89 -16 44 -3 84 -10 90 -15 7 -5 45 -13 85
-17 41 -5 87 -14 102 -20 16 -6 48 -11 72 -11 24 0 54 -4 67 -10 13 -5 55 -14
93 -20 184 -26 222 -33 253 -46 l32 -14 0 -581 0 -581 -47 6 c-62 8 -266 44
-321 56 -23 6 -56 10 -72 10 -16 0 -55 7 -87 15 -31 8 -76 15 -99 15 -23 0
-61 7 -84 15 -23 8 -61 15 -85 15 -23 0 -64 7 -91 15 -27 8 -69 15 -94 15 -25
0 -63 7 -85 15 -22 8 -62 14 -90 15 -27 0 -68 7 -90 14 l-40 14 -5 44 c-3 24
-19 70 -35 101 l-29 58 -70 67 c-95 90 -378 262 -433 262 -4 0 -21 7 -36 15
-123 64 -720 227 -972 266 -33 5 -80 14 -105 19 -120 25 -333 58 -458 70 -51
5 -97 12 -103 16 -6 3 -61 10 -122 15 -119 9 -195 20 -215 33 l-13 8 2 114 3
115 -16 16 -16 16 -16 -6 -15 -6 -3 -128 -3 -128 -55 1 c-30 1 -77 7 -105 12
-27 6 -97 11 -155 12 -58 0 -123 5 -145 11 -22 5 -152 14 -290 19 -137 5 -302
14 -365 19 -63 5 -247 10 -408 10 l-292 1 2 248 3 247 70 2 c39 2 185 10 325
18 140 8 296 15 345 15 50 0 116 4 149 10 32 5 111 12 175 15 141 7 386 31
501 49 86 13 141 12 194 -5z m-1826 -858 l2 -754 -16 -19 c-10 -10 -24 -18
-33 -18 -9 -1 -34 -7 -55 -15 l-39 -14 -30 6 -30 6 17 13 17 12 -11 7 -11 7 6
19 c4 11 2 26 -5 33 l-11 14 2 63 c0 35 -4 116 -9 179 l-11 115 10 440 c5 242
10 487 12 545 l2 105 45 6 c25 4 68 6 95 5 l50 -1 3 -754z m672 178 c212 -5
403 -11 425 -14 22 -3 114 -8 205 -11 91 -3 201 -12 246 -19 44 -8 127 -15
185 -15 57 0 120 -4 139 -10 19 -5 77 -13 130 -16 52 -4 120 -13 150 -20 30
-8 80 -14 112 -14 31 0 83 -7 115 -15 31 -8 79 -15 106 -15 26 0 57 -5 68 -11
11 -5 52 -13 92 -15 40 -3 89 -12 110 -20 20 -8 57 -14 81 -14 24 0 60 -7 79
-15 20 -8 56 -15 80 -15 24 0 48 -5 54 -11 6 -6 37 -15 69 -19 62 -9 120 -23
194 -46 25 -8 55 -14 66 -14 12 0 35 -7 50 -15 16 -8 43 -15 61 -15 17 0 34
-4 38 -9 3 -5 20 -12 38 -16 48 -10 129 -36 159 -51 14 -8 33 -14 41 -14 8 0
45 -13 82 -30 37 -16 72 -30 78 -30 6 0 38 -13 72 -30 33 -16 67 -32 75 -35 8
-3 29 -14 45 -24 17 -11 47 -29 68 -41 120 -65 277 -241 277 -310 0 -13 -27
-13 -32 0 l-3 10 -75 2 -75 1 -22 14 -22 13 -64 0 -63 0 -20 15 -19 14 -70 1
-70 1 -25 14 -25 14 -55 1 -55 0 -29 15 -28 15 -62 0 -61 1 -25 14 -25 14 -60
1 -60 1 -25 14 -25 14 -60 1 -60 0 -29 15 -28 15 -60 0 c-33 0 -69 5 -80 11
-12 7 -58 15 -102 20 -45 5 -128 15 -186 24 -58 8 -139 19 -180 24 -41 5 -88
14 -103 20 -16 6 -46 11 -69 11 -22 0 -66 6 -97 14 -31 8 -86 18 -122 21 l-66
7 -14 -14 c-33 -32 -153 -118 -166 -118 l-13 0 5 100 6 99 -11 21 c-14 26 -37
26 -45 -1 -4 -12 -5 -76 -4 -144 l4 -123 -27 -21 c-30 -24 -44 -26 -55 -8 -16
25 -91 77 -164 112 -41 20 -82 41 -91 46 -10 5 -46 18 -80 30 -35 11 -72 24
-83 29 -11 5 -36 12 -55 16 -19 3 -41 10 -50 15 -16 9 -81 24 -169 40 -29 5
-62 14 -72 19 -10 6 -31 10 -48 10 -17 0 -66 6 -108 14 -154 29 -585 74 -748
79 l-70 2 -3 175 c-1 96 0 186 3 199 l6 24 107 -8 c59 -4 280 -11 492 -16z
m-1065 -11 c3 -13 4 -99 3 -193 l-3 -170 -175 -6 c-347 -12 -754 -66 -995
-134 -27 -7 -66 -17 -85 -20 l-35 -6 -21 23 c-11 13 -50 58 -88 101 l-67 77
-25 0 -24 0 -1 -12 c-1 -7 -1 -20 0 -30 4 -34 -23 -28 -159 31 -76 34 -143 61
-149 61 -15 0 -31 44 -31 86 l0 35 -27 -3 -28 -3 -3 -25 c-6 -42 -16 -42 -100
-5 -44 19 -85 35 -91 35 -6 0 -11 5 -11 10 l0 10 43 0 c23 1 62 5 87 11 25 6
96 14 157 19 62 5 129 14 150 19 21 6 76 11 123 11 47 1 105 6 130 11 25 6
120 14 212 19 92 5 176 14 187 19 l20 11 148 1 c81 0 180 5 218 10 60 9 272
20 557 27 l78 2 5 -22z m-2217 -181 c54 -28 149 -68 217 -92 28 -10 58 -25 68
-33 l17 -15 0 -38 c0 -20 3 -44 6 -53 l6 -16 24 0 24 0 1 23 c1 12 1 29 0 39
-3 27 15 30 56 9 21 -10 81 -36 133 -56 52 -21 99 -41 105 -46 l9 -9 -17 -30
c-10 -17 -15 -35 -12 -40 l6 -10 85 0 86 0 -4 -12 c-3 -7 -20 -16 -39 -19
-101 -20 -303 -116 -368 -176 -37 -33 -41 -22 -37 89 2 56 0 112 -5 126 l-9
23 -23 -3 -22 -3 -3 -127 -3 -127 20 -10 20 -11 -35 -57 -34 -57 0 -42 c0 -23
7 -61 15 -84 8 -23 15 -55 15 -69 0 -33 17 -51 47 -51 13 0 47 -18 76 -39 65
-48 245 -141 275 -141 5 0 23 -7 38 -15 16 -8 37 -15 47 -15 9 0 25 -4 35 -9
16 -9 69 -25 187 -56 28 -7 88 -20 135 -29 47 -8 123 -22 170 -30 88 -16 257
-37 465 -58 l120 -12 470 -4 470 -3 95 11 c52 7 145 16 205 21 195 14 380 44
677 108 60 13 148 40 170 52 10 5 26 9 35 9 10 0 31 7 47 15 15 8 32 15 38 15
38 0 249 120 309 174 l40 38 37 -5 c56 -9 322 -55 457 -81 147 -28 249 -47
325 -61 41 -8 107 -20 145 -25 39 -6 86 -16 105 -23 19 -6 60 -14 90 -19 30
-4 96 -14 145 -23 50 -8 122 -19 160 -25 39 -6 84 -15 101 -21 17 -5 64 -13
105 -19 41 -5 90 -14 109 -20 19 -5 49 -10 67 -10 32 0 83 -18 83 -29 0 -3
-30 -17 -67 -29 -38 -13 -77 -27 -88 -32 -41 -16 -161 -50 -176 -50 -9 0 -19
-3 -23 -7 -10 -10 -96 -32 -161 -42 -27 -4 -60 -12 -72 -19 -12 -7 -33 -12
-46 -12 -14 0 -41 -7 -60 -15 -20 -8 -53 -15 -74 -15 -21 0 -47 -7 -57 -15
l-20 -15 -51 0 -51 0 -20 -15 -19 -14 -50 -1 c-27 0 -61 -7 -75 -15 -14 -8
-43 -15 -65 -15 -22 0 -58 -5 -80 -11 -22 -6 -71 -15 -109 -19 -39 -5 -81 -14
-95 -19 -15 -5 -58 -12 -98 -15 -39 -3 -84 -11 -98 -16 -14 -6 -49 -10 -78
-10 -28 0 -78 -6 -111 -14 -34 -8 -114 -17 -179 -19 l-118 -4 -12 -12 -11 -11
-116 0 -117 0 -49 -15 -49 -15 -120 -1 c-66 0 -145 -5 -175 -10 -30 -6 -171
-14 -313 -19 l-258 -9 -33 -11 -34 -11 -759 0 -759 0 -30 11 -29 12 -250 5
c-137 3 -255 10 -261 14 -6 5 -83 12 -170 15 -88 3 -197 12 -243 20 -46 8
-114 14 -152 14 -37 0 -94 7 -126 15 -31 8 -87 15 -124 15 l-66 0 -43 15 c-23
8 -72 15 -109 15 l-66 1 -25 14 -25 14 -60 1 c-33 0 -78 7 -100 15 -22 8 -61
14 -86 15 -26 0 -63 7 -82 15 -20 8 -58 15 -84 15 -26 1 -59 7 -73 15 -14 8
-41 14 -61 15 -20 0 -53 7 -72 15 -20 8 -53 15 -74 15 -21 0 -47 7 -57 15 -11
8 -36 15 -55 15 -20 1 -47 7 -61 15 -14 8 -37 14 -52 15 -15 0 -42 6 -60 14
-55 22 -101 38 -141 46 -21 4 -44 13 -50 19 -6 6 -22 11 -36 11 -15 0 -35 7
-45 15 -11 8 -28 15 -37 15 -10 0 -30 6 -46 14 -15 7 -45 21 -65 30 -21 9 -53
22 -70 30 -18 8 -40 17 -48 20 -8 4 -37 20 -65 36 -27 16 -61 35 -74 40 -62
27 -231 180 -231 209 0 8 -7 19 -16 26 l-17 12 -1 77 c-1 42 2 82 6 89 l8 12
10 -15 11 -15 -3 31 -2 31 17 17 c9 10 17 22 17 27 0 5 5 9 11 9 5 0 22 11 37
25 98 91 127 115 139 115 7 0 13 4 13 9 0 4 26 20 58 35 31 15 64 30 72 35 51
28 80 41 90 41 6 0 18 7 26 15 9 8 26 15 38 15 13 0 29 7 36 15 l13 15 19 -6
20 -6 19 21 c11 12 28 21 37 21 10 0 27 7 38 15 10 8 30 15 44 15 14 0 34 7
44 15 11 8 31 15 45 15 14 0 35 7 45 15 11 8 34 15 50 15 17 0 40 7 50 15 11
8 33 15 48 15 16 0 36 4 46 10 9 5 37 14 62 19 62 14 129 31 170 44 19 6 53
14 75 18 38 7 69 15 168 40 23 6 67 14 97 18 30 4 65 12 77 19 12 7 42 12 68
12 25 0 62 7 82 15 19 8 59 15 87 15 28 1 65 7 81 15 39 18 100 18 133 2z
m2216 -263 c8 -22 7 -107 -2 -120 l-7 -11 -163 -5 -162 -5 -8 11 c-5 6 -14 31
-21 55 l-13 44 14 14 14 13 95 9 c52 4 128 9 170 10 l77 1 6 -16z m694 -3 l22
-1 0 -22 c0 -13 -15 -41 -34 -63 l-33 -39 -84 -2 -84 -2 -12 10 -12 9 1 52 c0
29 4 57 8 62 l8 10 99 -6 c54 -4 108 -7 121 -8z m-1135 -43 c8 -18 16 -49 19
-69 l6 -36 -86 -11 c-48 -7 -110 -15 -139 -20 -64 -10 -74 -6 -147 60 l-60 54
8 12 7 12 57 1 c31 0 100 6 152 13 52 8 112 14 132 15 l38 1 13 -32z m1422 12
c39 -5 102 -12 140 -15 139 -12 144 -20 45 -87 -73 -51 -88 -55 -122 -37 -12
7 -79 15 -150 19 l-129 7 -11 11 -12 12 13 24 c8 13 26 38 41 54 l27 30 44 -4
c24 -3 76 -9 114 -14z m480 -75 c39 -7 97 -20 130 -28 33 -8 85 -21 116 -28
l56 -12 -17 -16 c-16 -15 -42 -31 -123 -74 l-38 -20 -47 6 c-26 3 -60 13 -77
21 -16 9 -43 16 -58 16 -16 0 -37 5 -48 10 -10 6 -45 14 -76 18 l-58 7 -2 15
-2 15 62 42 c69 46 81 48 182 28z m1285 -89 c136 -23 260 -45 335 -60 39 -8
95 -20 125 -26 30 -6 75 -15 100 -21 25 -6 70 -15 100 -19 30 -4 80 -13 110
-18 139 -27 189 -36 245 -43 107 -14 199 -30 256 -45 30 -8 75 -14 100 -14 24
0 62 -7 84 -15 22 -8 63 -14 90 -15 28 0 68 -7 90 -15 22 -8 63 -14 90 -15 28
0 68 -7 90 -15 22 -8 59 -14 82 -15 23 0 52 -5 65 -10 13 -6 57 -14 98 -20 79
-10 146 -22 247 -46 34 -8 79 -14 101 -14 22 0 56 -7 75 -15 20 -8 58 -15 84
-15 26 0 66 -7 88 -15 22 -8 65 -14 96 -15 30 0 60 -5 66 -11 6 -6 42 -13 80
-16 37 -3 87 -11 111 -19 23 -8 63 -14 88 -14 25 0 54 -5 66 -11 11 -6 52 -15
92 -20 39 -4 104 -14 144 -20 l72 -12 0 -198 0 -198 -9 -5 c-5 -3 -31 -1 -57
5 -60 12 -190 36 -264 48 -111 18 -246 41 -295 51 -27 5 -75 14 -105 20 -30 6
-89 15 -130 20 -41 6 -86 14 -100 19 -14 5 -51 12 -83 15 -32 4 -77 10 -100
15 -52 12 -206 38 -267 46 -25 3 -65 10 -90 15 -108 21 -356 62 -615 101 -38
6 -88 14 -110 19 -22 5 -98 18 -170 29 -183 30 -303 51 -352 62 -23 5 -68 11
-100 15 -32 3 -71 10 -88 15 -16 5 -68 13 -115 19 -47 6 -130 17 -185 25 -55
9 -129 20 -165 25 -61 8 -111 17 -240 42 -30 5 -83 14 -116 18 -34 4 -67 11
-74 15 -14 9 -126 29 -232 43 -31 4 -60 10 -63 14 -6 5 43 47 105 88 33 22
154 113 160 120 3 3 16 13 30 22 14 10 54 38 90 63 l65 45 60 -5 c33 -3 98
-11 145 -19z m-2748 -149 l-4 -158 25 -23 c14 -13 41 -32 59 -41 l33 -18 93
-5 93 -4 47 17 c26 10 62 27 79 39 l33 21 0 158 0 158 17 6 c32 13 460 -27
708 -66 90 -14 272 -56 310 -72 109 -44 135 -56 166 -75 42 -26 79 -69 79 -92
0 -102 -313 -216 -730 -267 -274 -33 -350 -37 -735 -41 l-400 -3 -150 14
c-201 19 -393 45 -515 69 -190 37 -270 61 -380 114 -39 19 -51 27 -85 60 l-25
23 0 30 0 29 28 29 c89 94 327 164 717 212 125 15 485 47 515 45 l25 -1 -3
-158z m-1405 114 c27 -15 78 -45 116 -65 l67 -37 0 -14 c0 -8 -4 -15 -9 -15
-18 0 -91 -73 -91 -91 0 -10 -9 -23 -20 -29 l-19 -10 -243 2 -243 3 -3 27 -3
26 43 42 c45 44 231 160 257 160 9 0 25 7 35 15 29 22 60 18 113 -14z m3344
-12 c126 -50 229 -110 229 -132 -1 -7 -21 -27 -45 -44 l-44 -33 -145 0 -144 0
-24 29 c-14 15 -43 42 -67 59 -55 40 -55 39 52 94 105 54 115 56 188 27z m69
-267 c0 -4 -5 -13 -12 -20 l-11 -11 12 -15 c7 -8 10 -19 7 -25 -4 -5 -1 -21 5
-34 l12 -25 51 -7 c104 -14 108 -28 21 -79 l-65 -38 -36 7 c-20 3 -50 12 -68
19 -39 17 -92 35 -131 46 -16 5 -47 15 -68 23 l-38 14 50 51 c28 29 51 60 51
70 0 10 3 22 7 25 9 10 213 9 213 -1z m-3302 -82 c40 -48 42 -42 -25 -74 -32
-15 -65 -32 -73 -36 -46 -27 -183 -90 -193 -89 -7 0 -34 13 -62 30 -27 16 -59
33 -70 38 -65 29 -148 131 -130 160 l6 11 257 0 257 0 33 -40z m3462 25 c30
-8 74 -15 96 -15 23 0 61 -7 84 -15 23 -8 64 -15 90 -15 26 0 67 -7 90 -15 23
-8 65 -15 92 -15 27 0 65 -7 85 -15 19 -8 55 -15 78 -15 23 0 62 -7 85 -15 23
-8 57 -15 75 -15 18 0 45 -5 61 -10 32 -11 156 -35 268 -51 38 -5 77 -14 87
-19 10 -6 35 -10 56 -10 21 0 65 -7 96 -15 32 -8 75 -15 95 -15 20 -1 55 -7
77 -15 22 -8 57 -15 79 -15 21 0 68 -6 105 -14 101 -22 179 -36 256 -46 39 -4
83 -13 98 -19 16 -6 42 -11 58 -11 16 0 58 -6 92 -14 89 -21 172 -36 255 -46
40 -6 82 -15 92 -20 10 -6 35 -10 55 -10 21 0 67 -6 104 -14 76 -17 169 -33
256 -45 33 -4 85 -13 115 -19 58 -11 214 -38 265 -46 17 -2 68 -11 115 -20
144 -26 442 -76 510 -87 35 -5 69 -14 74 -19 l10 -10 -9 -9 -10 -9 -80 14
c-44 8 -111 19 -150 25 -38 5 -81 13 -95 18 -14 5 -51 12 -82 14 -32 3 -72 10
-90 16 -37 11 -128 27 -236 41 -40 6 -82 15 -92 20 -10 6 -36 10 -57 10 -21 0
-56 5 -78 11 -22 5 -67 14 -100 18 -33 5 -85 13 -115 19 -30 6 -100 18 -155
27 -55 9 -128 23 -162 31 -34 7 -75 14 -91 14 -16 0 -60 6 -98 14 -38 8 -100
19 -139 25 -180 28 -407 65 -580 96 -104 19 -298 52 -430 74 -132 22 -267 45
-300 51 -33 5 -132 22 -220 36 -297 49 -426 71 -675 118 -14 3 -46 8 -72 11
l-46 6 -6 15 c-14 37 23 43 114 19z m-3306 -124 c80 -37 114 -51 128 -51 7 0
37 -8 66 -18 l52 -18 -84 -82 -84 -83 -93 21 c-52 12 -145 36 -206 53 l-113
30 0 13 c0 13 7 17 115 73 33 17 80 42 105 56 54 30 61 30 114 6z m2840 -30
c6 -5 27 -14 46 -19 99 -29 174 -62 164 -71 -12 -10 -83 -34 -164 -56 -36 -9
-76 -21 -90 -26 -14 -4 -56 -15 -94 -25 l-68 -16 -22 10 c-33 15 -161 123
-164 138 l-3 14 33 0 c18 1 51 7 73 15 22 8 46 15 53 15 8 0 28 6 45 14 18 8
39 17 47 20 21 8 130 -2 144 -13z m-2381 -96 l36 -15 60 0 c71 0 161 -19 161
-34 0 -6 -7 -29 -15 -51 -8 -22 -14 -55 -15 -73 l0 -34 -67 5 c-38 3 -124 12
-193 21 -69 9 -153 19 -188 23 -85 8 -85 12 5 98 l78 75 51 0 c28 0 68 -7 87
-15z m1926 -16 c71 -51 131 -106 131 -119 0 -5 -21 -12 -47 -15 -27 -4 -70
-11 -98 -16 -58 -10 -232 -30 -289 -32 l-39 -2 -18 30 c-36 61 -61 116 -55
122 8 9 86 21 199 33 53 5 105 14 115 19 29 18 57 12 101 -20z m-1249 -44 c74
-3 145 -8 158 -11 l23 -5 -3 -77 -3 -77 -115 -3 c-122 -4 -420 15 -432 27 -10
9 11 132 25 149 l11 14 100 -6 c56 -3 162 -8 236 -11z m770 -32 c13 -27 31
-60 42 -75 10 -14 18 -30 18 -35 l0 -9 -207 -12 c-191 -11 -328 -16 -361 -13
l-13 1 3 83 3 82 179 7 c98 4 181 10 184 13 3 3 33 5 67 5 l61 0 24 -47z
m3725 -168 c77 -15 172 -32 250 -45 28 -5 104 -18 170 -30 144 -26 267 -47
355 -60 36 -6 74 -13 85 -17 10 -3 44 -9 75 -13 57 -8 685 -115 749 -128 l36
-8 5 -118 5 -119 -13 -5 c-7 -2 -36 3 -64 12 -28 9 -69 16 -93 16 -23 0 -59 7
-78 15 -20 8 -58 15 -84 15 -26 0 -66 7 -88 15 -22 8 -63 14 -91 15 -28 0 -68
7 -87 15 -20 8 -56 15 -79 15 -24 0 -65 7 -92 15 -27 8 -67 15 -88 15 -22 0
-48 5 -59 10 -10 6 -49 13 -87 16 -37 4 -86 12 -110 20 -23 8 -63 14 -88 14
-25 0 -54 4 -64 10 -10 5 -52 14 -92 19 -40 5 -93 14 -118 20 -25 6 -66 10
-92 11 -26 0 -49 4 -53 9 -3 5 -36 12 -73 16 -37 3 -83 10 -102 16 -19 5 -66
14 -105 20 -38 5 -113 16 -165 25 -52 8 -128 18 -168 23 -126 14 -116 24 86
91 85 27 172 59 195 69 74 33 85 33 222 6z m-533 -221 c106 -19 229 -42 273
-49 44 -8 132 -24 195 -35 63 -11 144 -25 180 -30 36 -6 106 -17 155 -25 50
-9 122 -19 160 -24 39 -5 83 -14 98 -20 16 -6 48 -11 71 -11 24 0 65 -7 92
-15 27 -8 70 -15 95 -15 26 0 63 -7 82 -15 20 -8 61 -15 90 -15 30 0 71 -7 90
-15 20 -8 58 -15 85 -15 27 0 69 -7 92 -15 23 -8 66 -15 95 -15 l53 0 28 -15
29 -15 58 0 c32 0 68 -5 80 -12 12 -6 51 -14 87 -17 l65 -6 3 -202 2 -203 -36
0 c-20 0 -66 6 -103 14 -36 8 -109 22 -161 30 -52 9 -147 25 -210 36 -63 11
-223 38 -355 60 -132 23 -280 48 -330 56 -214 36 -274 46 -335 54 -36 5 -81
14 -100 20 -19 5 -51 10 -71 10 -20 0 -56 7 -79 15 -23 8 -63 15 -89 15 -25 0
-64 7 -86 15 -22 8 -62 14 -90 15 -27 0 -68 7 -90 15 -22 8 -60 14 -85 15 -25
0 -63 7 -85 15 -22 8 -64 14 -93 15 -29 0 -62 5 -73 11 -11 6 -50 14 -87 19
-162 23 -219 32 -248 41 -16 5 -59 12 -95 15 -35 3 -73 9 -84 14 -11 5 -54 14
-95 19 -41 6 -113 18 -160 26 -47 8 -119 19 -160 25 -41 6 -100 19 -130 28
l-55 16 95 12 c52 6 138 19 190 28 52 9 122 21 154 26 32 5 80 13 105 19 25 5
80 17 121 25 127 25 272 58 340 77 90 24 103 24 322 -17z m-1402 -219 c174
-28 265 -44 280 -49 8 -3 42 -10 75 -15 33 -5 101 -17 150 -26 50 -9 128 -22
175 -29 47 -8 92 -16 100 -20 8 -3 44 -11 80 -16 36 -5 103 -16 150 -25 47 -8
117 -19 155 -25 39 -6 86 -16 105 -21 19 -5 64 -14 100 -19 36 -5 104 -16 152
-25 204 -36 257 -45 338 -60 141 -25 261 -45 330 -55 36 -5 81 -14 100 -19 19
-5 67 -15 105 -21 39 -6 111 -17 160 -25 50 -9 117 -19 150 -24 33 -5 80 -14
105 -19 49 -12 171 -34 370 -67 51 -8 203 -34 295 -50 44 -8 101 -17 128 -20
l47 -6 0 -20 0 -20 -22 7 c-12 4 -47 10 -78 14 -54 8 -112 18 -260 45 -41 8
-122 21 -180 30 -58 9 -121 20 -140 25 -32 8 -284 52 -405 71 -88 13 -239 39
-285 49 -25 5 -88 16 -140 25 -119 20 -250 42 -360 61 -47 8 -114 19 -150 25
-36 6 -99 17 -140 24 -41 8 -88 16 -105 19 -80 11 -175 28 -219 38 -26 6 -74
14 -105 19 -31 4 -94 14 -141 23 -47 8 -119 20 -160 26 -41 6 -88 15 -105 20
-16 5 -57 12 -90 15 -33 4 -74 11 -92 16 -17 6 -62 14 -100 19 -37 5 -107 16
-155 25 -49 8 -127 22 -175 30 -49 9 -121 21 -160 27 -76 11 -92 23 -45 34 15
3 32 7 37 9 6 2 17 1 25 -2 8 -3 53 -11 100 -18z m-287 -42 c4 -2 7 -47 7 -99
l0 -95 15 -5 c8 -4 22 0 31 7 l16 13 -7 77 -6 77 18 4 c10 2 38 0 63 -5 25 -4
74 -13 110 -18 36 -6 80 -15 97 -20 18 -6 63 -14 100 -19 104 -14 195 -30 230
-41 18 -6 63 -14 100 -19 76 -10 163 -25 237 -42 26 -6 74 -14 105 -19 146
-22 199 -31 231 -40 19 -5 64 -14 100 -19 145 -21 207 -32 254 -46 26 -8 65
-14 86 -14 20 0 50 -5 66 -10 16 -6 58 -15 94 -20 65 -9 163 -26 315 -54 140
-25 268 -48 350 -61 76 -13 179 -31 345 -60 41 -7 118 -21 170 -30 52 -9 131
-23 175 -31 44 -8 108 -18 142 -23 34 -5 84 -14 110 -19 55 -13 139 -27 268
-48 49 -8 98 -17 107 -20 l18 -5 0 -1255 0 -1254 -9 0 c-5 0 -25 7 -44 15 -20
8 -57 15 -82 15 -26 0 -55 5 -66 11 -11 5 -52 13 -92 16 -40 3 -78 10 -84 16
-7 5 -43 11 -80 14 -38 3 -85 11 -106 19 -20 8 -59 14 -85 14 -26 0 -65 7 -87
15 -22 8 -61 14 -87 15 -26 0 -59 5 -73 10 -15 6 -59 15 -99 20 -39 6 -106 15
-149 22 l-78 12 -5 26 c-3 14 -10 34 -15 45 -5 11 -13 31 -18 45 -21 60 -148
186 -246 247 -63 39 -149 84 -215 112 -41 18 -88 39 -103 47 -16 8 -36 14 -46
14 -9 0 -22 5 -28 11 -6 6 -26 14 -44 19 -19 4 -50 14 -69 21 -19 6 -51 17
-70 24 -93 33 -137 45 -160 45 -15 0 -31 5 -36 10 -6 6 -33 15 -60 20 -59 11
-123 27 -184 46 -25 8 -56 14 -70 14 -14 0 -43 7 -65 15 -22 8 -57 14 -78 15
-21 0 -47 5 -58 11 -11 6 -50 14 -87 19 -37 5 -98 15 -137 22 l-70 14 11 7 c7
4 51 71 99 149 104 172 94 155 150 253 25 44 50 87 56 95 5 8 14 24 19 35 6
11 19 34 30 50 11 17 24 39 29 50 5 11 21 37 35 58 14 21 26 44 26 52 0 8 5
17 10 20 l11 7 -12 14 c-31 38 -64 9 -137 -121 -27 -49 -59 -106 -71 -125 -11
-19 -25 -44 -31 -55 -6 -11 -24 -42 -41 -70 -16 -27 -37 -63 -45 -80 -8 -16
-28 -52 -45 -80 -16 -27 -37 -63 -45 -80 -8 -16 -20 -39 -27 -50 -6 -11 -26
-42 -43 -70 l-31 -51 -64 8 c-35 5 -86 14 -112 20 -26 5 -88 13 -136 17 -48 4
-93 11 -100 15 -6 4 -62 12 -124 16 -159 13 -321 29 -402 41 -38 6 -148 14
-243 19 -95 5 -177 12 -182 15 -4 3 -73 7 -152 10 -79 3 -271 10 -428 16 -157
6 -373 11 -480 12 l-195 2 0 930 0 930 54 7 c30 3 161 7 290 8 l236 2 105 13
c58 8 177 16 265 19 88 3 176 10 195 15 19 6 71 11 115 11 44 0 109 5 145 11
151 25 370 32 403 12z m-1873 -1525 c0 -779 -2 -1423 -6 -1431 -12 -32 -115
-56 -172 -40 l-24 6 7 21 c9 26 9 39 -2 141 -9 91 -10 518 -3 1799 l4 899 14
13 c7 8 16 14 20 15 4 0 34 3 67 5 33 3 62 7 64 10 3 2 11 -1 18 -9 l13 -13 0
-1416z m-396 -530 c3 -13 6 -94 6 -181 l0 -158 -12 -4 c-7 -2 -94 -6 -193 -8
l-180 -5 -28 -11 c-16 -6 -70 -11 -120 -11 -51 0 -119 -7 -152 -15 -33 -8 -77
-14 -98 -15 -104 -1 -460 -79 -642 -140 -255 -86 -337 -136 -464 -280 l-31
-34 0 -69 0 -68 35 -54 34 -54 57 -45 c51 -39 142 -90 239 -131 17 -7 47 -20
68 -29 21 -9 44 -16 51 -16 8 0 27 -7 42 -15 16 -8 40 -15 54 -15 14 0 34 -7
44 -15 11 -8 34 -15 52 -15 17 0 45 -7 60 -15 16 -8 48 -15 71 -15 23 0 44 -4
47 -9 3 -5 34 -12 68 -16 35 -4 88 -13 118 -21 30 -8 73 -14 96 -14 24 0 54
-4 69 -10 14 -5 85 -14 158 -20 73 -6 168 -15 212 -21 l80 -11 470 0 470 0 95
11 c52 7 142 16 200 20 58 5 134 14 170 20 116 19 194 32 251 40 30 5 71 13
90 19 19 6 59 15 89 22 30 6 73 14 95 19 22 4 51 13 65 18 36 15 91 34 125 43
109 31 271 113 353 180 l63 51 37 -11 c20 -5 56 -10 80 -10 24 0 52 -4 62 -10
10 -5 52 -14 92 -20 128 -17 212 -31 244 -41 18 -5 60 -14 95 -19 35 -5 84
-13 109 -19 106 -23 159 -33 220 -40 36 -5 81 -13 100 -20 19 -6 53 -11 76
-11 23 0 58 -7 77 -15 20 -8 61 -15 91 -15 l54 0 28 -15 29 -15 55 0 55 -1 25
-14 25 -14 56 -1 c31 0 73 -7 92 -15 20 -8 57 -15 82 -15 26 0 56 -5 68 -12
12 -6 53 -14 91 -17 l69 -6 4 -11 4 -11 -173 -56 c-164 -54 -291 -90 -368
-107 -47 -10 -115 -26 -170 -40 -25 -6 -65 -15 -90 -19 -25 -5 -58 -13 -73
-20 -16 -6 -40 -11 -54 -11 -15 0 -49 -6 -77 -14 -211 -59 -733 -143 -1031
-165 -66 -5 -133 -14 -148 -20 -16 -6 -70 -11 -120 -11 -51 0 -119 -7 -152
-15 l-60 -14 -110 -1 c-60 -1 -137 -6 -170 -11 -33 -6 -167 -14 -298 -19 -131
-5 -252 -13 -270 -18 l-32 -10 -355 -7 c-195 -4 -364 -8 -375 -8 -74 -6 -967
17 -1125 29 -107 7 -234 14 -281 14 -47 0 -110 4 -140 10 -30 5 -117 14 -194
20 -203 14 -348 29 -445 46 -47 8 -110 14 -141 14 -31 0 -69 5 -85 10 -16 6
-65 14 -109 19 -83 10 -210 29 -375 56 -52 8 -117 18 -143 22 -69 9 -72 -3 45
165 l40 57 -6 17 -6 16 -53 -5 c-28 -3 -77 -10 -107 -17 -30 -6 -71 -14 -90
-18 l-35 -7 -3 -22 -3 -23 25 -12 c14 -6 26 -15 26 -20 0 -13 -93 -68 -115
-68 -29 1 -326 85 -380 109 -11 4 -58 21 -105 36 -165 53 -479 193 -488 217
-2 5 -21 18 -43 28 -21 11 -39 25 -39 30 0 6 -9 10 -20 10 -11 0 -20 5 -20 11
0 5 -14 23 -31 39 l-31 28 6 11 7 11 -15 0 -16 0 0 18 c0 9 -8 22 -19 29 l-18
12 2 68 c1 37 3 79 3 92 l2 23 16 -13 15 -12 -7 27 -6 27 18 20 c11 11 28 27
38 37 11 9 43 38 70 63 28 25 73 59 99 75 70 42 160 93 177 100 8 3 22 9 30
14 37 23 103 49 110 45 4 -3 19 4 33 15 14 11 30 20 36 20 7 0 23 7 36 16 l25
16 24 -4 24 -5 5 19 5 18 34 0 c18 0 42 7 52 15 11 8 32 15 47 15 14 0 32 7
39 15 l12 15 33 0 c18 0 46 7 61 15 16 8 40 15 54 15 14 0 34 7 44 15 11 8 36
15 55 15 20 0 45 7 55 15 11 8 38 15 60 15 23 0 50 7 60 15 l20 15 42 0 c23 0
55 7 70 15 16 8 47 15 69 15 22 1 51 7 65 15 l25 14 53 1 53 0 31 16 31 16 38
-5 38 -5 26 14 c15 8 61 16 103 19 41 3 83 10 94 16 10 5 55 12 100 15 46 3
97 12 115 20 17 8 47 14 66 14 l35 0 6 -37 c3 -21 4 -69 2 -108 -4 -88 1 -113
25 -120 l20 -7 14 12 15 12 0 124 0 123 13 8 c12 8 175 26 402 43 72 5 151 14
178 21 26 6 54 9 61 6 8 -3 58 -1 113 4 90 8 233 18 753 49 102 6 190 13 195
15 6 2 35 4 66 4 l57 1 6 -22z m1341 1 c369 -16 880 -46 912 -54 l22 -5 3
-137 3 -138 19 -3 c10 -2 22 0 28 6 l9 9 0 110 c0 61 -3 117 -7 127 l-6 16 58
0 c33 -1 95 -7 139 -15 44 -8 105 -15 135 -15 30 0 82 -7 115 -15 33 -8 84
-14 113 -15 57 0 139 -17 147 -30 7 -11 -23 -75 -52 -111 -5 -8 -32 -54 -58
-104 -26 -49 -49 -91 -50 -93 -1 -2 -17 9 -35 25 l-32 27 -14 -19 -14 -19 0
-51 0 -51 -14 -19 -13 -18 -42 17 c-24 9 -68 19 -99 22 l-57 6 -92 -69 c-127
-93 -175 -127 -195 -135 l-16 -7 -59 43 c-153 114 -436 216 -733 266 -36 6
-101 18 -145 26 -44 8 -97 14 -117 14 -20 0 -63 7 -95 15 l-57 15 -88 0 c-48
0 -97 4 -110 10 -13 5 -104 13 -203 17 l-180 8 -3 150 c-2 83 0 165 3 183 l6
32 317 -5 c174 -3 425 -10 557 -16z m1821 -169 c6 -6 44 -14 85 -17 41 -3 86
-12 101 -19 15 -8 47 -14 71 -14 l43 0 20 -15 19 -14 50 -1 c28 0 61 -7 75
-15 14 -8 41 -14 61 -15 19 0 44 -7 55 -15 10 -8 35 -15 54 -15 19 0 48 -7 64
-15 15 -8 42 -15 60 -15 17 0 40 -7 50 -15 11 -8 31 -15 45 -15 14 -1 37 -7
51 -15 14 -8 37 -14 51 -15 15 0 32 -7 39 -15 l12 -15 33 0 33 0 12 -15 c7 -8
25 -15 40 -15 15 0 33 -7 40 -15 7 -8 23 -15 35 -15 12 0 28 -7 35 -15 7 -8
18 -15 25 -15 13 0 155 -69 165 -79 3 -3 21 -15 40 -25 59 -33 90 -58 178
-144 l84 -82 -5 -20 c-3 -11 0 -23 6 -27 l10 -6 -21 -8 c-24 -9 -52 -2 -52 12
0 5 -31 9 -70 9 l-70 0 -37 14 c-21 8 -71 16 -111 19 -40 2 -79 10 -85 16 -6
6 -35 11 -64 11 -30 0 -70 7 -90 15 -19 8 -60 15 -90 15 -29 0 -70 7 -90 15
-19 8 -59 15 -88 15 -29 0 -69 7 -88 15 -20 8 -56 15 -80 15 -24 0 -66 7 -93
15 -27 8 -65 15 -84 15 -19 0 -51 5 -70 10 -19 6 -69 15 -110 21 -41 5 -109
14 -150 19 -41 5 -127 14 -190 20 -63 6 -141 13 -172 16 l-56 6 5 17 c3 9 15
24 27 33 l21 17 -11 18 c-6 10 -21 19 -33 21 l-21 3 0 24 c0 13 4 27 10 30 9
5 36 49 123 193 16 26 33 59 40 75 l11 27 21 0 c12 0 26 -5 31 -10z m-3160
-302 c-9 -93 2 -86 -162 -89 -165 -2 -157 -6 -173 67 l-13 57 13 8 c8 5 37 9
64 10 28 0 73 4 100 9 28 4 79 8 114 9 l64 1 -7 -72z m624 57 c52 -4 106 -8
118 -11 l24 -5 -26 -34 c-14 -18 -26 -38 -26 -43 0 -4 -10 -18 -22 -29 l-23
-20 -102 5 -101 4 -6 22 c-8 30 -7 111 1 120 4 4 21 5 38 2 16 -3 73 -8 125
-11z m-1030 -68 c7 -29 11 -62 8 -73 l-3 -19 -20 -1 c-45 -3 -280 -36 -287
-40 -12 -8 -48 15 -111 70 l-59 50 19 7 c29 11 142 28 232 34 46 4 93 10 105
15 11 5 39 9 62 9 l41 1 13 -53z m1383 38 c32 -8 86 -15 119 -15 34 0 75 -4
92 -9 17 -6 46 -14 65 -18 l34 -8 -81 -53 -80 -54 -107 16 c-58 9 -131 16
-163 16 -31 0 -64 4 -72 10 l-14 9 14 28 c8 15 25 43 38 61 l24 32 37 0 c20 0
63 -7 94 -15z m-1866 -129 c61 -62 61 -71 0 -81 -52 -9 -215 -63 -242 -81 -11
-8 -28 -14 -38 -14 -18 0 -197 100 -226 126 l-14 13 29 6 c16 4 38 10 49 15
26 11 96 29 160 41 28 5 59 14 70 19 26 12 81 19 124 14 l34 -3 54 -55z m2403
43 c14 -5 45 -13 70 -18 123 -26 171 -40 185 -51 l16 -13 -88 -48 c-87 -48
-126 -59 -138 -39 -3 6 -16 10 -28 10 -12 0 -33 6 -47 13 -14 7 -70 21 -125
32 -125 23 -127 25 -68 69 26 20 57 43 68 51 l20 16 55 -6 c30 -4 66 -11 80
-16z m-1514 -91 c3 -12 3 -79 -1 -150 l-7 -129 12 -29 c42 -102 319 -123 421
-32 l31 27 1 160 2 160 55 -2 c114 -3 278 -14 355 -24 44 -6 114 -14 155 -19
252 -26 538 -101 657 -172 l52 -31 17 -33 18 -33 -29 -36 c-36 -44 -165 -115
-208 -115 -9 0 -18 -4 -21 -9 -4 -5 -25 -12 -49 -16 -23 -4 -46 -10 -52 -14
-15 -9 -120 -31 -200 -41 -38 -5 -86 -13 -105 -19 -55 -15 -200 -28 -525 -47
l-300 -17 -290 12 c-159 7 -317 16 -350 22 -33 5 -98 14 -145 19 -140 16 -258
35 -266 43 -4 4 -19 7 -34 7 -24 0 -87 16 -200 52 -32 10 -90 33 -150 61 -14
6 -42 27 -62 46 l-38 35 0 24 0 23 34 32 c40 38 65 51 184 97 29 11 61 20 71
20 10 0 32 7 47 15 16 8 39 15 52 15 12 0 48 6 80 14 87 22 232 46 277 46 22
0 56 5 75 10 19 6 109 15 200 21 91 6 172 15 180 20 8 5 23 9 32 9 l17 0 7
-22z m2751 -2 l28 -25 -22 -22 -22 -22 -59 13 -60 12 -14 -8 c-12 -7 -185
-130 -256 -182 l-34 -24 14 -14 14 -14 104 -15 c58 -8 141 -20 185 -26 44 -6
107 -17 140 -25 33 -7 88 -16 121 -19 l62 -7 101 86 c55 47 110 90 121 96 11
6 25 20 31 31 l11 21 -14 13 -13 12 -180 17 c-99 9 -184 21 -190 27 l-10 10
11 17 c6 9 27 22 47 29 l35 12 29 -9 c51 -15 167 -42 213 -50 25 -4 65 -12 90
-18 61 -15 177 -38 283 -56 48 -9 124 -22 170 -30 45 -9 129 -22 187 -31 58
-9 133 -23 167 -31 34 -8 77 -14 95 -14 18 0 49 -5 69 -10 20 -6 67 -14 105
-20 56 -7 435 -70 574 -95 81 -15 259 -47 305 -55 28 -5 106 -19 175 -30 69
-12 148 -25 175 -30 50 -9 120 -20 275 -46 47 -8 114 -17 150 -20 36 -3 78
-10 93 -16 16 -6 57 -14 90 -17 l62 -6 3 -199 c1 -110 -1 -203 -5 -207 -5 -4
-57 1 -118 12 -60 11 -138 24 -172 28 -34 5 -84 14 -110 20 -55 12 -159 29
-253 41 -36 5 -81 14 -100 20 -19 5 -53 10 -75 10 -22 0 -58 7 -80 15 -22 8
-62 14 -88 15 -27 0 -57 4 -67 10 -10 5 -52 14 -92 20 -107 14 -195 29 -265
45 -34 8 -82 15 -108 15 -25 0 -55 4 -65 10 -10 5 -52 14 -92 20 -93 12 -189
28 -252 42 -26 6 -74 14 -105 19 -31 5 -94 15 -141 24 -202 35 -260 45 -345
59 -49 8 -97 17 -105 20 -8 3 -44 11 -80 16 -36 5 -108 16 -160 25 -52 9 -131
20 -175 26 -44 5 -93 14 -109 19 -16 6 -52 10 -81 10 -28 0 -74 7 -101 15 -27
8 -72 15 -100 15 -28 0 -68 7 -87 15 -20 8 -56 15 -80 15 -25 0 -64 7 -87 15
-23 8 -56 15 -73 15 -17 0 -56 6 -86 14 -31 8 -83 19 -116 24 -33 6 -73 15
-90 22 l-30 12 21 11 c11 7 70 49 130 94 60 45 150 111 199 146 l90 65 82 1
82 1 28 -24z m-789 -42 c104 -46 183 -87 208 -107 l25 -19 -17 -19 c-10 -11
-32 -29 -50 -40 l-33 -20 -141 2 -141 2 -41 43 c-23 24 -49 46 -59 49 -11 4
-19 14 -19 23 l1 17 52 24 c29 14 68 35 87 47 45 29 60 29 128 -2z m-3419 -2
c52 -25 211 -122 211 -129 0 -3 -11 -18 -25 -35 -14 -16 -25 -35 -25 -43 0 -7
-8 -16 -17 -20 -20 -7 -514 -7 -522 0 -24 25 112 138 247 206 90 45 83 44 131
21z m3475 -274 c2 -7 8 -35 12 -62 l9 -49 45 -13 c25 -8 57 -14 73 -14 51 0
21 -40 -66 -85 l-55 -29 -24 12 c-24 12 -99 40 -133 49 -11 3 -34 11 -52 19
-17 8 -36 14 -42 14 -6 0 -24 8 -40 18 l-29 17 33 25 c18 14 45 44 59 68 l26
42 90 0 91 0 3 -12z m-3291 -67 c35 -51 35 -52 -21 -79 -26 -12 -94 -47 -151
-78 l-105 -55 -75 38 -76 38 -67 66 -68 67 0 20 0 19 268 2 267 1 28 -39z
m3517 13 c47 -8 128 -22 180 -29 126 -18 268 -42 360 -60 41 -8 104 -19 140
-25 36 -6 76 -14 90 -20 14 -5 54 -14 90 -19 84 -13 172 -29 234 -43 26 -6 74
-14 105 -19 31 -4 95 -15 144 -23 144 -26 257 -46 352 -62 110 -18 224 -38
330 -58 44 -8 121 -21 170 -30 50 -8 97 -17 105 -20 8 -4 44 -11 80 -16 70
-10 182 -29 325 -55 50 -9 126 -22 170 -30 44 -8 119 -21 168 -29 48 -9 126
-23 175 -31 48 -9 125 -22 172 -30 47 -8 126 -21 175 -30 50 -8 116 -19 147
-24 31 -5 78 -13 105 -19 26 -6 69 -14 95 -17 49 -6 67 -20 51 -36 l-10 -10
-44 10 c-24 5 -71 14 -104 20 -120 21 -232 40 -325 56 -52 9 -117 20 -145 25
-27 5 -70 12 -95 15 -25 3 -65 10 -90 15 -25 5 -88 16 -140 25 -52 9 -135 23
-185 31 -49 9 -124 22 -165 29 -41 8 -120 21 -175 30 -55 9 -118 20 -140 25
-22 5 -65 12 -95 15 -30 3 -75 11 -100 16 -25 5 -74 14 -110 19 -68 10 -162
26 -315 55 -49 9 -126 23 -170 31 -44 7 -118 20 -165 29 -47 8 -123 22 -170
30 -47 8 -125 21 -175 30 -49 9 -119 20 -155 26 -36 5 -85 13 -110 18 -49 11
-145 26 -256 41 -40 5 -84 14 -99 20 -14 5 -43 10 -64 10 -21 0 -58 7 -81 15
-23 8 -61 15 -84 15 -22 1 -59 7 -81 15 -22 8 -60 15 -85 15 -25 1 -63 7 -85
15 -22 8 -54 15 -72 15 -36 0 -46 10 -37 35 l7 17 36 -6 c20 -3 74 -13 121
-22z m-3362 -119 c28 -14 65 -28 84 -31 18 -4 45 -13 60 -20 15 -8 43 -14 63
-14 l35 0 0 -17 c0 -9 -37 -52 -82 -95 l-82 -78 -22 0 c-12 0 -35 7 -50 15
-16 8 -45 15 -64 15 -19 1 -46 7 -60 15 -14 8 -38 15 -55 15 -16 0 -41 7 -55
15 -14 8 -35 14 -48 15 -12 0 -34 7 -48 16 l-25 17 31 18 c17 11 36 19 42 19
6 0 19 6 27 14 12 11 188 105 198 106 1 0 24 -11 51 -25z m2827 -21 c28 -10
64 -23 82 -31 17 -7 39 -13 50 -13 10 0 27 -7 37 -15 11 -8 31 -15 44 -15 l23
0 -3 -17 c-2 -10 -12 -19 -23 -21 -11 -2 -33 -10 -50 -17 -16 -7 -41 -15 -55
-18 -14 -3 -38 -10 -55 -15 -43 -15 -131 -39 -192 -53 l-52 -12 -73 56 c-40
31 -84 65 -97 76 l-25 19 38 16 c21 9 50 16 65 16 27 1 128 32 158 49 26 15
72 13 128 -5z m-2420 -89 c22 -8 65 -15 95 -15 30 0 80 -7 110 -15 30 -8 67
-15 83 -15 l27 0 0 -24 c0 -13 -7 -37 -15 -52 -8 -16 -15 -43 -15 -60 0 -17
-7 -37 -15 -44 l-14 -12 -79 16 c-44 9 -110 16 -148 16 -38 0 -87 7 -109 15
-22 8 -66 14 -97 15 l-58 0 0 13 c0 24 159 177 183 177 7 -1 30 -7 52 -15z
m2038 -70 c109 -82 110 -105 3 -105 -25 0 -71 -7 -103 -15 -31 -8 -82 -15
-113 -15 -31 0 -79 -6 -108 -14 l-52 -13 -15 11 c-11 8 -95 159 -95 171 0 1
39 5 86 8 47 3 91 11 98 16 7 6 45 12 86 14 41 1 87 4 101 5 l26 2 86 -65z
m-1546 14 l28 -11 195 -6 195 -7 2 -82 2 -83 -18 -9 -18 -10 -159 5 c-87 2
-175 7 -194 11 -19 3 -60 7 -90 7 -30 1 -61 6 -69 10 l-13 9 7 36 c3 20 9 51
11 70 3 19 9 42 15 52 l10 19 34 0 c18 0 46 -5 62 -11z m994 -11 c15 -34 35
-68 48 -81 6 -6 11 -18 11 -26 0 -8 7 -23 17 -33 25 -28 67 -23 -381 -48
l-170 -9 -13 11 -13 10 0 83 0 82 213 5 212 4 20 12 c30 17 44 14 56 -10z
m3715 -198 c16 -5 58 -15 94 -20 36 -6 103 -18 150 -26 47 -8 123 -22 170 -29
47 -8 123 -22 170 -30 127 -24 224 -42 330 -60 183 -32 246 -43 335 -59 130
-24 258 -46 350 -60 44 -6 90 -18 103 -24 l22 -13 0 -99 c0 -55 -1 -103 -2
-107 -5 -14 -33 -10 -328 42 -96 17 -191 34 -342 59 -46 8 -121 21 -168 30
-47 9 -121 20 -164 26 -44 6 -83 13 -86 15 -4 2 -38 9 -76 15 -109 16 -193 30
-274 46 -68 12 -174 29 -598 94 -73 11 -144 20 -159 20 l-27 0 22 21 c13 11
39 23 59 26 21 4 48 12 63 20 14 7 33 13 42 13 9 0 19 4 23 9 3 5 20 13 37 17
18 3 39 10 48 15 8 5 38 18 65 29 28 11 57 25 65 30 20 12 41 12 76 0z m-571
-220 c15 0 57 -7 94 -15 137 -30 290 -57 776 -140 44 -7 123 -21 175 -30 148
-25 270 -46 330 -54 30 -5 80 -13 110 -19 30 -6 100 -19 155 -28 55 -9 134
-22 175 -29 41 -7 125 -21 185 -30 61 -10 151 -25 200 -34 l90 -17 3 -202 2
-202 -29 0 c-16 0 -42 5 -56 10 -15 6 -59 14 -99 19 -39 5 -89 14 -111 20 -22
6 -60 11 -86 11 -25 0 -50 5 -56 11 -6 6 -42 13 -80 16 -37 2 -85 11 -106 19
-20 8 -56 14 -80 14 -23 0 -64 7 -91 15 -27 8 -64 15 -82 15 -18 0 -59 7 -91
15 -31 8 -76 15 -98 15 -23 0 -45 4 -50 9 -6 6 -41 13 -80 16 -38 4 -79 11
-90 16 -11 5 -54 13 -95 18 -41 5 -93 14 -115 20 -22 6 -58 11 -80 11 -23 0
-45 4 -50 9 -6 6 -46 14 -90 20 -87 11 -215 32 -340 55 -44 8 -120 22 -170 30
-49 9 -126 23 -170 31 -44 8 -120 22 -170 30 -49 8 -130 22 -180 31 -143 24
-265 44 -330 53 -33 4 -85 13 -115 19 -30 6 -80 14 -110 17 -51 6 -100 28 -88
40 3 3 45 10 94 15 49 6 96 13 104 16 8 3 42 10 75 15 140 19 335 60 550 113
33 9 94 24 135 34 l75 19 17 -9 c9 -4 29 -8 43 -8z m-1224 -251 c30 -6 79 -14
109 -19 30 -5 93 -16 140 -25 47 -10 108 -21 135 -25 44 -8 129 -23 545 -96
47 -8 114 -19 150 -25 36 -5 115 -18 175 -28 61 -11 160 -27 220 -36 61 -9
127 -21 147 -26 20 -5 67 -13 105 -19 76 -10 165 -26 233 -42 25 -5 72 -14
105 -19 99 -14 187 -29 235 -40 25 -6 72 -15 105 -19 71 -9 171 -27 240 -42
27 -6 77 -15 110 -19 110 -15 200 -30 235 -40 19 -5 64 -14 100 -19 103 -15
190 -30 261 -45 37 -8 82 -15 101 -15 19 0 43 -6 54 -14 l19 -15 -10 -10 -10
-10 -60 9 c-77 10 -172 27 -256 46 -37 8 -78 14 -92 14 -15 0 -52 7 -84 15
-31 8 -75 15 -96 15 -21 0 -47 4 -57 10 -10 5 -52 14 -92 19 -40 5 -91 14
-113 20 -22 6 -57 11 -78 11 -21 0 -47 4 -57 10 -10 5 -51 13 -92 16 -40 4
-78 11 -84 15 -6 5 -44 13 -85 19 -121 16 -212 31 -249 41 -19 5 -64 14 -100
19 -36 5 -108 16 -160 25 -52 8 -126 20 -165 25 -38 6 -77 13 -85 16 -8 4 -49
12 -90 20 -41 7 -113 20 -160 29 -127 24 -247 45 -320 55 -36 6 -72 13 -80 16
-17 8 -148 30 -260 44 -41 6 -82 13 -90 16 -15 7 -131 26 -266 44 -40 5 -84
14 -99 20 -14 5 -43 10 -64 10 -21 0 -60 7 -87 15 -27 8 -66 15 -86 15 -42 0
-68 8 -68 21 0 12 106 11 171 -2z m-2303 -590 l2 -436 -19 -17 c-23 -21 -78
-31 -126 -22 l-37 7 17 19 17 18 -21 11 -20 11 0 28 c0 15 -2 196 -6 403 l-6
376 13 10 c22 19 81 32 133 30 l50 -2 3 -436z"/>
<path d="M7995 10008 c-3 -13 -4 -77 -3 -143 l3 -120 18 -3 19 -4 13 18 13 18
-4 115 -5 115 -11 13 c-16 20 -37 15 -43 -9z"/>
<path d="M3800 9954 c-13 -34 -13 -220 0 -245 l11 -19 23 0 24 0 6 16 c8 20 8
222 0 252 l-6 22 -24 0 -24 0 -10 -26z"/>
<path d="M8194 10612 c-43 -32 -105 -78 -136 -101 -96 -69 -89 -75 109 -101
81 -10 200 -28 263 -40 63 -12 134 -24 156 -27 l42 -5 125 106 c70 59 129 112
133 118 l7 11 -18 13 c-9 7 -43 16 -74 19 -126 13 -311 37 -387 51 -44 8 -94
14 -111 14 l-30 0 -79 -58z"/>
<path d="M7997 9283 c-4 -3 -7 -64 -7 -135 l0 -129 16 -6 16 -6 15 16 16 16
-2 107 c-3 125 -21 171 -54 137z"/>
<path d="M8002 8558 l-12 -12 0 -127 0 -127 15 -12 14 -12 20 33 20 32 -6 106
c-6 121 -19 151 -51 119z"/>
<path d="M7995 7438 c-3 -13 -5 -72 -3 -133 l3 -110 22 -3 22 -3 9 18 10 18
-7 105 c-4 58 -10 111 -15 118 -12 20 -35 14 -41 -10z"/>
<path d="M3809 7404 l-13 -16 -1 -106 c-1 -59 2 -117 6 -129 l9 -23 18 0 c10
0 23 5 30 12 l12 12 0 121 0 121 -12 12 c-16 16 -33 15 -49 -4z"/>
<path d="M8002 7098 l-12 -12 0 -122 0 -122 16 -13 16 -13 14 19 c8 10 15 42
16 69 1 28 2 74 3 101 2 66 -3 83 -24 95 l-18 9 -11 -11z"/>
<path d="M3809 7049 l-21 -21 6 -116 c3 -64 5 -118 5 -119 1 -1 11 -8 23 -14
l21 -12 14 19 13 18 0 107 c0 149 -15 184 -61 138z"/>
<path d="M8290 7973 c-8 -4 -77 -53 -153 -110 l-138 -104 4 -12 c2 -7 10 -13
18 -14 75 -8 268 -37 320 -49 37 -8 80 -14 95 -14 16 0 54 -7 84 -15 30 -8 70
-15 89 -15 l34 0 76 68 c42 37 100 87 129 111 l52 43 0 18 c0 23 -19 30 -83
30 -52 0 -187 17 -367 46 -139 23 -144 23 -160 17z"/>
<path d="M8001 6361 l-15 -9 1 -127 1 -127 11 -11 c36 -36 61 26 61 155 l0
101 -17 13 c-21 16 -24 16 -42 5z"/>
<path d="M8000 6005 l-12 -15 -5 -113 -4 -112 14 -20 15 -19 26 12 26 12 0
100 0 101 -14 34 c-16 38 -27 43 -46 20z"/>
<path d="M10235 5836 l-18 -13 -1 -51 c-1 -61 -5 -66 -41 -52 -65 25 -121 -10
-148 -92 l-15 -47 14 -60 14 -61 21 -21 c12 -12 37 -25 56 -29 l34 -8 36 10
c19 5 46 7 58 4 l23 -6 10 13 10 12 0 189 1 189 -10 19 c-12 22 -19 22 -44 4z
m-45 -194 l23 -19 5 -55 4 -56 -21 -21 -21 -21 -29 0 -30 0 -20 29 -21 29 0
40 0 39 25 27 c28 31 54 33 85 8z"/>
<path d="M11102 5828 c-18 -18 -15 -42 8 -63 l20 -18 15 13 16 13 -3 31 -3 31
-20 3 c-11 1 -26 -3 -33 -10z"/>
<path d="M11240 5765 l0 -36 -15 -5 -15 -6 0 -28 c0 -15 7 -33 15 -40 l15 -12
0 -102 0 -102 12 -12 c7 -7 29 -12 49 -12 l37 0 6 15 5 15 -24 16 -25 16 0 83
0 82 20 18 c25 23 26 51 1 65 l-20 10 -3 33 -3 32 -27 3 -28 3 0 -36z"/>
<path d="M9348 5724 c-3 -3 -28 -6 -55 -7 l-48 -2 -3 -147 -3 -146 21 -7 c11
-3 29 -3 40 0 l20 6 0 98 0 98 18 15 c9 8 29 19 45 26 l27 12 0 19 c0 27 -46
52 -62 35z"/>
<path d="M9479 5707 c-19 -12 -42 -38 -52 -57 l-18 -35 3 -67 4 -67 20 -28 21
-28 43 -12 43 -13 41 10 41 9 28 31 c46 52 7 82 -52 41 -16 -12 -40 -21 -53
-21 l-25 0 -23 26 -24 25 14 9 c8 5 52 10 96 10 l82 0 12 15 13 15 -6 37 c-12
69 -74 123 -143 123 l-31 0 -34 -23z m121 -65 l23 -19 -7 -11 -7 -12 -52 0
c-29 0 -58 4 -64 8 l-13 8 16 22 15 22 33 0 34 0 22 -18z"/>
<path d="M9795 5721 c-54 -24 -81 -76 -52 -100 l14 -11 33 25 c38 28 67 32 94
12 31 -23 13 -39 -64 -59 -41 -11 -83 -27 -92 -35 l-18 -16 0 -37 0 -37 25
-27 24 -26 55 0 55 0 16 16 16 16 18 -16 c42 -38 87 -7 57 39 l-16 24 0 94 0
94 -22 21 -23 21 -50 5 c-27 3 -59 2 -70 -3z m95 -176 l13 -16 -11 -23 -11
-24 -30 -7 c-17 -3 -40 -4 -51 0 l-20 6 0 24 0 23 43 15 c56 19 53 19 67 2z"/>
<path d="M11008 5716 l-26 -14 -10 10 -11 11 -25 -7 -26 -6 0 -144 0 -144 21
-5 c11 -3 27 -3 35 0 l14 5 0 92 0 91 18 22 c9 11 26 23 36 25 10 1 24 11 30
21 l11 17 -11 17 c-15 23 -25 25 -56 9z"/>
<path d="M11440 5712 l-35 -19 -18 -36 c-10 -20 -21 -52 -24 -72 l-6 -36 13
-42 c18 -56 45 -85 92 -97 l38 -11 43 12 c51 13 87 44 87 76 l0 23 -27 0 c-16
0 -39 -9 -53 -20 -45 -35 -120 -15 -120 32 l0 20 63 -2 c34 -2 81 -2 105 -1
l42 1 0 48 0 47 -19 28 c-26 40 -53 56 -103 63 l-43 5 -35 -19z m111 -73 l21
-21 -13 -9 c-8 -5 -37 -9 -66 -9 l-52 0 -6 11 c-4 5 1 19 11 30 l17 19 34 0
33 0 21 -21z"/>
<path d="M10496 5711 c-3 -5 4 -42 15 -82 11 -41 28 -102 37 -137 l17 -64 19
-10 18 -10 23 10 23 11 14 62 c8 35 19 64 25 66 l10 4 13 -61 c14 -65 30 -90
59 -90 20 0 51 30 51 49 0 7 14 61 31 121 33 113 33 140 1 140 -27 0 -39 -18
-56 -85 -22 -82 -34 -80 -51 10 -4 22 -11 48 -17 58 l-9 18 -32 -3 -32 -3 -12
-40 c-6 -22 -14 -52 -17 -67 -4 -16 -12 -28 -20 -28 l-13 0 -7 31 c-3 17 -6
41 -6 54 0 39 -66 75 -84 46z"/>
<path d="M11101 5697 c-5 -12 -8 -78 -7 -146 l1 -124 16 -10 c9 -6 24 -7 33
-4 l16 6 0 128 c0 70 -3 138 -6 151 l-6 22 -19 0 -19 0 -9 -23z"/>
<path d="M7992 5618 c-5 -13 -7 -72 -6 -132 l2 -109 15 -14 15 -15 21 23 21
23 0 117 0 117 -16 6 c-29 11 -44 6 -52 -16z"/>
<path d="M10341 5601 l-14 -9 7 -26 6 -26 60 0 59 0 12 22 12 21 -19 14 c-20
15 -102 17 -123 4z"/>
<path d="M7994 5268 c-9 -14 -8 -254 1 -269 9 -14 32 -11 49 7 l16 15 0 110 0
110 -10 20 c-12 21 -45 25 -56 7z"/>
<path d="M9858 5216 l-14 -14 -1 -190 -2 -190 18 -16 17 -16 22 16 22 15 0 98
0 98 18 16 c22 20 63 22 80 5 l12 -12 0 -97 c0 -126 16 -159 58 -117 l12 12 0
103 0 102 -17 35 -16 35 -28 11 c-15 7 -47 10 -71 8 l-43 -3 -3 45 -3 45 -16
13 c-21 15 -28 15 -45 -2z"/>
<path d="M10958 5219 l-18 -10 0 -50 0 -50 -47 7 -48 6 -35 -24 c-19 -13 -41
-37 -49 -53 l-14 -29 1 -59 1 -59 19 -36 18 -37 35 -18 34 -18 40 6 c22 3 54
7 70 8 17 1 35 5 41 9 l11 7 0 193 1 193 -10 13 c-12 14 -27 15 -50 1z m-42
-184 l21 -14 6 -35 c3 -19 1 -51 -4 -70 l-10 -35 -29 -6 -29 -6 -20 10 c-10 6
-24 26 -30 44 l-11 32 10 34 c16 55 56 75 96 46z"/>
<path d="M10528 5113 c-40 -17 -67 -50 -68 -80 l0 -23 28 0 27 0 13 20 12 20
34 0 34 0 12 -15 12 -15 -12 -15 c-7 -8 -21 -15 -32 -15 -11 0 -44 -7 -73 -16
l-54 -15 -11 -34 -11 -35 6 -22 c11 -36 44 -66 81 -72 l33 -7 31 16 30 16 40
-12 41 -12 11 11 12 12 -12 33 c-7 18 -12 68 -12 111 l0 77 -15 28 c-15 31
-30 40 -87 51 l-36 7 -34 -14z m99 -190 c2 -6 -5 -21 -16 -32 l-21 -21 -29 0
c-16 0 -34 7 -41 15 l-13 15 19 21 18 20 40 -3 c22 -2 41 -8 43 -15z"/>
<path d="M10194 5087 l-39 -35 0 -95 0 -95 24 -26 c13 -14 39 -30 58 -37 l34
-11 34 6 c19 4 48 19 66 33 l31 26 -5 36 -4 36 15 22 14 23 -12 50 -12 50 -31
22 -30 22 -52 4 -53 4 -38 -35z m130 -48 l27 -21 -11 -13 -11 -14 -51 1 -50 1
-5 14 c-17 43 57 66 101 32z m26 -121 c0 -6 -7 -20 -17 -30 l-16 -18 -37 0
c-40 0 -60 14 -60 42 l0 18 65 0 65 0 0 -12z"/>
<path d="M8003 4913 l-13 -5 0 -129 0 -130 16 -6 16 -6 13 14 13 14 2 105 c1
58 2 110 1 117 -1 16 -32 32 -48 26z"/>
<path d="M3802 4118 c-5 -13 -6 -75 -3 -138 l6 -115 26 -3 27 -3 5 33 c8 47 9
193 1 223 l-6 25 -24 0 -24 0 -8 -22z"/>
<path d="M8003 4173 l-13 -5 0 -112 0 -112 13 -18 13 -18 11 14 c6 7 14 63 18
124 l7 112 -18 10 c-11 5 -25 7 -31 5z"/>
<path d="M2115 12621 c-7 -12 -5 -354 2 -394 l5 -28 26 3 27 3 3 55 c6 100 21
100 86 0 l46 -70 19 0 c10 0 24 6 30 14 l11 13 -7 19 c-3 11 -9 21 -13 24 -3
3 -17 23 -30 45 -13 22 -30 46 -37 53 -21 22 -15 46 22 81 35 32 46 70 23 72
-30 3 -46 -5 -88 -47 -61 -59 -61 -58 -59 49 1 51 -1 99 -5 105 -9 14 -52 16
-61 3z"/>
<path d="M7598 12609 l-18 -10 0 -34 c0 -39 11 -49 46 -41 l24 6 0 33 c0 48
-20 65 -52 46z"/>
<path d="M8212 12598 l-12 -12 0 -53 0 -53 -18 0 c-10 0 -23 5 -30 12 l-11 11
-39 -11 c-89 -27 -126 -133 -84 -241 l17 -44 30 -18 c33 -19 110 -25 120 -9 3
6 24 10 46 10 l39 0 0 204 0 204 -16 6 c-22 8 -28 8 -42 -6z m-38 -189 l26
-20 0 -56 0 -56 -17 -19 -16 -18 -32 0 -33 0 -18 27 -17 27 0 45 0 44 27 24
c33 28 46 29 80 2z"/>
<path d="M8322 12598 l-10 -13 1 -193 1 -193 19 -11 19 -10 14 14 14 14 4 187
4 187 -15 15 c-18 18 -37 19 -51 3z"/>
<path d="M1222 12588 c-7 -7 -12 -24 -12 -40 l0 -27 -20 -11 c-11 -6 -20 -17
-20 -24 0 -7 9 -25 20 -39 l20 -25 0 -106 0 -105 19 -11 c11 -5 33 -10 50 -10
l31 0 0 29 c0 16 -7 34 -15 41 l-15 12 0 78 0 78 15 12 c8 7 15 23 15 35 0 12
-7 28 -15 35 -8 7 -15 25 -15 41 l0 28 -19 11 c-24 13 -24 13 -39 -2z"/>
<path d="M2641 12591 l-25 -7 -8 -32 c-5 -17 -17 -36 -28 -42 -23 -12 -25 -37
-8 -75 l11 -25 -16 -69 c-10 -38 -17 -83 -17 -100 l0 -30 19 -11 c26 -14 74
-13 89 2 17 17 15 47 -3 54 -17 7 -20 42 -6 76 6 13 12 39 16 59 l5 36 25 11
25 12 0 24 c0 14 -4 28 -10 31 -5 3 -10 17 -10 31 0 28 -16 65 -28 63 -4 -1
-18 -4 -31 -8z"/>
<path d="M1440 12510 c-8 -6 -26 -8 -40 -5 -14 3 -32 1 -40 -4 l-14 -10 -4
-124 -4 -124 12 -22 11 -22 22 3 22 3 5 90 c7 107 11 118 56 144 40 24 51 45
34 66 -14 17 -38 19 -60 5z"/>
<path d="M1591 12507 c-13 -6 -33 -25 -45 -40 l-20 -28 10 -16 c16 -26 29 -26
62 2 33 28 59 32 86 12 l18 -13 -4 -20 -3 -19 -62 -3 -62 -3 -30 -28 -31 -29
0 -32 0 -32 34 -34 34 -34 32 0 c18 0 45 8 61 17 l29 17 30 -17 30 -18 20 11
c24 13 26 42 5 60 l-15 12 0 90 0 89 -11 21 c-22 41 -118 61 -168 35z m109
-183 c0 -8 -5 -24 -10 -34 l-10 -19 -36 -7 -36 -7 -14 15 -15 14 6 16 c8 21
43 36 83 37 l32 1 0 -16z"/>
<path d="M1894 12502 c-17 -11 -41 -36 -53 -55 l-21 -34 0 -59 0 -59 18 -34
c36 -68 113 -88 183 -48 l39 22 9 30 c16 61 -18 75 -62 25 l-27 -30 -25 0
c-14 0 -34 9 -45 20 l-20 20 0 49 0 49 18 20 c9 12 29 24 43 27 l27 7 31 -31
31 -30 15 5 15 6 0 27 0 27 -29 28 -29 28 -44 5 -43 4 -31 -19z"/>
<path d="M7037 12468 c-20 -18 -37 -40 -38 -48 -4 -39 3 -63 26 -85 l24 -25
31 0 c39 0 90 -26 90 -45 0 -41 -78 -40 -105 1 l-15 24 -25 0 -24 0 -6 -19
c-3 -10 0 -31 7 -46 l12 -26 34 -15 c44 -18 80 -18 125 1 l35 14 21 34 c27 44
26 49 -5 86 l-25 31 -42 10 c-23 6 -52 15 -64 20 l-23 9 6 16 6 15 32 0 c17 0
40 -7 50 -15 27 -21 53 -19 61 5 14 44 -43 90 -113 90 l-39 0 -36 -32z"/>
<path d="M7365 12490 c-3 -5 -24 -10 -46 -10 l-40 0 -4 -12 c-2 -7 -6 -98 -8
-201 l-4 -188 15 -15 14 -15 22 14 21 14 3 57 3 56 19 0 c10 0 22 -4 25 -10 9
-14 52 -12 83 4 43 22 62 49 73 107 l11 54 -18 55 -19 55 -34 22 -34 23 -38 0
c-21 0 -41 -4 -44 -10z m70 -66 c43 -17 57 -99 25 -151 l-20 -33 -27 0 -27 0
-23 22 -23 21 0 47 0 47 21 27 c20 26 42 32 74 20z"/>
<path d="M7804 12489 l-6 -11 -33 6 -32 6 -13 -15 -13 -15 -2 -131 -2 -130 20
-14 21 -14 13 11 13 10 0 90 0 89 16 23 c8 13 27 27 41 31 l25 6 19 -17 19
-17 0 -97 0 -96 12 -12 c17 -17 36 -15 47 6 l9 17 -7 118 -6 119 -28 24 -28
24 -39 0 c-21 0 -42 -5 -46 -11z"/>
<path d="M8500 12483 c-39 -24 -59 -57 -70 -114 l-10 -51 11 -41 c24 -95 109
-134 202 -93 l38 17 16 36 15 37 -17 12 c-21 15 -44 7 -68 -23 l-18 -23 -33 0
-33 0 -21 23 -22 23 12 12 12 12 87 0 87 0 11 14 12 14 -7 39 c-17 97 -126
153 -204 106z m103 -67 c9 -7 17 -21 17 -30 l0 -16 -54 0 -55 0 -6 11 c-4 5 1
19 11 30 l17 19 26 0 c14 0 34 -7 44 -14z"/>
<path d="M7598 12479 l-18 -10 0 -132 0 -133 12 -12 c44 -44 58 -10 58 139 l0
120 -10 20 c-12 22 -18 23 -42 8z"/>
<path d="M17027 10193 c-4 -3 -7 -98 -7 -210 l0 -204 16 -6 c8 -3 20 -1 25 4
l11 11 30 -15 30 -15 45 5 44 5 24 22 c66 62 68 197 3 265 l-19 20 -72 0 -72
1 3 51 4 51 -20 11 c-24 13 -36 14 -45 4z m157 -183 l25 -9 12 -40 12 -39 -7
-26 c-4 -15 -15 -35 -26 -46 l-20 -20 -29 0 c-37 0 -57 19 -65 64 l-7 36 11
39 10 40 18 4 c29 8 40 7 66 -3z"/>
<path d="M17343 10190 l-22 -9 5 -193 c6 -222 6 -218 38 -218 l24 0 6 16 c3 9
6 103 6 209 l0 193 -16 6 c-9 3 -16 6 -17 5 -1 0 -12 -4 -24 -9z"/>
<path d="M14371 10073 c-19 -10 -42 -31 -52 -48 l-16 -30 10 -12 c14 -19 38
-16 64 9 l23 21 31 0 32 0 14 -19 14 -19 -18 -12 c-9 -7 -34 -13 -55 -13 -21
0 -57 -9 -78 -20 l-40 -20 -6 -25 c-8 -34 2 -71 28 -97 l21 -21 49 -5 49 -5
19 18 20 18 34 -18 33 -18 17 6 c20 8 21 37 1 63 l-14 19 -1 92 0 92 -25 26
-26 25 -27 0 c-15 0 -36 3 -47 5 -11 3 -36 -2 -54 -12z m114 -172 c3 -5 0 -21
-6 -35 l-12 -25 -28 -6 c-16 -4 -38 -4 -49 0 l-20 6 0 19 0 19 28 15 c31 17
78 21 87 7z"/>
<path d="M15482 10080 c-32 -7 -50 -23 -73 -64 l-11 -18 16 -16 15 -16 23 13
c13 6 33 18 45 25 l23 13 30 -5 31 -4 -3 -27 -3 -26 -55 -6 c-71 -7 -102 -21
-124 -54 l-18 -27 7 -25 c3 -14 20 -39 36 -56 l30 -29 52 5 c28 2 53 10 55 16
5 16 29 14 57 -5 l24 -15 20 11 c25 13 25 17 6 50 l-14 25 -1 90 -1 90 -18 22
-19 22 -43 10 c-24 6 -46 10 -49 10 -3 -1 -20 -5 -38 -9z m104 -182 l7 -22
-27 -23 -27 -23 -27 0 c-36 0 -55 13 -50 35 l3 17 45 19 c59 24 67 23 76 -3z"/>
<path d="M16053 10079 l-32 -9 -20 -29 c-54 -75 -16 -124 122 -155 l27 -6 0
-20 0 -20 -27 -11 -27 -10 -27 11 c-15 7 -30 18 -33 26 -3 8 -16 14 -30 14
l-24 0 -6 -16 c-9 -22 10 -52 47 -74 79 -49 197 1 197 83 l0 29 -30 26 -31 27
-52 10 -52 10 -3 22 -3 22 25 7 25 6 40 -22 39 -23 16 6 c23 9 19 40 -9 71
l-24 26 -25 0 c-13 0 -30 2 -38 4 -7 2 -27 0 -45 -5z"/>
<path d="M14630 10066 l-10 -10 0 -137 0 -137 14 -11 15 -12 20 11 21 11 0 97
c0 111 2 115 53 132 l38 12 -3 26 -3 27 -68 0 c-37 0 -72 -4 -77 -9z"/>
<path d="M14850 10071 l-45 -6 -3 -141 -3 -141 14 -11 c7 -6 23 -9 35 -5 l22
5 0 109 0 109 25 16 25 16 25 -16 25 -16 0 -104 0 -104 14 -11 15 -12 20 11
c25 13 24 11 21 116 l-2 82 12 21 11 22 32 -3 32 -3 5 -115 5 -115 35 0 35 0
3 126 3 126 -21 26 -21 27 -58 0 c-31 0 -62 -5 -67 -10 l-11 -11 -27 11 c-29
11 -81 11 -156 1z"/>
<path d="M15739 10049 l-29 -31 0 -32 0 -33 23 -21 c13 -12 27 -22 31 -22 4 0
32 -7 62 -16 l54 -15 0 -19 c0 -11 -9 -24 -21 -30 l-20 -11 -30 6 c-16 4 -34
15 -39 26 l-11 19 -23 0 c-27 0 -37 -16 -26 -45 28 -74 145 -88 209 -24 l31
31 0 28 0 28 -31 31 -31 31 -23 0 c-12 0 -37 3 -54 6 l-31 7 0 22 0 23 16 6
c27 10 48 6 74 -14 14 -11 33 -20 43 -20 l17 0 0 30 0 30 -20 20 -20 20 -61 0
-61 0 -29 -31z"/>
<path d="M16306 10059 c-14 -11 -33 -34 -41 -49 l-15 -29 0 -58 0 -58 18 -34
17 -34 35 -19 35 -19 50 5 50 5 33 36 33 36 -12 15 c-16 19 -36 18 -66 -6
l-26 -20 -32 0 -32 0 -16 18 c-10 10 -17 24 -17 30 l0 12 85 0 85 0 21 21 20
20 -6 30 c-10 47 -31 80 -62 100 l-28 19 -51 0 -51 0 -27 -21z m129 -59 l30
-31 -12 -7 c-10 -6 -60 -7 -120 -3 -35 3 15 71 52 71 l21 0 29 -30z"/>
<path d="M16615 10071 l-40 -6 0 -145 0 -145 30 0 30 0 0 104 1 104 23 18 c28
23 44 24 61 3 l13 -15 -1 -97 c-1 -53 1 -102 5 -108 13 -17 40 -23 52 -11 l11
11 0 103 0 103 25 16 25 16 25 -6 25 -6 6 -26 c4 -15 4 -58 1 -98 -4 -39 -4
-81 -1 -94 l6 -22 29 0 29 0 0 129 0 128 -25 27 -24 26 -40 0 c-22 0 -52 -5
-66 -12 l-26 -12 -20 12 c-19 12 -84 14 -154 3z"/>
<path d="M17448 10072 c-24 -5 -23 -20 6 -105 13 -40 32 -97 41 -128 l18 -56
-6 -24 -6 -24 -31 -17 -30 -17 0 -21 0 -20 26 -10 26 -10 33 20 32 20 32 87
c18 49 50 133 71 188 l39 99 -11 13 c-33 40 -72 10 -102 -79 -12 -34 -26 -63
-32 -65 l-10 -3 -22 74 -21 74 -18 4 c-10 2 -26 2 -35 0z"/>
<path d="M1186 9324 c-3 -9 -6 -26 -6 -39 0 -12 -7 -28 -15 -35 -8 -7 -15 -20
-15 -30 0 -10 7 -23 15 -30 l15 -12 0 -104 0 -103 22 -21 c23 -21 36 -24 62
-14 l16 6 0 24 c0 14 -6 27 -14 30 l-14 6 -7 75 -8 75 22 28 c25 34 27 68 6
76 -8 4 -15 17 -15 29 0 43 -51 74 -64 39z"/>
<path d="M383 9263 l-32 -4 -26 -30 -25 -31 0 -37 0 -38 23 -21 23 -22 54 -10
c30 -6 59 -15 64 -20 l11 -11 -11 -17 c-6 -9 -24 -18 -40 -20 l-30 -3 -24 26
-23 25 -29 0 -28 0 0 -20 c0 -35 29 -68 75 -86 l43 -16 39 12 c21 7 48 18 60
26 l22 14 6 34 c13 66 -15 99 -103 121 l-47 12 0 13 c0 7 8 18 18 24 l17 11
31 -17 c57 -33 96 -13 70 36 -22 40 -72 57 -138 49z"/>
<path d="M2080 9261 c-126 -32 -131 -193 -6 -193 l35 0 16 -18 16 -17 -25 -17
c-14 -9 -36 -16 -49 -16 l-24 0 -26 30 c-31 34 -39 36 -61 14 -20 -19 -20 -28
-2 -62 l14 -27 46 -14 46 -13 46 13 47 14 28 35 29 35 0 25 c-1 44 -52 86
-111 92 l-34 3 0 15 c0 8 12 19 26 24 l26 9 30 -23 c51 -37 84 -15 69 45 l-6
23 -34 16 c-35 17 -54 18 -96 7z"/>
<path d="M637 9242 c-76 -47 -89 -209 -21 -273 l22 -21 59 -4 58 -5 33 20 c32
21 57 64 46 82 -10 17 -46 9 -76 -16 -44 -37 -108 -22 -108 26 l0 19 83 0 83
0 12 12 c7 7 12 30 12 53 l0 40 -18 28 c-10 15 -27 34 -38 42 l-19 14 -50 0
-50 0 -28 -17z m111 -58 c12 -8 22 -22 22 -30 l0 -14 -60 0 -60 0 0 14 c0 17
38 46 60 46 9 0 26 -7 38 -16z"/>
<path d="M923 9228 l-32 -33 -11 -47 -12 -48 6 -45 7 -45 25 -30 c14 -16 32
-30 40 -30 8 0 22 -5 32 -11 l19 -12 44 15 44 15 23 33 c13 19 22 43 20 55
l-3 20 -22 3 -23 3 -11 -25 c-6 -13 -24 -30 -39 -36 l-28 -12 -21 11 c-30 16
-51 51 -51 85 l0 29 26 34 25 33 29 0 c28 0 60 -22 60 -41 0 -6 12 -9 28 -7
l27 3 3 21 3 20 -36 37 -36 37 -53 0 -52 0 -31 -32z"/>
<path d="M1364 9241 c-12 -9 -32 -37 -44 -61 l-22 -44 5 -50 c10 -90 36 -127
103 -145 l41 -11 34 11 c67 23 99 75 99 161 l0 49 -19 38 c-11 21 -31 45 -45
54 l-25 17 -53 0 -53 -1 -21 -18z m121 -76 l25 -24 0 -39 0 -39 -21 -27 -20
-26 -28 0 -27 0 -22 20 -22 21 0 43 0 43 21 27 20 26 25 0 25 0 24 -25z"/>
<path d="M1625 9240 l-15 -17 0 -131 0 -132 25 -6 c14 -3 32 -4 40 0 l15 5 0
91 0 90 20 20 c11 11 26 20 33 20 8 0 22 9 33 21 l18 20 -11 17 -10 17 -67 1
-66 1 -15 -17z"/>
<path d="M3812 9238 c-5 -7 -13 -63 -17 -124 l-7 -112 11 -21 12 -21 23 0 24
0 6 16 c3 9 6 65 6 125 l0 110 -10 20 c-12 22 -33 25 -48 7z"/>
<path d="M3809 6323 l-14 -16 -3 -99 c-2 -55 -1 -114 2 -133 l6 -33 20 -5 20
-5 15 15 15 14 0 120 0 120 -10 20 c-13 23 -33 24 -51 2z"/>
<path d="M3796 5938 c-3 -13 -6 -68 -6 -124 l0 -100 13 -18 13 -18 25 4 24 3
0 135 0 135 -31 3 -31 3 -7 -23z"/>
<path d="M1929 5679 l-20 -20 3 -42 3 -42 -48 2 -48 3 -27 -14 c-39 -20 -58
-45 -69 -92 l-10 -42 8 -50 c9 -58 29 -93 63 -112 l24 -13 85 8 85 7 4 191 c5
207 3 223 -18 231 l-14 6 -21 -21z m-36 -181 l17 -13 6 -45 6 -45 -11 -28 -11
-27 -26 -10 -27 -11 -23 16 -23 15 -11 39 -10 38 12 34 c17 50 61 66 101 37z"/>
<path d="M1187 5683 c-3 -5 -4 -98 -3 -208 l1 -200 33 -3 32 -3 0 210 0 211
-29 0 c-17 0 -32 -3 -34 -7z"/>
<path d="M1305 5670 c-14 -44 36 -80 65 -45 l12 15 -6 25 -6 25 -30 0 -29 0
-6 -20z"/>
<path d="M3812 5588 l-12 -12 0 -68 c0 -37 -2 -68 -4 -68 -15 0 -103 34 -184
72 -23 11 -50 17 -58 14 l-16 -6 5 -23 c3 -12 9 -32 12 -44 l7 -23 -233 -2
-234 -3 0 -20 0 -20 233 -3 234 -2 -7 -18 c-4 -9 -9 -31 -12 -49 l-5 -31 33 7
c19 4 43 13 54 19 11 6 43 21 70 32 28 11 58 25 67 30 28 16 38 12 38 -15 l0
-25 26 -6 26 -7 7 12 c4 7 9 61 9 122 l2 110 -10 19 c-12 23 -30 26 -48 8z"/>
<path d="M688 5565 c-14 -8 -37 -32 -50 -52 l-23 -38 1 -66 0 -67 27 -35 26
-34 41 -11 40 -10 33 7 c49 12 76 32 88 69 l11 33 -12 14 c-18 22 -28 19 -57
-15 l-25 -30 -29 0 -29 0 -17 20 -17 20 -2 37 c-1 21 5 50 12 65 l14 26 31 7
31 7 33 -32 32 -31 17 16 c24 24 20 43 -18 81 l-34 34 -48 0 c-27 -1 -61 -7
-76 -15z"/>
<path d="M1521 5571 c-7 -5 -31 -6 -52 -4 l-38 5 -6 -33 c-3 -19 -5 -86 -3
-149 l3 -115 33 -3 32 -3 1 18 c1 10 1 50 -1 89 l-2 72 13 23 c16 31 28 39 62
39 l27 0 10 -26 c6 -15 9 -67 8 -118 l-3 -91 35 0 35 0 0 123 0 124 -33 29
-32 29 -38 0 c-20 0 -43 -4 -51 -9z"/>
<path d="M2120 5572 c-28 -12 -55 -36 -73 -64 l-17 -27 0 -65 0 -64 17 -30
c10 -17 29 -37 44 -46 l27 -16 52 0 52 0 34 34 c39 39 43 62 13 71 l-21 7 -22
-21 c-12 -11 -35 -23 -52 -27 l-29 -6 -28 22 c-15 12 -26 27 -24 34 l4 11 99
5 99 5 3 41 3 41 -21 36 -21 35 -33 16 c-35 16 -79 20 -106 8z m84 -63 c23
-11 40 -42 28 -53 -9 -10 -130 -7 -136 3 -24 38 54 74 108 50z"/>
<path d="M2356 5564 l-16 -15 0 -133 0 -134 16 -13 16 -13 16 11 17 10 0 79 0
79 13 31 13 31 37 9 37 9 3 27 3 27 -27 7 -28 7 -26 -10 -27 -10 -16 8 -15 9
-16 -16z"/>
<path d="M2777 5561 c-38 -25 -82 -87 -97 -138 l-13 -41 7 -35 c4 -20 14 -45
24 -57 l17 -21 43 -10 43 -9 38 10 38 10 37 36 37 36 -7 21 c-14 44 -39 42
-91 -6 l-33 -31 -27 10 -28 9 -3 30 c-4 41 22 101 53 121 l24 16 20 -7 c10 -3
26 -17 35 -30 27 -42 76 -27 76 23 l0 24 -29 29 -29 29 -54 -1 -53 0 -28 -18z"/>
<path d="M890 5547 c0 -14 7 -38 15 -53 8 -16 15 -37 15 -46 0 -9 4 -19 9 -22
5 -4 12 -25 16 -49 4 -23 12 -47 17 -54 26 -32 7 -96 -33 -108 l-20 -7 3 -31
3 -32 26 -3 27 -3 25 23 26 23 31 95 c17 52 35 103 41 112 5 10 9 23 9 29 0 6
6 25 14 42 39 88 39 107 1 107 -29 0 -36 -10 -65 -97 -33 -99 -34 -99 -77 32
l-19 60 -32 3 -32 3 0 -24z"/>
<path d="M1315 5558 c-7 -22 -12 -266 -6 -276 3 -5 16 -12 28 -16 l22 -7 8 18
c5 10 7 80 5 156 l-4 137 -24 0 c-14 0 -26 -6 -29 -12z"/>
<path d="M3805 5221 c-10 -17 -16 -215 -7 -246 l8 -30 24 -3 23 -4 8 14 c5 7
9 67 9 134 l0 120 -12 12 c-14 14 -44 16 -53 3z"/>
<path d="M3816 4867 l-19 -14 2 -118 2 -119 11 -13 c15 -19 36 -16 48 6 l10
20 0 106 0 106 -10 20 c-13 23 -20 24 -44 6z"/>
<path d="M768 2733 c-2 -10 -2 -105 0 -210 l4 -193 29 0 c16 0 29 3 30 8 5 33
8 372 4 390 l-5 22 -29 0 -29 0 -4 -17z"/>
<path d="M1220 2701 c-5 -11 -10 -31 -10 -45 0 -14 -4 -26 -10 -26 -15 0 -12
-48 5 -73 l14 -22 -2 -93 -2 -94 19 -14 c11 -8 33 -14 48 -14 l29 0 6 16 6 15
-22 23 -21 22 0 77 0 77 20 17 c11 10 20 25 20 35 0 9 -9 22 -20 28 l-20 11 0
27 c0 48 -40 70 -60 33z"/>
<path d="M1388 2713 c-18 -4 -33 -37 -24 -52 3 -4 -3 -19 -14 -31 -25 -29 -25
-36 1 -68 l21 -27 -2 -80 c-3 -103 -3 -101 16 -119 20 -20 68 -21 84 -1 l13
15 -27 25 -26 24 0 74 0 74 20 18 c11 10 20 26 20 36 0 10 -9 23 -20 29 l-20
11 0 33 0 34 -12 4 c-7 2 -21 3 -30 1z"/>
<path d="M515 2633 c-66 -6 -63 2 -64 -225 l-1 -199 15 -5 c8 -4 26 -3 40 0
l24 6 3 58 3 57 61 -3 62 -4 31 29 31 28 12 47 12 46 -13 55 -12 55 -26 28
-25 28 -52 1 c-28 2 -73 0 -101 -2z m114 -73 c10 -5 24 -23 31 -40 l13 -30 -6
-36 c-14 -88 -113 -91 -132 -4 -17 79 36 142 94 110z"/>
<path d="M955 2631 c-28 -12 -68 -69 -61 -87 8 -21 50 -17 71 6 l18 20 27 0
c14 0 35 -6 45 -14 l18 -13 -6 -17 -6 -16 -31 0 c-17 0 -54 -7 -81 -16 l-51
-17 -9 -24 c-15 -40 -10 -70 17 -102 l26 -31 48 0 49 0 15 15 c8 8 19 15 24
15 5 0 15 -7 22 -15 7 -8 23 -15 37 -15 l24 0 6 16 6 16 -17 28 -16 28 0 89 0
90 -24 22 -24 22 -53 5 c-30 2 -63 0 -74 -5z m110 -182 l7 -21 -21 -21 -21
-21 -35 0 c-88 0 -48 80 42 83 l22 1 6 -21z"/>
<path d="M1559 2617 l-34 -23 -19 -56 -20 -55 13 -55 12 -55 25 -24 25 -23 63
-4 63 -4 36 32 c21 18 37 41 37 51 l0 19 -27 6 -26 7 -12 -16 c-6 -9 -24 -21
-38 -26 l-27 -11 -23 9 c-13 5 -29 16 -37 26 l-14 17 15 9 14 10 77 -5 77 -5
16 22 c48 69 -28 177 -126 177 l-36 0 -34 -23z m125 -67 l18 -18 -6 -11 -7
-11 -49 0 c-26 0 -55 3 -64 6 l-15 6 15 23 c25 38 71 40 108 5z"/>
<path d="M1897 2633 c-4 -3 -21 -6 -39 -5 -18 0 -38 -4 -45 -10 l-13 -10 0
-139 0 -139 25 -6 25 -6 16 13 16 13 -6 73 -7 72 16 31 15 30 28 6 c31 8 42
20 42 50 0 28 -53 48 -73 27z"/>
<path d="M6434 2076 c-11 -29 2 -50 46 -73 100 -53 250 -200 250 -245 0 -8 7
-23 15 -34 l14 -19 1 -92 c0 -51 -3 -93 -8 -93 -4 0 -18 -24 -31 -52 l-24 -53
-63 -62 c-34 -35 -65 -63 -69 -63 -4 0 -24 -13 -45 -30 -21 -16 -45 -30 -53
-30 -8 0 -20 -7 -27 -15 -7 -8 -20 -15 -30 -15 -10 0 -23 -7 -30 -15 -7 -8
-21 -15 -31 -15 -10 0 -33 -6 -51 -14 -148 -62 -568 -80 -701 -30 -20 8 -48
14 -61 14 -13 0 -37 7 -52 15 -16 8 -36 15 -45 15 -9 0 -22 7 -29 15 l-13 16
22 15 22 16 -3 21 -3 22 -70 6 c-38 3 -105 9 -147 14 l-78 7 0 -20 0 -20 87
-106 c99 -121 96 -119 123 -66 l20 39 33 -6 c17 -4 38 -12 45 -20 7 -7 24 -13
36 -13 13 0 40 -7 59 -15 20 -8 52 -15 70 -15 19 0 51 -7 70 -15 l36 -15 168
0 168 0 40 11 c22 6 65 14 96 19 30 4 65 12 77 19 11 6 30 11 42 11 12 0 34 6
48 14 15 8 47 22 72 32 25 11 76 37 114 59 l70 40 65 66 66 65 32 65 c17 35
37 92 44 127 l12 62 -12 63 c-25 129 -102 240 -236 338 -90 67 -140 85 -151
55z"/>
<path d="M8235 1828 c-67 -38 -83 -92 -32 -111 l18 -7 21 25 22 25 33 0 34 0
5 -15 c4 -8 0 -22 -7 -31 l-13 -15 -50 2 -50 3 -28 -26 -28 -26 0 -35 c0 -20
4 -47 10 -62 l10 -26 37 -16 38 -15 53 18 53 17 11 -11 c17 -17 53 -15 68 3
l12 14 -16 32 -16 32 0 79 0 79 -15 28 -14 29 -32 11 c-41 14 -98 14 -124 -1z
m108 -192 c8 -21 -27 -48 -65 -49 l-33 -2 0 25 0 24 25 7 c42 12 68 10 73 -5z"/>
<path d="M8757 1829 c-9 -6 -26 -7 -37 -4 -11 3 -29 1 -40 -5 l-21 -11 3 -142
3 -142 30 0 30 0 5 108 5 108 15 10 c8 5 29 8 45 7 l30 -3 5 -110 c6 -134 22
-165 61 -119 l14 16 -3 89 -3 88 11 21 11 20 28 0 c16 0 33 -6 39 -13 l11 -13
3 -104 3 -103 18 -11 18 -11 15 19 14 20 0 100 c0 162 -17 196 -97 196 l-39 0
-23 -16 -23 -17 -28 17 c-32 18 -76 20 -103 5z"/>
<path d="M8490 1815 l-11 -13 3 -138 3 -139 30 0 30 0 5 98 5 99 24 19 c13 10
29 19 37 19 15 0 29 43 20 59 l-7 10 -64 -1 -65 -1 -10 -12z"/>
<path d="M6218 809 c-35 -20 -15 -69 29 -69 l22 0 11 19 c15 29 13 37 -15 49
-30 14 -26 14 -47 1z"/>
<path d="M5620 771 c-5 -11 -10 -28 -10 -39 0 -11 -7 -25 -15 -32 -21 -17 -19
-37 6 -68 l21 -27 -2 -75 c-1 -41 -2 -85 -1 -97 l1 -23 25 -16 26 -17 24 11
25 12 0 19 c0 10 -11 26 -25 35 l-25 16 0 74 0 74 25 16 c30 20 31 33 5 61
-12 12 -23 35 -26 50 -9 50 -34 62 -54 26z"/>
<path d="M6077 774 c-4 -4 -7 -16 -7 -27 0 -10 -8 -32 -17 -48 l-17 -29 17
-29 17 -29 0 -94 c0 -100 3 -109 38 -127 27 -14 58 -7 66 16 l7 16 -21 22 -20
21 0 79 0 79 22 23 21 23 -20 23 c-12 12 -23 36 -25 52 l-3 30 -25 3 c-14 2
-29 0 -33 -4z"/>
<path d="M6429 710 c-47 -13 -69 -30 -89 -70 l-20 -39 0 -53 0 -53 18 -35 c33
-67 100 -94 171 -69 l32 11 26 42 26 41 1 55 1 56 -18 40 c-26 58 -89 90 -148
74z m80 -96 l21 -27 0 -31 c-1 -85 -64 -126 -118 -76 l-22 21 0 49 0 49 26 20
c15 12 37 21 50 21 l23 0 20 -26z"/>
<path d="M6727 705 l-27 -16 -19 10 -19 11 -11 -14 -12 -14 -1 -137 -1 -136
12 -12 12 -12 17 11 17 11 5 96 5 95 19 21 c24 26 57 27 79 3 l17 -19 0 -100
0 -101 14 -11 15 -12 20 11 21 11 0 122 0 123 -27 33 -28 32 -40 5 -40 4 -28
-15z"/>
<path d="M5165 703 c-22 -3 -44 -9 -50 -14 l-9 -9 2 -136 c1 -75 4 -140 8
-145 8 -13 50 -11 62 4 l11 13 3 95 3 94 37 20 38 20 0 33 0 32 -32 -2 c-18
-1 -51 -3 -73 -5z"/>
<path d="M5358 699 c-15 -6 -38 -27 -50 -47 l-23 -37 0 -72 0 -72 21 -28 c11
-15 36 -36 55 -46 l34 -18 39 5 c47 5 86 32 105 71 l14 28 0 62 0 62 -18 37
-18 37 -28 14 c-32 17 -91 18 -131 4z m111 -86 c30 -38 34 -63 16 -105 l-15
-38 -26 -6 -25 -7 -24 11 c-13 6 -31 25 -40 42 l-16 31 11 35 c13 38 44 64 76
64 l23 0 20 -27z"/>
<path d="M5789 681 l-29 -29 0 -25 0 -25 17 -6 17 -7 19 25 19 26 28 0 c41 0
60 -10 60 -31 l0 -18 -42 -11 c-99 -24 -118 -32 -128 -50 -25 -47 -4 -109 45
-136 l34 -18 55 19 56 19 12 -12 c7 -7 22 -12 35 -12 l24 0 6 16 6 16 -17 28
-16 28 0 82 c0 117 -28 150 -125 150 l-47 0 -29 -29z m131 -169 c0 -11 -9 -27
-19 -36 l-19 -17 -33 3 -34 3 -3 18 c-2 10 2 24 8 32 l12 15 44 0 44 0 0 -18z"/>
<path d="M6220 685 l-12 -15 -2 -122 -2 -123 15 -17 c17 -22 25 -22 45 -2 l16
15 0 129 0 129 -19 11 c-25 13 -26 13 -41 -5z"/>
</g>
</svg>
