<svg xmlns="http://www.w3.org/2000/svg" viewBox="0 0 500 350" font-family="system-ui, -apple-system, sans-serif">
  <defs>
    <marker id="arr" markerWidth="10" markerHeight="7" refX="10" refY="3.5" orient="auto">
      <polygon points="0 0, 10 3.5, 0 7" fill="#374151"/>
    </marker>
  </defs>

  <rect width="500" height="350" fill="#f9fafb" rx="8"/>

  <text x="250" y="30" text-anchor="middle" font-size="17" font-weight="bold" fill="#111827">Token Bucket</text>

  <!-- Refill arrow -->
  <line x1="250" y1="50" x2="250" y2="90" stroke="#16a34a" stroke-width="2" marker-end="url(#arr)"/>
  <text x="250" y="68" text-anchor="end" font-size="12" font-weight="600" fill="#16a34a" dx="-15">refill r token/s</text>

  <!-- Bucket container -->
  <rect x="100" y="100" width="300" height="110" fill="#fef3c7" rx="10" stroke="#f59e0b" stroke-width="2"/>

  <!-- Filled tokens (6 green circles) -->
  <circle cx="140" cy="155" r="16" fill="#86efac" stroke="#16a34a" stroke-width="1.5"/>
  <text x="140" y="160" text-anchor="middle" font-size="14" fill="#166534">●</text>

  <circle cx="180" cy="155" r="16" fill="#86efac" stroke="#16a34a" stroke-width="1.5"/>
  <text x="180" y="160" text-anchor="middle" font-size="14" fill="#166534">●</text>

  <circle cx="220" cy="155" r="16" fill="#86efac" stroke="#16a34a" stroke-width="1.5"/>
  <text x="220" y="160" text-anchor="middle" font-size="14" fill="#166534">●</text>

  <circle cx="260" cy="155" r="16" fill="#86efac" stroke="#16a34a" stroke-width="1.5"/>
  <text x="260" y="160" text-anchor="middle" font-size="14" fill="#166534">●</text>

  <circle cx="300" cy="155" r="16" fill="#86efac" stroke="#16a34a" stroke-width="1.5"/>
  <text x="300" y="160" text-anchor="middle" font-size="14" fill="#166534">●</text>

  <circle cx="340" cy="155" r="16" fill="#86efac" stroke="#16a34a" stroke-width="1.5"/>
  <text x="340" y="160" text-anchor="middle" font-size="14" fill="#166534">●</text>

  <!-- Empty slots (6 gray circles) -->
  <circle cx="140" cy="190" r="16" fill="#f3f4f6" stroke="#d1d5db" stroke-width="1.5"/>
  <circle cx="180" cy="190" r="16" fill="#f3f4f6" stroke="#d1d5db" stroke-width="1.5"/>
  <circle cx="220" cy="190" r="16" fill="#f3f4f6" stroke="#d1d5db" stroke-width="1.5"/>
  <circle cx="260" cy="190" r="16" fill="#f3f4f6" stroke="#d1d5db" stroke-width="1.5"/>
  <circle cx="300" cy="190" r="16" fill="#f3f4f6" stroke="#d1d5db" stroke-width="1.5"/>
  <circle cx="340" cy="190" r="16" fill="#f3f4f6" stroke="#d1d5db" stroke-width="1.5"/>

  <!-- Capacity label -->
  <text x="420" y="150" font-size="11" fill="#92400e">capacity C</text>
  <text x="420" y="168" font-size="11" fill="#92400e">currently 6/12</text>

  <!-- Request drain arrow -->
  <line x1="250" y1="210" x2="250" y2="260" stroke="#dc2626" stroke-width="2" marker-end="url(#arr)"/>
  <text x="250" y="245" text-anchor="end" font-size="12" font-weight="600" fill="#dc2626" dx="-15">each request −1</text>

  <!-- Request box -->
  <rect x="180" y="270" width="140" height="36" fill="#dbeafe" rx="6" stroke="#93c5fd" stroke-width="1.5"/>
  <text x="250" y="293" text-anchor="middle" font-size="12" font-weight="600" fill="#1e40af">Request</text>

  <!-- Reject note -->
  <text x="250" y="330" text-anchor="middle" font-size="11" fill="#991b1b">No tokens → reject</text>
</svg>
