<svg xmlns="http://www.w3.org/2000/svg" viewBox="0 0 500 370" font-family="system-ui, -apple-system, sans-serif">
  <defs>
    <marker id="arr" markerWidth="10" markerHeight="7" refX="10" refY="3.5" orient="auto">
      <polygon points="0 0, 10 3.5, 0 7" fill="#374151"/>
    </marker>
    <marker id="arrGreen" markerWidth="10" markerHeight="7" refX="10" refY="3.5" orient="auto">
      <polygon points="0 0, 10 3.5, 0 7" fill="#16a34a"/>
    </marker>
  </defs>

  <rect width="500" height="370" fill="#f9fafb" rx="8"/>

  <text x="250" y="30" text-anchor="middle" font-size="17" font-weight="bold" fill="#111827">Leaky Bucket (Queue-based)</text>

  <!-- Incoming request -->
  <rect x="30" y="100" width="100" height="36" fill="#dbeafe" rx="6" stroke="#93c5fd" stroke-width="1.5"/>
  <text x="80" y="123" text-anchor="middle" font-size="12" font-weight="600" fill="#1e40af">request</text>

  <!-- Arrow into bucket -->
  <line x1="130" y1="118" x2="170" y2="118" stroke="#374151" stroke-width="1.5" marker-end="url(#arr)"/>

  <!-- Bucket / Queue container -->
  <rect x="180" y="55" width="240" height="130" fill="#fef3c7" rx="10" stroke="#f59e0b" stroke-width="2"/>
  <text x="300" y="80" text-anchor="middle" font-size="13" font-weight="600" fill="#92400e">Hàng đợi (buffer)</text>

  <!-- Filled slots (5 requests queued) -->
  <rect x="200" y="95" width="35" height="35" fill="#93c5fd" rx="4" stroke="#3b82f6" stroke-width="1.5"/>
  <text x="217" y="117" text-anchor="middle" font-size="10" fill="white" font-weight="600">▓</text>

  <rect x="242" y="95" width="35" height="35" fill="#93c5fd" rx="4" stroke="#3b82f6" stroke-width="1.5"/>
  <text x="259" y="117" text-anchor="middle" font-size="10" fill="white" font-weight="600">▓</text>

  <rect x="284" y="95" width="35" height="35" fill="#93c5fd" rx="4" stroke="#3b82f6" stroke-width="1.5"/>
  <text x="301" y="117" text-anchor="middle" font-size="10" fill="white" font-weight="600">▓</text>

  <rect x="326" y="95" width="35" height="35" fill="#93c5fd" rx="4" stroke="#3b82f6" stroke-width="1.5"/>
  <text x="343" y="117" text-anchor="middle" font-size="10" fill="white" font-weight="600">▓</text>

  <rect x="368" y="95" width="35" height="35" fill="#93c5fd" rx="4" stroke="#3b82f6" stroke-width="1.5"/>
  <text x="385" y="117" text-anchor="middle" font-size="10" fill="white" font-weight="600">▓</text>

  <!-- Empty slots (3) -->
  <rect x="200" y="140" width="35" height="35" fill="#f3f4f6" rx="4" stroke="#d1d5db" stroke-width="1"/>
  <rect x="242" y="140" width="35" height="35" fill="#f3f4f6" rx="4" stroke="#d1d5db" stroke-width="1"/>
  <rect x="284" y="140" width="35" height="35" fill="#f3f4f6" rx="4" stroke="#d1d5db" stroke-width="1"/>

  <!-- Full note (outside bucket on right) -->
  <text x="430" y="148" font-size="10" font-weight="600" fill="#991b1b">Đầy</text>
  <text x="430" y="165" font-size="10" font-weight="600" fill="#991b1b">→ reject</text>

  <!-- Output arrow (fixed rate) -->
  <line x1="300" y1="185" x2="300" y2="240" stroke="#16a34a" stroke-width="2" marker-end="url(#arrGreen)"/>

  <!-- Rate label -->
  <rect x="320" y="200" width="140" height="24" fill="#dcfce7" rx="4" stroke="#86efac" stroke-width="1"/>
  <text x="390" y="217" text-anchor="middle" font-size="11" font-weight="600" fill="#166534">rate r/s cố định</text>

  <!-- Process box -->
  <rect x="220" y="250" width="160" height="40" fill="#dcfce7" rx="6" stroke="#16a34a" stroke-width="1.5"/>
  <text x="300" y="275" text-anchor="middle" font-size="13" font-weight="600" fill="#14532d">process</text>

  <!-- Key difference note -->
  <rect x="50" y="310" width="400" height="40" fill="white" rx="6" stroke="#e5e7eb" stroke-width="1"/>
  <text x="250" y="335" text-anchor="middle" font-size="11" fill="#374151">Output luôn mượt ở đúng tốc độ r — không cho burst đi qua</text>
</svg>
