<svg xmlns="http://www.w3.org/2000/svg" viewBox="0 0 900 360" font-family="system-ui, -apple-system, sans-serif">
  <defs>
    <marker id="arr" markerWidth="10" markerHeight="7" refX="10" refY="3.5" orient="auto">
      <polygon points="0 0, 10 3.5, 0 7" fill="#374151"/>
    </marker>
    <marker id="arrGreen" markerWidth="10" markerHeight="7" refX="10" refY="3.5" orient="auto">
      <polygon points="0 0, 10 3.5, 0 7" fill="#16a34a"/>
    </marker>
  </defs>

  <rect width="900" height="360" fill="#f9fafb" rx="8"/>

  <text x="450" y="32" text-anchor="middle" font-size="17" font-weight="bold" fill="#111827">Multi-AZ: Synchronous Replication</text>

  <!-- App box -->
  <rect x="370" y="55" width="160" height="44" fill="#dbeafe" rx="6" stroke="#93c5fd" stroke-width="1.5"/>
  <text x="450" y="82" text-anchor="middle" font-size="13" font-weight="600" fill="#1e40af">App / EC2</text>

  <!-- Single diagonal arrow App -> Primary -->
  <line x1="430" y1="99" x2="280" y2="195" stroke="#374151" stroke-width="1.5" marker-end="url(#arr)"/>

  <!-- DNS endpoint label - to the right of the arrow, no overlap -->
  <text x="540" y="125" font-size="11" font-style="italic" fill="#6b7280">via DNS endpoint duy nhất</text>
  <text x="540" y="143" font-size="10" fill="#9ca3af">(không đổi sau failover)</text>

  <!-- AZ-A region -->
  <rect x="40" y="160" width="380" height="160" fill="#f0fdf4" rx="8" stroke="#86efac" stroke-width="1" stroke-dasharray="6"/>
  <text x="230" y="185" text-anchor="middle" font-size="11" font-weight="600" fill="#16a34a">Availability Zone A</text>

  <!-- Primary box -->
  <rect x="80" y="200" width="300" height="80" fill="#e0e7ff" rx="8" stroke="#818cf8" stroke-width="2"/>
  <text x="230" y="230" text-anchor="middle" font-size="15" font-weight="bold" fill="#3730a3">Primary (AZ-A)</text>
  <text x="230" y="258" text-anchor="middle" font-size="12" fill="#4338ca">read + write</text>

  <!-- AZ-B region -->
  <rect x="480" y="160" width="380" height="160" fill="#fefce8" rx="8" stroke="#fde68a" stroke-width="1" stroke-dasharray="6"/>
  <text x="670" y="185" text-anchor="middle" font-size="11" font-weight="600" fill="#92400e">Availability Zone B</text>

  <!-- Standby box -->
  <rect x="520" y="200" width="300" height="80" fill="#f5f5f4" rx="8" stroke="#a8a29e" stroke-width="2"/>
  <text x="670" y="230" text-anchor="middle" font-size="15" font-weight="bold" fill="#44403c">Standby (AZ-B)</text>
  <text x="670" y="258" text-anchor="middle" font-size="12" fill="#78716c">KHÔNG phục vụ traffic</text>

  <!-- Sync replication arrow -->
  <line x1="380" y1="240" x2="510" y2="240" stroke="#16a34a" stroke-width="2" marker-end="url(#arrGreen)"/>
  <rect x="395" y="220" width="120" height="20" fill="#dcfce7" rx="3" stroke="#86efac" stroke-width="1"/>
  <text x="455" y="234" text-anchor="middle" font-size="10" font-weight="700" fill="#166534">sync replication</text>
</svg>
