<svg xmlns="http://www.w3.org/2000/svg" viewBox="0 0 900 360" font-family="system-ui, -apple-system, sans-serif">
  <defs>
    <marker id="arr" markerWidth="10" markerHeight="7" refX="10" refY="3.5" orient="auto">
      <polygon points="0 0, 10 3.5, 0 7" fill="#374151"/>
    </marker>
    <marker id="arrGreen" markerWidth="10" markerHeight="7" refX="10" refY="3.5" orient="auto">
      <polygon points="0 0, 10 3.5, 0 7" fill="#16a34a"/>
    </marker>
  </defs>

  <rect width="900" height="360" fill="#f9fafb" rx="8"/>

  <text x="450" y="32" text-anchor="middle" font-size="17" font-weight="bold" fill="#111827">Write Latency: Single AZ vs Multi-AZ</text>

  <!-- Row 1: Without Multi-AZ -->
  <rect x="30" y="60" width="840" height="110" fill="#f0fdf4" rx="8" stroke="#86efac" stroke-width="1.5"/>
  <text x="50" y="85" font-size="13" font-weight="600" fill="#166534">Without Multi-AZ</text>
  <rect x="780" y="68" width="80" height="22" fill="#dcfce7" rx="3" stroke="#86efac" stroke-width="1"/>
  <text x="820" y="83" text-anchor="middle" font-size="11" font-weight="700" fill="#166534">1 hop</text>

  <!-- Client -->
  <rect x="60" y="105" width="120" height="46" fill="#dbeafe" rx="6" stroke="#93c5fd" stroke-width="1.5"/>
  <text x="120" y="133" text-anchor="middle" font-size="13" font-weight="600" fill="#1e40af">Client</text>

  <line x1="180" y1="128" x2="320" y2="128" stroke="#374151" stroke-width="1.5" marker-end="url(#arr)"/>
  <text x="250" y="120" text-anchor="middle" font-size="10" fill="#374151">WRITE</text>

  <!-- Primary -->
  <rect x="330" y="105" width="160" height="46" fill="#e0e7ff" rx="6" stroke="#818cf8" stroke-width="1.5"/>
  <text x="410" y="133" text-anchor="middle" font-size="13" font-weight="600" fill="#3730a3">Primary</text>

  <line x1="490" y1="128" x2="630" y2="128" stroke="#16a34a" stroke-width="1.5" marker-end="url(#arrGreen)"/>
  <text x="560" y="120" text-anchor="middle" font-size="10" font-weight="700" fill="#16a34a">OK</text>

  <!-- Result -->
  <rect x="640" y="105" width="120" height="46" fill="#dcfce7" rx="6" stroke="#86efac" stroke-width="1.5"/>
  <text x="700" y="133" text-anchor="middle" font-size="12" font-weight="600" fill="#166534">Done</text>

  <!-- Row 2: With Multi-AZ -->
  <rect x="30" y="195" width="840" height="135" fill="#fef3c7" rx="8" stroke="#fbbf24" stroke-width="1.5"/>
  <text x="50" y="220" font-size="13" font-weight="600" fill="#92400e">With Multi-AZ</text>
  <rect x="780" y="203" width="80" height="22" fill="#fed7aa" rx="3" stroke="#fb923c" stroke-width="1"/>
  <text x="820" y="218" text-anchor="middle" font-size="11" font-weight="700" fill="#9a3412">3 hop</text>

  <!-- Client -->
  <rect x="60" y="245" width="100" height="46" fill="#dbeafe" rx="6" stroke="#93c5fd" stroke-width="1.5"/>
  <text x="110" y="273" text-anchor="middle" font-size="13" font-weight="600" fill="#1e40af">Client</text>

  <line x1="160" y1="268" x2="270" y2="268" stroke="#374151" stroke-width="1.5" marker-end="url(#arr)"/>
  <text x="215" y="260" text-anchor="middle" font-size="10" fill="#374151">WRITE</text>
  <text x="215" y="288" text-anchor="middle" font-size="9" font-weight="700" fill="#dc2626">hop 1</text>

  <!-- Primary -->
  <rect x="280" y="245" width="130" height="46" fill="#e0e7ff" rx="6" stroke="#818cf8" stroke-width="1.5"/>
  <text x="345" y="273" text-anchor="middle" font-size="13" font-weight="600" fill="#3730a3">Primary</text>

  <line x1="410" y1="268" x2="520" y2="268" stroke="#374151" stroke-width="1.5" marker-end="url(#arr)"/>
  <text x="465" y="260" text-anchor="middle" font-size="10" fill="#374151">replicate</text>
  <text x="465" y="288" text-anchor="middle" font-size="9" font-weight="700" fill="#dc2626">hop 2</text>

  <!-- Standby -->
  <rect x="530" y="245" width="130" height="46" fill="#f5f5f4" rx="6" stroke="#a8a29e" stroke-width="1.5"/>
  <text x="595" y="273" text-anchor="middle" font-size="13" font-weight="600" fill="#44403c">Standby</text>

  <line x1="660" y1="268" x2="770" y2="268" stroke="#16a34a" stroke-width="1.5" marker-end="url(#arrGreen)"/>
  <text x="715" y="260" text-anchor="middle" font-size="10" font-weight="700" fill="#16a34a">ack → OK</text>
  <text x="715" y="288" text-anchor="middle" font-size="9" font-weight="700" fill="#dc2626">hop 3</text>

  <!-- Result -->
  <rect x="780" y="245" width="80" height="46" fill="#dcfce7" rx="6" stroke="#86efac" stroke-width="1.5"/>
  <text x="820" y="273" text-anchor="middle" font-size="12" font-weight="600" fill="#166534">Done</text>

  <!-- Bottom note -->
  <text x="450" y="350" text-anchor="middle" font-size="11" font-style="italic" fill="#6b7280">Trade-off: adds ~1-3ms write latency — for zero data loss when primary fails</text>
</svg>
