<svg xmlns="http://www.w3.org/2000/svg" viewBox="0 0 800 400" font-family="system-ui, -apple-system, sans-serif">
  <defs>
    <marker id="arrow" markerWidth="10" markerHeight="7" refX="10" refY="3.5" orient="auto">
      <polygon points="0 0, 10 3.5, 0 7" fill="#374151"/>
    </marker>
  </defs>
  <rect width="800" height="400" fill="#f9fafb" rx="8"/>
  <text x="400" y="35" text-anchor="middle" font-size="18" font-weight="700" fill="#1e40af">Route 53 vs ALB: Hoạt Động Ở Tầng Nào?</text>
  <rect x="40" y="160" width="120" height="80" rx="8" fill="#e5e7eb" stroke="#374151" stroke-width="1.5"/>
  <text x="100" y="195" text-anchor="middle" font-size="14" font-weight="600" fill="#374151">Client</text>
  <text x="100" y="215" text-anchor="middle" font-size="11" fill="#6b7280">Trình duyệt</text>
  <line x1="160" y1="200" x2="240" y2="120" stroke="#374151" stroke-width="1.5" marker-end="url(#arrow)"/>
  <text x="185" y="145" font-size="10" fill="#6b7280" transform="rotate(-25 185 145)">① DNS Query</text>
  <rect x="240" y="75" width="200" height="80" rx="8" fill="#dbeafe" stroke="#1d4ed8" stroke-width="2"/>
  <text x="340" y="105" text-anchor="middle" font-size="14" font-weight="700" fill="#1d4ed8">Route 53</text>
  <text x="340" y="125" text-anchor="middle" font-size="12" fill="#1e40af">DNS Resolution</text>
  <text x="340" y="143" text-anchor="middle" font-size="10" fill="#1e40af">Layer 3 (Network)</text>
  <rect x="455" y="80" width="130" height="30" rx="6" fill="#fef3c7" stroke="#fbbf24" stroke-width="1"/>
  <text x="520" y="100" text-anchor="middle" font-size="10" font-weight="600" fill="#92400e">TRƯỚC kết nối</text>
  <line x1="340" y1="155" x2="340" y2="195" stroke="#374151" stroke-width="1.5" stroke-dasharray="6 3"/>
  <text x="355" y="180" font-size="10" fill="#6b7280">② TCP Connection</text>
  <line x1="160" y1="200" x2="240" y2="240" stroke="#374151" stroke-width="1.5" marker-end="url(#arrow)"/>
  <text x="185" y="235" font-size="10" fill="#6b7280" transform="rotate(15 185 235)">③ HTTP Request</text>
  <rect x="240" y="200" width="200" height="80" rx="8" fill="#e0e7ff" stroke="#818cf8" stroke-width="2"/>
  <text x="340" y="230" text-anchor="middle" font-size="14" font-weight="700" fill="#3730a3">ALB</text>
  <text x="340" y="250" text-anchor="middle" font-size="12" fill="#3730a3">HTTP Request Routing</text>
  <text x="340" y="268" text-anchor="middle" font-size="10" fill="#3730a3">Layer 7 (Application)</text>
  <rect x="455" y="210" width="130" height="30" rx="6" fill="#fef3c7" stroke="#fbbf24" stroke-width="1"/>
  <text x="520" y="230" text-anchor="middle" font-size="10" font-weight="600" fill="#92400e">SAU kết nối</text>
  <line x1="440" y1="240" x2="620" y2="160" stroke="#374151" stroke-width="1.5" marker-end="url(#arrow)"/>
  <line x1="440" y1="240" x2="620" y2="280" stroke="#374151" stroke-width="1.5" marker-end="url(#arrow)"/>
  <rect x="620" y="130" width="140" height="55" rx="8" fill="#dbeafe" stroke="#1d4ed8" stroke-width="1.5"/>
  <text x="690" y="155" text-anchor="middle" font-size="12" font-weight="600" fill="#1d4ed8">Target Group A</text>
  <text x="690" y="173" text-anchor="middle" font-size="10" fill="#1e40af">EC2 Instances</text>
  <rect x="620" y="255" width="140" height="55" rx="8" fill="#e0e7ff" stroke="#818cf8" stroke-width="1.5"/>
  <text x="690" y="280" text-anchor="middle" font-size="12" font-weight="600" fill="#3730a3">Target Group B</text>
  <text x="690" y="298" text-anchor="middle" font-size="10" fill="#3730a3">ECS Tasks</text>
  <rect x="100" y="340" width="600" height="40" rx="8" fill="#fef3c7" stroke="#fbbf24" stroke-width="1.5"/>
  <text x="400" y="365" text-anchor="middle" font-size="13" font-weight="600" fill="#92400e">Route 53 quyết định TRƯỚC KHI kết nối — ALB quyết định SAU KHI kết nối</text>
</svg>