<svg xmlns="http://www.w3.org/2000/svg" viewBox="0 0 800 450" font-family="system-ui, -apple-system, sans-serif">
  <defs>
    <marker id="arrow" markerWidth="10" markerHeight="7" refX="10" refY="3.5" orient="auto">
      <polygon points="0 0, 10 3.5, 0 7" fill="#374151"/>
    </marker>
  </defs>
  <rect width="800" height="450" fill="#f9fafb" rx="8"/>
  <text x="400" y="30" text-anchor="middle" font-size="18" font-weight="bold" fill="#1e40af">Kiến Trúc Kết Hợp: Route 53 + ALB</text>
  <rect x="50" y="48" width="700" height="30" fill="#dbeafe" rx="4"/>
  <text x="400" y="68" text-anchor="middle" font-size="12" font-weight="600" fill="#1e40af">Tầng Global (DNS)</text>
  <rect x="250" y="90" width="300" height="55" fill="#dbeafe" stroke="#1d4ed8" stroke-width="2" rx="8"/>
  <text x="400" y="113" text-anchor="middle" font-size="16" font-weight="bold" fill="#1e40af">Route 53</text>
  <text x="400" y="133" text-anchor="middle" font-size="11" fill="#1e40af">Latency-based Routing</text>
  <rect x="50" y="185" width="700" height="30" fill="#e0e7ff" rx="4"/>
  <text x="400" y="205" text-anchor="middle" font-size="12" font-weight="600" fill="#3730a3">Tầng Regional (HTTP)</text>
  <line x1="310" y1="145" x2="140" y2="230" stroke="#374151" stroke-width="2" marker-end="url(#arrow)"/>
  <line x1="400" y1="145" x2="400" y2="230" stroke="#374151" stroke-width="2" marker-end="url(#arrow)"/>
  <line x1="490" y1="145" x2="660" y2="230" stroke="#374151" stroke-width="2" marker-end="url(#arrow)"/>
  <g transform="translate(30, 230)">
    <rect x="0" y="0" width="220" height="190" fill="white" stroke="#e5e7eb" stroke-width="1" rx="8" stroke-dasharray="6 3"/>
    <text x="110" y="22" text-anchor="middle" font-size="12" font-weight="bold" fill="#374151">us-east-1</text>
    <rect x="40" y="35" width="140" height="38" fill="#e0e7ff" stroke="#818cf8" stroke-width="2" rx="6"/>
    <text x="110" y="59" text-anchor="middle" font-size="13" font-weight="bold" fill="#3730a3">ALB</text>
    <line x1="110" y1="73" x2="110" y2="95" stroke="#374151" stroke-width="1.5" marker-end="url(#arrow)"/>
    <rect x="25" y="100" width="170" height="35" fill="#fef3c7" stroke="#fbbf24" stroke-width="1.5" rx="6"/>
    <text x="110" y="122" text-anchor="middle" font-size="11" font-weight="600" fill="#92400e">Target Group</text>
    <line x1="75" y1="135" x2="75" y2="155" stroke="#374151" stroke-width="1.5" marker-end="url(#arrow)"/>
    <line x1="145" y1="135" x2="145" y2="155" stroke="#374151" stroke-width="1.5" marker-end="url(#arrow)"/>
    <rect x="45" y="158" width="50" height="25" fill="#dcfce7" stroke="#16a34a" stroke-width="1.5" rx="4"/>
    <text x="70" y="175" text-anchor="middle" font-size="9" fill="#16a34a" font-weight="600">EC2</text>
    <rect x="115" y="158" width="50" height="25" fill="#dcfce7" stroke="#16a34a" stroke-width="1.5" rx="4"/>
    <text x="140" y="175" text-anchor="middle" font-size="9" fill="#16a34a" font-weight="600">EC2</text>
  </g>
  <g transform="translate(290, 230)">
    <rect x="0" y="0" width="220" height="190" fill="white" stroke="#e5e7eb" stroke-width="1" rx="8" stroke-dasharray="6 3"/>
    <text x="110" y="22" text-anchor="middle" font-size="12" font-weight="bold" fill="#374151">eu-west-1</text>
    <rect x="40" y="35" width="140" height="38" fill="#e0e7ff" stroke="#818cf8" stroke-width="2" rx="6"/>
    <text x="110" y="59" text-anchor="middle" font-size="13" font-weight="bold" fill="#3730a3">ALB</text>
    <line x1="110" y1="73" x2="110" y2="95" stroke="#374151" stroke-width="1.5" marker-end="url(#arrow)"/>
    <rect x="25" y="100" width="170" height="35" fill="#fef3c7" stroke="#fbbf24" stroke-width="1.5" rx="6"/>
    <text x="110" y="122" text-anchor="middle" font-size="11" font-weight="600" fill="#92400e">Target Group</text>
    <line x1="75" y1="135" x2="75" y2="155" stroke="#374151" stroke-width="1.5" marker-end="url(#arrow)"/>
    <line x1="145" y1="135" x2="145" y2="155" stroke="#374151" stroke-width="1.5" marker-end="url(#arrow)"/>
    <rect x="45" y="158" width="50" height="25" fill="#dcfce7" stroke="#16a34a" stroke-width="1.5" rx="4"/>
    <text x="70" y="175" text-anchor="middle" font-size="9" fill="#16a34a" font-weight="600">EC2</text>
    <rect x="115" y="158" width="50" height="25" fill="#dcfce7" stroke="#16a34a" stroke-width="1.5" rx="4"/>
    <text x="140" y="175" text-anchor="middle" font-size="9" fill="#16a34a" font-weight="600">EC2</text>
  </g>
  <g transform="translate(550, 230)">
    <rect x="0" y="0" width="220" height="190" fill="white" stroke="#e5e7eb" stroke-width="1" rx="8" stroke-dasharray="6 3"/>
    <text x="110" y="22" text-anchor="middle" font-size="12" font-weight="bold" fill="#374151">ap-southeast-1</text>
    <rect x="40" y="35" width="140" height="38" fill="#e0e7ff" stroke="#818cf8" stroke-width="2" rx="6"/>
    <text x="110" y="59" text-anchor="middle" font-size="13" font-weight="bold" fill="#3730a3">ALB</text>
    <line x1="110" y1="73" x2="110" y2="95" stroke="#374151" stroke-width="1.5" marker-end="url(#arrow)"/>
    <rect x="25" y="100" width="170" height="35" fill="#fef3c7" stroke="#fbbf24" stroke-width="1.5" rx="6"/>
    <text x="110" y="122" text-anchor="middle" font-size="11" font-weight="600" fill="#92400e">Target Group</text>
    <line x1="75" y1="135" x2="75" y2="155" stroke="#374151" stroke-width="1.5" marker-end="url(#arrow)"/>
    <line x1="145" y1="135" x2="145" y2="155" stroke="#374151" stroke-width="1.5" marker-end="url(#arrow)"/>
    <rect x="45" y="158" width="50" height="25" fill="#dcfce7" stroke="#16a34a" stroke-width="1.5" rx="4"/>
    <text x="70" y="175" text-anchor="middle" font-size="9" fill="#16a34a" font-weight="600">EC2</text>
    <rect x="115" y="158" width="50" height="25" fill="#dcfce7" stroke="#16a34a" stroke-width="1.5" rx="4"/>
    <text x="140" y="175" text-anchor="middle" font-size="9" fill="#16a34a" font-weight="600">EC2</text>
  </g>
</svg>