<svg xmlns="http://www.w3.org/2000/svg" viewBox="0 0 800 350" font-family="system-ui, -apple-system, sans-serif">
  <defs>
    <marker id="arrow" markerWidth="8" markerHeight="5" refX="8" refY="2.5" orient="auto">
      <polygon points="0 0, 8 2.5, 0 5" fill="#374151"/>
    </marker>
    <marker id="arrow-blue" markerWidth="8" markerHeight="5" refX="8" refY="2.5" orient="auto">
      <polygon points="0 0, 8 2.5, 0 5" fill="#1d4ed8"/>
    </marker>
    <marker id="arrow-green" markerWidth="8" markerHeight="5" refX="8" refY="2.5" orient="auto">
      <polygon points="0 0, 8 2.5, 0 5" fill="#16a34a"/>
    </marker>
  </defs>
  <rect width="800" height="350" fill="#f9fafb" rx="8"/>
  <text x="400" y="35" text-anchor="middle" font-size="17" font-weight="bold" fill="#111827">Weighted Routing: Chia Traffic Theo Tỷ Lệ</text>

  <text x="80" y="75" text-anchor="middle" font-size="12" font-weight="600" fill="#374151">DNS Queries</text>

  <circle cx="80" cy="110" r="16" fill="#dbeafe" stroke="#1d4ed8" stroke-width="1.5"/>
  <text x="80" y="115" text-anchor="middle" font-size="10" font-weight="bold" fill="#1e40af">req</text>
  <circle cx="80" cy="150" r="16" fill="#dbeafe" stroke="#1d4ed8" stroke-width="1.5"/>
  <text x="80" y="155" text-anchor="middle" font-size="10" font-weight="bold" fill="#1e40af">req</text>
  <circle cx="80" cy="190" r="16" fill="#dbeafe" stroke="#1d4ed8" stroke-width="1.5"/>
  <text x="80" y="195" text-anchor="middle" font-size="10" font-weight="bold" fill="#1e40af">req</text>
  <circle cx="80" cy="230" r="16" fill="#dbeafe" stroke="#1d4ed8" stroke-width="1.5"/>
  <text x="80" y="235" text-anchor="middle" font-size="10" font-weight="bold" fill="#1e40af">req</text>
  <circle cx="80" cy="270" r="16" fill="#dbeafe" stroke="#1d4ed8" stroke-width="1.5"/>
  <text x="80" y="275" text-anchor="middle" font-size="10" font-weight="bold" fill="#1e40af">req</text>

  <line x1="96" y1="110" x2="225" y2="170" stroke="#374151" stroke-width="1" marker-end="url(#arrow)"/>
  <line x1="96" y1="150" x2="225" y2="180" stroke="#374151" stroke-width="1" marker-end="url(#arrow)"/>
  <line x1="96" y1="190" x2="225" y2="190" stroke="#374151" stroke-width="1" marker-end="url(#arrow)"/>
  <line x1="96" y1="230" x2="225" y2="200" stroke="#374151" stroke-width="1" marker-end="url(#arrow)"/>
  <line x1="96" y1="270" x2="225" y2="210" stroke="#374151" stroke-width="1" marker-end="url(#arrow)"/>

  <rect x="230" y="120" width="220" height="150" rx="8" fill="#dbeafe" stroke="#1d4ed8" stroke-width="2"/>
  <text x="340" y="175" text-anchor="middle" font-size="18" font-weight="bold" fill="#1d4ed8">Route 53</text>
  <text x="340" y="198" text-anchor="middle" font-size="12" fill="#1e40af">Weighted Routing Policy</text>
  <text x="340" y="218" text-anchor="middle" font-size="11" fill="#1e40af">Phân phối theo trọng số</text>
  <text x="340" y="248" text-anchor="middle" font-size="10" fill="#1e40af">Weight 80 : Weight 20</text>

  <line x1="450" y1="165" x2="560" y2="135" stroke="#1d4ed8" stroke-width="3" marker-end="url(#arrow-blue)"/>
  <rect x="480" y="128" width="45" height="20" rx="4" fill="#dbeafe" stroke="#1d4ed8" stroke-width="1"/>
  <text x="502" y="142" text-anchor="middle" font-size="11" font-weight="bold" fill="#1d4ed8">80%</text>

  <line x1="450" y1="225" x2="560" y2="245" stroke="#16a34a" stroke-width="1.5" marker-end="url(#arrow-green)"/>
  <rect x="480" y="235" width="45" height="20" rx="4" fill="#dcfce7" stroke="#16a34a" stroke-width="1"/>
  <text x="502" y="249" text-anchor="middle" font-size="11" font-weight="bold" fill="#16a34a">20%</text>

  <rect x="570" y="100" width="190" height="75" rx="8" fill="#e0e7ff" stroke="#818cf8" stroke-width="1.5"/>
  <text x="665" y="130" text-anchor="middle" font-size="14" font-weight="bold" fill="#3730a3">Production v1</text>
  <text x="665" y="150" text-anchor="middle" font-size="11" fill="#3730a3">us-east-1</text>
  <text x="665" y="167" text-anchor="middle" font-size="10" fill="#6b7280">Stable release</text>

  <rect x="570" y="210" width="190" height="75" rx="8" fill="#dcfce7" stroke="#16a34a" stroke-width="1.5"/>
  <text x="665" y="240" text-anchor="middle" font-size="14" font-weight="bold" fill="#16a34a">Canary v2</text>
  <text x="665" y="260" text-anchor="middle" font-size="11" fill="#16a34a">us-east-1</text>
  <text x="665" y="277" text-anchor="middle" font-size="10" fill="#6b7280">New release</text>

  <rect x="175" y="305" width="450" height="30" rx="6" fill="#fef3c7" stroke="#fbbf24" stroke-width="1"/>
  <text x="400" y="325" text-anchor="middle" font-size="12" font-weight="600" fill="#92400e">Weight 80 + Weight 20 = 80% và 20% traffic</text>
</svg>