<svg xmlns="http://www.w3.org/2000/svg" viewBox="0 0 800 280" font-family="system-ui, -apple-system, sans-serif">
  <rect width="800" height="280" fill="#f9fafb" rx="8"/>

  <text x="400" y="32" text-anchor="middle" font-size="17" font-weight="bold" fill="#111827">Listpack — Khối bộ nhớ liên tục cho small sorted sets</text>

  <!-- Memory bar -->
  <text x="60" y="78" font-size="12" font-weight="600" fill="#6b7280">Bộ nhớ:</text>

  <!-- Header -->
  <rect x="60" y="90" width="60" height="60" fill="#fef3c7" stroke="#fbbf24" stroke-width="1.5"/>
  <text x="90" y="115" text-anchor="middle" font-size="11" font-weight="600" fill="#92400e">HDR</text>
  <text x="90" y="132" text-anchor="middle" font-size="10" fill="#78350f">6B</text>

  <!-- alice -->
  <rect x="120" y="90" width="80" height="60" fill="#dbeafe" stroke="#60a5fa"/>
  <text x="160" y="115" text-anchor="middle" font-size="12" font-weight="600" fill="#1e40af">alice</text>
  <text x="160" y="132" text-anchor="middle" font-size="10" fill="#1e3a8a">member</text>

  <!-- 1500 -->
  <rect x="200" y="90" width="80" height="60" fill="#fce7f3" stroke="#f472b6"/>
  <text x="240" y="115" text-anchor="middle" font-size="12" font-weight="600" fill="#be185d">1500</text>
  <text x="240" y="132" text-anchor="middle" font-size="10" fill="#9d174d">score</text>

  <!-- bob -->
  <rect x="280" y="90" width="80" height="60" fill="#dbeafe" stroke="#60a5fa"/>
  <text x="320" y="115" text-anchor="middle" font-size="12" font-weight="600" fill="#1e40af">bob</text>
  <text x="320" y="132" text-anchor="middle" font-size="10" fill="#1e3a8a">member</text>

  <!-- 2300 -->
  <rect x="360" y="90" width="80" height="60" fill="#fce7f3" stroke="#f472b6"/>
  <text x="400" y="115" text-anchor="middle" font-size="12" font-weight="600" fill="#be185d">2300</text>
  <text x="400" y="132" text-anchor="middle" font-size="10" fill="#9d174d">score</text>

  <!-- carol -->
  <rect x="440" y="90" width="80" height="60" fill="#dbeafe" stroke="#60a5fa"/>
  <text x="480" y="115" text-anchor="middle" font-size="12" font-weight="600" fill="#1e40af">carol</text>
  <text x="480" y="132" text-anchor="middle" font-size="10" fill="#1e3a8a">member</text>

  <!-- 1800 -->
  <rect x="520" y="90" width="80" height="60" fill="#fce7f3" stroke="#f472b6"/>
  <text x="560" y="115" text-anchor="middle" font-size="12" font-weight="600" fill="#be185d">1800</text>
  <text x="560" y="132" text-anchor="middle" font-size="10" fill="#9d174d">score</text>

  <!-- END -->
  <rect x="600" y="90" width="60" height="60" fill="#f3f4f6" stroke="#9ca3af"/>
  <text x="630" y="120" text-anchor="middle" font-size="11" font-weight="600" fill="#374151">END</text>

  <!-- Continuous memory indicator -->
  <line x1="60" y1="170" x2="660" y2="170" stroke="#7c3aed" stroke-width="2"/>
  <line x1="60" y1="165" x2="60" y2="175" stroke="#7c3aed" stroke-width="2"/>
  <line x1="660" y1="165" x2="660" y2="175" stroke="#7c3aed" stroke-width="2"/>
  <text x="360" y="190" text-anchor="middle" font-size="12" font-weight="600" fill="#7c3aed">Contiguous memory — không có pointer giữa các entry</text>

  <!-- Properties -->
  <rect x="60" y="210" width="280" height="50" fill="#dcfce7" rx="6" stroke="#86efac"/>
  <text x="200" y="231" text-anchor="middle" font-size="12" font-weight="600" fill="#166534">✓ CPU cache-friendly</text>
  <text x="200" y="249" text-anchor="middle" font-size="11" fill="#14532d">Sequential read = pre-fetch cache hits</text>

  <rect x="380" y="210" width="280" height="50" fill="#fef3c7" rx="6" stroke="#fbbf24"/>
  <text x="520" y="231" text-anchor="middle" font-size="12" font-weight="600" fill="#92400e">⚠ O(N) operations</text>
  <text x="520" y="249" text-anchor="middle" font-size="11" fill="#78350f">Nhưng N nhỏ (≤128) → vẫn rất nhanh</text>
</svg>
