<svg xmlns="http://www.w3.org/2000/svg" viewBox="0 0 800 500" font-family="system-ui, -apple-system, sans-serif">
  <defs>
    <marker id="arrowDec" markerWidth="10" markerHeight="7" refX="10" refY="3.5" orient="auto">
      <polygon points="0 0, 10 3.5, 0 7" fill="#374151"/>
    </marker>
  </defs>

  <rect width="800" height="500" fill="#f9fafb" rx="8"/>

  <text x="400" y="34" text-anchor="middle" font-size="17" font-weight="bold" fill="#111827">Cách Redis chọn encoding cho Sorted Set</text>

  <!-- Input ZADD -->
  <rect x="280" y="60" width="240" height="50" fill="#e0e7ff" rx="6" stroke="#6366f1" stroke-width="1.5"/>
  <text x="400" y="82" text-anchor="middle" font-size="13" font-weight="600" fill="#3730a3">ZADD key score member</text>
  <text x="400" y="100" text-anchor="middle" font-size="11" fill="#4338ca">Mọi thao tác ghi vào Sorted Set</text>

  <line x1="400" y1="110" x2="400" y2="135" stroke="#374151" stroke-width="2" marker-end="url(#arrowDec)"/>

  <!-- Decision diamond -->
  <polygon points="400,140 600,210 400,280 200,210" fill="#fef3c7" stroke="#fbbf24" stroke-width="1.5"/>
  <text x="400" y="195" text-anchor="middle" font-size="12" font-weight="600" fill="#92400e">elements &gt; 128?</text>
  <text x="400" y="213" text-anchor="middle" font-size="12" font-weight="600" fill="#92400e">HOẶC</text>
  <text x="400" y="231" text-anchor="middle" font-size="12" font-weight="600" fill="#92400e">member &gt; 64 bytes?</text>

  <!-- NO branch (left) -->
  <line x1="200" y1="210" x2="160" y2="210" stroke="#16a34a" stroke-width="2"/>
  <line x1="160" y1="210" x2="160" y2="320" stroke="#16a34a" stroke-width="2"/>
  <line x1="160" y1="320" x2="200" y2="320" stroke="#16a34a" stroke-width="2" marker-end="url(#arrowDec)"/>
  <text x="170" y="265" text-anchor="middle" font-size="12" font-weight="600" fill="#16a34a">NO</text>

  <!-- YES branch (right) -->
  <line x1="600" y1="210" x2="640" y2="210" stroke="#dc2626" stroke-width="2"/>
  <line x1="640" y1="210" x2="640" y2="320" stroke="#dc2626" stroke-width="2"/>
  <line x1="640" y1="320" x2="600" y2="320" stroke="#dc2626" stroke-width="2" marker-end="url(#arrowDec)"/>
  <text x="630" y="265" text-anchor="middle" font-size="12" font-weight="600" fill="#dc2626">YES</text>

  <!-- Listpack box -->
  <rect x="60" y="300" width="280" height="160" fill="#dcfce7" rx="8" stroke="#16a34a" stroke-width="2"/>
  <text x="200" y="325" text-anchor="middle" font-size="14" font-weight="bold" fill="#14532d">LISTPACK</text>
  <line x1="80" y1="335" x2="320" y2="335" stroke="#86efac"/>
  <text x="80" y="358" font-size="12" fill="#166534">• ~29 bytes / element</text>
  <text x="80" y="378" font-size="12" fill="#166534">• Contiguous memory, no pointers</text>
  <text x="80" y="398" font-size="12" fill="#166534">• Cache-friendly</text>
  <text x="80" y="418" font-size="12" fill="#166534">• O(N) ops — nhanh khi N nhỏ</text>
  <text x="80" y="445" font-size="11" font-style="italic" fill="#15803d">Tiết kiệm 3-5x bộ nhớ</text>

  <!-- Skiplist + Hashtable box -->
  <rect x="460" y="300" width="280" height="160" fill="#fee2e2" rx="8" stroke="#dc2626" stroke-width="2"/>
  <text x="600" y="325" text-anchor="middle" font-size="14" font-weight="bold" fill="#991b1b">SKIPLIST + HASHTABLE</text>
  <line x1="480" y1="335" x2="720" y2="335" stroke="#fca5a5"/>
  <text x="480" y="358" font-size="12" fill="#991b1b">• ~136 bytes / element</text>
  <text x="480" y="378" font-size="12" fill="#991b1b">• O(1) point lookup (hash)</text>
  <text x="480" y="398" font-size="12" fill="#991b1b">• O(log N) sorted ops (skiplist)</text>
  <text x="480" y="418" font-size="12" fill="#991b1b">• Mỗi element lưu 2 lần</text>
  <text x="480" y="445" font-size="11" font-style="italic" fill="#b91c1c">Tốn memory hơn — nhưng scale với N lớn</text>
</svg>
