<svg xmlns="http://www.w3.org/2000/svg" viewBox="0 0 900 340" font-family="system-ui, -apple-system, sans-serif">
  <defs>
    <marker id="arrSL" markerWidth="8" markerHeight="6" refX="7" refY="3" orient="auto">
      <polygon points="0 0, 8 3, 0 6" fill="#374151"/>
    </marker>
  </defs>

  <rect width="900" height="340" fill="#f9fafb" rx="8"/>

  <text x="450" y="28" text-anchor="middle" font-size="16" font-weight="bold" fill="#111827">Skip List — each node is ONE entity with an array of forward pointers</text>

  <!-- Level labels on the left -->
  <text x="50" y="101" font-size="11" fill="#6b7280" font-weight="600">L3</text>
  <text x="50" y="125" font-size="11" fill="#6b7280" font-weight="600">L2</text>
  <text x="50" y="149" font-size="11" fill="#6b7280" font-weight="600">L1</text>
  <text x="50" y="173" font-size="11" fill="#6b7280" font-weight="600">L0</text>

  <!-- Faint level guide lines across full width -->
  <line x1="80" y1="97" x2="840" y2="97" stroke="#f3f4f6" stroke-width="1"/>
  <line x1="80" y1="121" x2="840" y2="121" stroke="#f3f4f6" stroke-width="1"/>
  <line x1="80" y1="145" x2="840" y2="145" stroke="#f3f4f6" stroke-width="1"/>
  <line x1="80" y1="169" x2="840" y2="169" stroke="#f3f4f6" stroke-width="1"/>

  <!-- =========== HEAD (height 4, no label) =========== -->
  <rect x="85" y="85" width="45" height="96" fill="#e0e7ff" stroke="#4f46e5" stroke-width="2" rx="4"/>
  <line x1="85" y1="109" x2="130" y2="109" stroke="#a5b4fc" stroke-width="0.5" stroke-dasharray="2,2"/>
  <line x1="85" y1="133" x2="130" y2="133" stroke="#a5b4fc" stroke-width="0.5" stroke-dasharray="2,2"/>
  <line x1="85" y1="157" x2="130" y2="157" stroke="#a5b4fc" stroke-width="0.5" stroke-dasharray="2,2"/>
  <circle cx="118" cy="97" r="3.5" fill="#1e3a8a"/>
  <circle cx="118" cy="121" r="3.5" fill="#1e3a8a"/>
  <circle cx="118" cy="145" r="3.5" fill="#1e3a8a"/>
  <circle cx="118" cy="169" r="3.5" fill="#1e3a8a"/>
  <text x="107" y="200" text-anchor="middle" font-size="11" font-weight="700" fill="#3730a3">HEAD</text>

  <!-- =========== alice (height 2) =========== -->
  <rect x="215" y="133" width="60" height="82" fill="#ffffff" stroke="#374151" stroke-width="2" rx="4"/>
  <line x1="215" y1="157" x2="275" y2="157" stroke="#e5e7eb" stroke-width="0.5" stroke-dasharray="2,2"/>
  <line x1="215" y1="181" x2="275" y2="181" stroke="#9ca3af" stroke-width="1"/>
  <circle cx="263" cy="145" r="3.5" fill="#1f2937"/>
  <circle cx="263" cy="169" r="3.5" fill="#1f2937"/>
  <text x="245" y="199" text-anchor="middle" font-size="13" font-weight="600" fill="#1f2937">alice</text>
  <text x="245" y="212" text-anchor="middle" font-size="11" fill="#6b7280">1500</text>

  <!-- =========== carol (height 3) =========== -->
  <rect x="365" y="109" width="60" height="106" fill="#fef3c7" stroke="#b45309" stroke-width="2" rx="4"/>
  <line x1="365" y1="133" x2="425" y2="133" stroke="#fbbf24" stroke-width="0.5" stroke-dasharray="2,2"/>
  <line x1="365" y1="157" x2="425" y2="157" stroke="#fbbf24" stroke-width="0.5" stroke-dasharray="2,2"/>
  <line x1="365" y1="181" x2="425" y2="181" stroke="#b45309" stroke-width="1"/>
  <circle cx="413" cy="121" r="3.5" fill="#92400e"/>
  <circle cx="413" cy="145" r="3.5" fill="#92400e"/>
  <circle cx="413" cy="169" r="3.5" fill="#92400e"/>
  <text x="395" y="199" text-anchor="middle" font-size="13" font-weight="600" fill="#92400e">carol</text>
  <text x="395" y="212" text-anchor="middle" font-size="11" fill="#78350f">1800</text>

  <!-- =========== dave (height 1) =========== -->
  <rect x="515" y="157" width="60" height="58" fill="#ffffff" stroke="#374151" stroke-width="2" rx="4"/>
  <line x1="515" y1="181" x2="575" y2="181" stroke="#9ca3af" stroke-width="1"/>
  <circle cx="563" cy="169" r="3.5" fill="#1f2937"/>
  <text x="545" y="199" text-anchor="middle" font-size="13" font-weight="600" fill="#1f2937">dave</text>
  <text x="545" y="212" text-anchor="middle" font-size="11" fill="#6b7280">2100</text>

  <!-- =========== bob (height 2) =========== -->
  <rect x="665" y="133" width="60" height="82" fill="#ffffff" stroke="#374151" stroke-width="2" rx="4"/>
  <line x1="665" y1="157" x2="725" y2="157" stroke="#e5e7eb" stroke-width="0.5" stroke-dasharray="2,2"/>
  <line x1="665" y1="181" x2="725" y2="181" stroke="#9ca3af" stroke-width="1"/>
  <circle cx="713" cy="145" r="3.5" fill="#1f2937"/>
  <circle cx="713" cy="169" r="3.5" fill="#1f2937"/>
  <text x="695" y="199" text-anchor="middle" font-size="13" font-weight="600" fill="#1f2937">bob</text>
  <text x="695" y="212" text-anchor="middle" font-size="11" fill="#6b7280">2300</text>

  <!-- =========== NIL =========== -->
  <rect x="800" y="85" width="40" height="96" fill="#f3f4f6" stroke="#6b7280" stroke-width="1.5" stroke-dasharray="3,2" rx="4"/>
  <text x="820" y="138" text-anchor="middle" font-size="12" font-weight="700" fill="#6b7280">NIL</text>

  <!-- =========== Forward pointers =========== -->
  <!-- L3: HEAD → NIL -->
  <line x1="121" y1="97" x2="800" y2="97" stroke="#374151" stroke-width="1.5" marker-end="url(#arrSL)"/>

  <!-- L2: HEAD → carol → NIL -->
  <line x1="121" y1="121" x2="365" y2="121" stroke="#374151" stroke-width="1.5" marker-end="url(#arrSL)"/>
  <line x1="416" y1="121" x2="800" y2="121" stroke="#374151" stroke-width="1.5" marker-end="url(#arrSL)"/>

  <!-- L1: HEAD → alice → carol → bob → NIL -->
  <line x1="121" y1="145" x2="215" y2="145" stroke="#374151" stroke-width="1.5" marker-end="url(#arrSL)"/>
  <line x1="266" y1="145" x2="365" y2="145" stroke="#374151" stroke-width="1.5" marker-end="url(#arrSL)"/>
  <line x1="416" y1="145" x2="665" y2="145" stroke="#374151" stroke-width="1.5" marker-end="url(#arrSL)"/>
  <line x1="716" y1="145" x2="800" y2="145" stroke="#374151" stroke-width="1.5" marker-end="url(#arrSL)"/>

  <!-- L0: HEAD → alice → carol → dave → bob → NIL -->
  <line x1="121" y1="169" x2="215" y2="169" stroke="#374151" stroke-width="1.5" marker-end="url(#arrSL)"/>
  <line x1="266" y1="169" x2="365" y2="169" stroke="#374151" stroke-width="1.5" marker-end="url(#arrSL)"/>
  <line x1="416" y1="169" x2="515" y2="169" stroke="#374151" stroke-width="1.5" marker-end="url(#arrSL)"/>
  <line x1="566" y1="169" x2="665" y2="169" stroke="#374151" stroke-width="1.5" marker-end="url(#arrSL)"/>
  <line x1="716" y1="169" x2="800" y2="169" stroke="#374151" stroke-width="1.5" marker-end="url(#arrSL)"/>

  <!-- Footnotes -->
  <text x="450" y="255" text-anchor="middle" font-size="12" fill="#374151">Each <tspan font-weight="700">thick-bordered box</tspan> is <tspan font-weight="700">ONE node</tspan>. Inside is the <tspan font-family="ui-monospace, monospace">forward[]</tspan> array — each dot = 1 forward pointer.</text>
  <text x="450" y="277" text-anchor="middle" font-size="12" fill="#374151">Node height = array size = number of levels the node participates in (random 1-32, 50% probability/level).</text>
  <text x="450" y="300" text-anchor="middle" font-size="12" fill="#6b7280" font-style="italic">L0 (bottom) contains all nodes sorted. Higher levels are sparse linked lists of "luckier" nodes.</text>
</svg>
