<svg xmlns="http://www.w3.org/2000/svg" viewBox="0 0 720 320" font-family="system-ui, -apple-system, sans-serif">
  <defs>
    <marker id="arrow1" markerWidth="10" markerHeight="7" refX="10" refY="3.5" orient="auto">
      <polygon points="0 0, 10 3.5, 0 7" fill="#6366f1"/>
    </marker>
  </defs>

  <rect width="720" height="320" fill="#f9fafb" rx="8"/>

  <text x="360" y="36" text-anchor="middle" font-size="17" font-weight="bold" fill="#111827">Sorted Set "leaderboard"</text>
  <text x="360" y="56" text-anchor="middle" font-size="12" fill="#6b7280">Auto-sorted by score (ascending)</text>

  <!-- Container -->
  <rect x="80" y="85" width="560" height="200" fill="#ffffff" rx="8" stroke="#d1d5db" stroke-width="1.5"/>

  <!-- Headers -->
  <text x="180" y="115" text-anchor="middle" font-size="12" font-weight="600" fill="#6b7280">MEMBER</text>
  <text x="380" y="115" text-anchor="middle" font-size="12" font-weight="600" fill="#6b7280">SCORE</text>
  <text x="560" y="115" text-anchor="middle" font-size="12" font-weight="600" fill="#6b7280">RANK</text>
  <line x1="100" y1="125" x2="620" y2="125" stroke="#e5e7eb" stroke-width="1"/>

  <!-- Row 1: alice (score 1500, rank #3) -->
  <rect x="120" y="138" width="120" height="32" fill="#eef2ff" rx="4"/>
  <text x="180" y="158" text-anchor="middle" font-size="13" fill="#3730a3" font-weight="500">"alice"</text>
  <rect x="320" y="138" width="120" height="32" fill="#fef3c7" rx="4"/>
  <text x="380" y="158" text-anchor="middle" font-size="13" fill="#92400e" font-weight="600">1500</text>
  <text x="560" y="158" text-anchor="middle" font-size="13" fill="#374151">#3</text>

  <!-- Row 2: carol (score 1800, rank #2) -->
  <rect x="120" y="180" width="120" height="32" fill="#eef2ff" rx="4"/>
  <text x="180" y="200" text-anchor="middle" font-size="13" fill="#3730a3" font-weight="500">"carol"</text>
  <rect x="320" y="180" width="120" height="32" fill="#fef3c7" rx="4"/>
  <text x="380" y="200" text-anchor="middle" font-size="13" fill="#92400e" font-weight="600">1800</text>
  <text x="560" y="200" text-anchor="middle" font-size="13" fill="#374151">#2</text>

  <!-- Row 3: bob (score 2300, rank #1) -->
  <rect x="120" y="222" width="120" height="32" fill="#eef2ff" rx="4"/>
  <text x="180" y="242" text-anchor="middle" font-size="13" fill="#3730a3" font-weight="500">"bob"</text>
  <rect x="320" y="222" width="120" height="32" fill="#fef3c7" rx="4"/>
  <text x="380" y="242" text-anchor="middle" font-size="13" fill="#92400e" font-weight="600">2300</text>
  <text x="560" y="242" text-anchor="middle" font-size="13" fill="#dc2626" font-weight="600">#1</text>

  <text x="360" y="305" text-anchor="middle" font-size="11" fill="#6b7280" font-style="italic">Each entry = (member, score). Members are unique, scores can duplicate.</text>
</svg>
